<svg width="24" height="24" viewBox="0 0 24 24" fill="none" xmlns="http://www.w3.org/2000/svg">
  <path class="glyphFill" fill-rule="evenodd" clip-rule="evenodd" d="M0.236058 6.01059C0.554961 5.5613 1.1777 5.45561 1.62698 5.77451L3.29302 6.95706C3.29499 6.95385 3.29697 6.95064 3.29895 6.94743L15 15.2529V15.2667L18.4584 17.7214C18.9076 18.0404 19.0133 18.6631 18.6944 19.1124C18.3755 19.5617 17.7528 19.6674 17.3035 19.3485L14.4804 17.3446C14.1146 17.7471 13.5868 17.9998 13 17.9998H5.00001C3.89544 17.9998 3.00001 17.1044 3.00001 15.9998V9.1958L0.472134 7.40151C0.0228496 7.08261 -0.0828453 6.45987 0.236058 6.01059ZM4.24227 6.14835L19.2064 16.7699L19.4345 16.9263C20.0981 17.3814 21 16.9062 21 16.1016V7.89805C21 7.09343 20.0981 6.61828 19.4345 7.07332L15 10.1141V7.99982C15 6.89525 14.1046 5.99982 13 5.99982H5.00001C4.73183 5.99982 4.47598 6.0526 4.24227 6.14835Z" fill="#444444"/>
</svg>
