<svg width="24" height="24" viewBox="0 0 24 24" fill="none" xmlns="http://www.w3.org/2000/svg">
<path class="glyph-fill" fill-rule="evenodd" clip-rule="evenodd" d="M9 8C10.1046 8 11 7.10457 11 6C11 4.89543 10.1046 4 9 4C7.89543 4 7 4.89543 7 6C7 7.10457 7.89543 8 9 8ZM11.8293 7C11.9398 6.68722 12 6.35064 12 6C12 5.64936 11.9398 5.31278 11.8293 5H20C20.5523 5 21 5.44772 21 6C21 6.55228 20.5523 7 20 7H11.8293ZM6.17071 7H4C3.44772 7 3 6.55228 3 6C3 5.44772 3.44772 5 4 5H6.17071C6.06015 5.31278 6 5.64936 6 6C6 6.35064 6.06015 6.68722 6.17071 7ZM18 12C18 12.3506 17.9398 12.6872 17.8293 13H20C20.5523 13 21 12.5523 21 12C21 11.4477 20.5523 11 20 11H17.8293C17.9398 11.3128 18 11.6494 18 12ZM4 13H12.1707C12.0602 12.6872 12 12.3506 12 12C12 11.6494 12.0602 11.3128 12.1707 11H4C3.44772 11 3 11.4477 3 12C3 12.5523 3.44772 13 4 13ZM12 18C12 18.3506 11.9398 18.6872 11.8293 19H20C20.5523 19 21 18.5523 21 18C21 17.4477 20.5523 17 20 17H11.8293C11.9398 17.3128 12 17.6494 12 18ZM4 19H6.17071C6.06015 18.6872 6 18.3506 6 18C6 17.6494 6.06015 17.3128 6.17071 17H4C3.44772 17 3 17.4477 3 18C3 18.5523 3.44772 19 4 19ZM17 12C17 13.1046 16.1046 14 15 14C13.8954 14 13 13.1046 13 12C13 10.8954 13.8954 10 15 10C16.1046 10 17 10.8954 17 12ZM9 20C10.1046 20 11 19.1046 11 18C11 16.8954 10.1046 16 9 16C7.89543 16 7 16.8954 7 18C7 19.1046 7.89543 20 9 20Z" fill="#444444"/>
</svg>
