<svg width="24" height="24" viewBox="0 0 24 24" fill="none" xmlns="http://www.w3.org/2000/svg">
<path class="glyph-fill" fill-rule="evenodd" clip-rule="evenodd" d="M5 5C4.44772 5 4 5.44772 4 6C4 6.55228 4.44772 7 5 7H18V17H16.5C15.9477 17 15.5 17.4477 15.5 18C15.5 18.5523 15.9477 19 16.5 19H18C19.1046 19 20 18.1046 20 17V7C20 5.89543 19.1046 5 18 5H5ZM5 9C4.44772 9 4 9.44772 4 10C4 10.5523 4.44772 11 5 11C5.91925 11 6.82951 11.1811 7.67878 11.5328C8.52806 11.8846 9.29974 12.4002 9.94975 13.0503C10.5998 13.7003 11.1154 14.4719 11.4672 15.3212C11.8189 16.1705 12 17.0807 12 18C12 18.5523 12.4477 19 13 19C13.5523 19 14 18.5523 14 18C14 16.8181 13.7672 15.6478 13.3149 14.5558C12.8626 13.4639 12.1997 12.4718 11.364 11.636C10.5282 10.8003 9.53608 10.1374 8.44415 9.68508C7.35222 9.23279 6.1819 9 5 9ZM5 13C4.44772 13 4 13.4477 4 14C4 14.5523 4.44772 15 5 15C5.39397 15 5.78407 15.0776 6.14805 15.2284C6.51203 15.3791 6.84274 15.6001 7.12132 15.8787C7.3999 16.1573 7.62087 16.488 7.77164 16.8519C7.9224 17.2159 8 17.606 8 18C8 18.5523 8.44772 19 9 19C9.55229 19 10 18.5523 10 18C10 17.3434 9.87067 16.6932 9.6194 16.0866C9.36812 15.48 8.99983 14.9288 8.53553 14.4645C8.07124 14.0002 7.52005 13.6319 6.91342 13.3806C6.30679 13.1293 5.65661 13 5 13ZM6 18C6 18.5523 5.55228 19 5 19C4.44772 19 4 18.5523 4 18C4 17.4477 4.44772 17 5 17C5.55228 17 6 17.4477 6 18Z" fill="#444444"/>
</svg>
