<svg width="40" height="40" viewBox="0 0 40 40" fill="none" xmlns="http://www.w3.org/2000/svg">
<g clip-path="url(#clip0)">
<rect width="40" height="40" rx="20" fill="white"/>
<rect x="0.5" y="0.5" width="39" height="39" rx="19.5" stroke="black" stroke-opacity="0.1"/>
<path fill-rule="evenodd" clip-rule="evenodd" d="M17 16C18.1046 16 19 15.1046 19 14C19 12.8954 18.1046 12 17 12C15.8954 12 15 12.8954 15 14C15 15.1046 15.8954 16 17 16ZM19.8293 15C19.9398 14.6872 20 14.3506 20 14C20 13.6494 19.9398 13.3128 19.8293 13H28C28.5523 13 29 13.4477 29 14C29 14.5523 28.5523 15 28 15H19.8293ZM14.1707 15H12C11.4477 15 11 14.5523 11 14C11 13.4477 11.4477 13 12 13H14.1707C14.0602 13.3128 14 13.6494 14 14C14 14.3506 14.0602 14.6872 14.1707 15ZM26 20C26 20.3506 25.9398 20.6872 25.8293 21H28C28.5523 21 29 20.5523 29 20C29 19.4477 28.5523 19 28 19H25.8293C25.9398 19.3128 26 19.6494 26 20ZM12 21H20.1707C20.0602 20.6872 20 20.3506 20 20C20 19.6494 20.0602 19.3128 20.1707 19H12C11.4477 19 11 19.4477 11 20C11 20.5523 11.4477 21 12 21ZM20 26C20 26.3506 19.9398 26.6872 19.8293 27H28C28.5523 27 29 26.5523 29 26C29 25.4477 28.5523 25 28 25H19.8293C19.9398 25.3128 20 25.6494 20 26ZM12 27H14.1707C14.0602 26.6872 14 26.3506 14 26C14 25.6494 14.0602 25.3128 14.1707 25H12C11.4477 25 11 25.4477 11 26C11 26.5523 11.4477 27 12 27ZM25 20C25 21.1046 24.1046 22 23 22C21.8954 22 21 21.1046 21 20C21 18.8954 21.8954 18 23 18C24.1046 18 25 18.8954 25 20ZM17 28C18.1046 28 19 27.1046 19 26C19 24.8954 18.1046 24 17 24C15.8954 24 15 24.8954 15 26C15 27.1046 15.8954 28 17 28Z" fill="#444444"/>
</g>
<defs>
<clipPath id="clip0">
<rect width="40" height="40" fill="white"/>
</clipPath>
</defs>
</svg>
