<svg width="40" height="40" viewBox="0 0 40 40" fill="none" xmlns="http://www.w3.org/2000/svg">
<rect width="40" height="40" rx="4" fill="#FF9F96"/>
<rect x="0.5" y="0.5" width="39" height="39" rx="3.5" stroke="#FF7467" stroke-opacity="0.7"/>
<g filter="url(#filter0_d)">
<path d="M27.5 19.134C28.1667 19.5189 28.1667 20.4811 27.5 20.866L15.5 27.7942C14.8333 28.1791 14 27.698 14 26.9282L14 13.0718C14 12.302 14.8333 11.8209 15.5 12.2058L27.5 19.134Z" fill="white"/>
<path d="M27.5 19.134C28.1667 19.5189 28.1667 20.4811 27.5 20.866L15.5 27.7942C14.8333 28.1791 14 27.698 14 26.9282L14 13.0718C14 12.302 14.8333 11.8209 15.5 12.2058L27.5 19.134Z" fill="url(#paint0_linear)"/>
</g>
<defs>
<filter id="filter0_d" x="6" y="6.07031" width="30" height="31.8594" filterUnits="userSpaceOnUse" color-interpolation-filters="sRGB">
<feFlood flood-opacity="0" result="BackgroundImageFix"/>
<feColorMatrix in="SourceAlpha" type="matrix" values="0 0 0 0 0 0 0 0 0 0 0 0 0 0 0 0 0 0 127 0"/>
<feOffset dy="2"/>
<feGaussianBlur stdDeviation="4"/>
<feColorMatrix type="matrix" values="0 0 0 0 0.929167 0 0 0 0 0 0 0 0 0 0 0 0 0 0.3 0"/>
<feBlend mode="normal" in2="BackgroundImageFix" result="effect1_dropShadow"/>
<feBlend mode="normal" in="SourceGraphic" in2="effect1_dropShadow" result="shape"/>
</filter>
<linearGradient id="paint0_linear" x1="13" y1="29.5" x2="21.7671" y2="18.2073" gradientUnits="userSpaceOnUse">
<stop stop-color="#FFE2DF"/>
<stop offset="1" stop-color="#FFE2DF" stop-opacity="0"/>
</linearGradient>
</defs>
</svg>
