<svg width="40" height="40" viewBox="0 0 40 40" fill="none" xmlns="http://www.w3.org/2000/svg">
<g clip-path="url(#clip0)">
<rect width="40" height="40" rx="20" fill="white"/>
<rect x="0.5" y="0.5" width="39" height="39" rx="19.5" stroke="#D1C2B3" stroke-opacity="0.35"/>
<path d="M17.0787 15.1056C19.7753 15.1056 20 12.5698 20 11C20.0375 12.8113 21.1011 16.4339 25.0562 16.4339V17.5207C25.0562 22.2301 23.3708 23.0754 22.4719 23.0754C22.4719 25.0075 23.3708 25.7204 24.4944 26.445C25.618 27.1695 30 28.5679 30 30.5V32.3149C28.8317 33.5586 25.196 36 20 36C14.804 36 11.1683 33.4298 10 32.1217V30.5C10 28.3264 13.7079 27.411 15.7303 26.445C17.7528 25.4789 17.5281 24.0415 17.5281 23.3169C15.5056 23.3169 15.0562 19.5735 15.0562 17.2792C15.0562 15.4438 16.4045 15.0654 17.0787 15.1056Z" fill="#FFF8F0"/>
<path d="M20 11C20 12.5167 19.7753 14.9667 17.0787 14.9667C16.4045 14.9278 15.0562 15.2933 15.0562 17.0667C15.0562 18.8355 15.3424 21.4957 16.4856 22.4985C16.9601 22.9147 17.5872 23.4168 17.488 24.0402C17.3703 24.7794 16.9777 25.6399 15.7303 26.2156C13.7079 27.1489 10 28.0333 10 30.1333C10 30.9733 10 31.7278 10 32M30 32C30 32 30 31.6267 30 30.1333C30 28.2667 25.618 26.9156 24.4944 26.2156C23.6237 25.6731 22.888 24.9613 22.6009 23.7997C22.4494 23.187 23.0254 22.6718 23.5312 22.2941C24.3004 21.7196 25.0562 20.3469 25.0562 17.3C25.0562 16.9267 25.0562 16.3667 25.0562 16.25" stroke="#D1C2B3"/>
<path d="M26.2308 23C27.6154 23 29 21.6866 29 19.7761C29 17.8657 26.4615 16.0746 26.4615 13.5672C26.4615 11.0597 25.0769 7 20.1154 7C15.1538 7 13.5385 11.0597 13.5385 13.5672C13.5385 16.0746 11 17.1493 11 19.7761C11 22.403 13.0769 23 13.7692 23" stroke="#D1C2B3"/>
<circle cx="33.5" cy="33.5" r="6.5" fill="white"/>
<circle cx="33.5" cy="33.5" r="5.5" fill="#66B7AF"/>
<circle cx="33.5" cy="33.5" r="5" stroke="black" stroke-opacity="0.1"/>
<path d="M33.5 31V36M31 33.5H36" stroke="white"/>
</g>
<defs>
<clipPath id="clip0">
<rect width="40" height="40" fill="white"/>
</clipPath>
</defs>
</svg>
