<svg width="40" height="40" viewBox="0 0 40 40" fill="none" xmlns="http://www.w3.org/2000/svg">
<g clip-path="url(#clip0)">
<mask id="mask0" mask-type="alpha" maskUnits="userSpaceOnUse" x="0" y="0" width="40" height="40">
<rect width="40" height="40" rx="4" fill="#FF0000"/>
</mask>
<g mask="url(#mask0)">
<rect width="40" height="40" rx="4" fill="#8AE1D9"/>
<rect x="0.5" y="0.5" width="39" height="39" rx="3.5" stroke="#61BEB5" stroke-opacity="0.8"/>
<g style="mix-blend-mode:multiply" opacity="0.6">
<path d="M-0.5 21C-0.5 21 6.4 13.4813 11.2 14.0279C16 14.5746 14.2 22.7741 17.2 23.8672C20.2 24.9602 22 20 22 20" stroke="#61BEB5" stroke-width="2" stroke-linecap="round"/>
</g>
<g filter="url(#filter0_d)">
<path fill-rule="evenodd" clip-rule="evenodd" d="M22.4633 19.4566C22.0047 19.2689 21.5292 19.6863 21.6558 20.1653L23.4308 26.8768C23.4535 26.9624 23.4947 27.0419 23.5517 27.1096L32.5892 37.8553C33.9205 39.4383 36.293 39.6172 37.8467 38.2518V38.2518C39.3533 36.9278 39.5256 34.6424 38.2346 33.1074L29.1025 22.2492C29.0401 22.1749 28.9605 22.1169 28.8707 22.0801L22.4633 19.4566Z" fill="white"/>
<path fill-rule="evenodd" clip-rule="evenodd" d="M22.4633 19.4566C22.0047 19.2689 21.5292 19.6863 21.6558 20.1653L23.4308 26.8768C23.4535 26.9624 23.4947 27.0419 23.5517 27.1096L32.5892 37.8553C33.9205 39.4383 36.293 39.6172 37.8467 38.2518V38.2518C39.3533 36.9278 39.5256 34.6424 38.2346 33.1074L29.1025 22.2492C29.0401 22.1749 28.9605 22.1169 28.8707 22.0801L22.4633 19.4566Z" fill="url(#paint0_linear)"/>
</g>
</g>
</g>
<defs>
<filter id="filter0_d" x="12.035" y="12.2106" width="36.6654" height="38.9593" filterUnits="userSpaceOnUse" color-interpolation-filters="sRGB">
<feFlood flood-opacity="0" result="BackgroundImageFix"/>
<feColorMatrix in="SourceAlpha" type="matrix" values="0 0 0 0 0 0 0 0 0 0 0 0 0 0 0 0 0 0 127 0"/>
<feOffset dy="2.40002"/>
<feGaussianBlur stdDeviation="4.80005"/>
<feColorMatrix type="matrix" values="0 0 0 0 0.202448 0 0 0 0 0.372552 0 0 0 0 0.355752 0 0 0 0.3 0"/>
<feBlend mode="normal" in2="BackgroundImageFix" result="effect1_dropShadow"/>
<feBlend mode="normal" in="SourceGraphic" in2="effect1_dropShadow" result="shape"/>
</filter>
<linearGradient id="paint0_linear" x1="31.0327" y1="35.2193" x2="34.0879" y2="30.8514" gradientUnits="userSpaceOnUse">
<stop stop-color="#E5FDF4"/>
<stop offset="1" stop-color="#E5FDF4" stop-opacity="0"/>
</linearGradient>
<clipPath id="clip0">
<rect width="40" height="40" fill="white"/>
</clipPath>
</defs>
</svg>
