<svg width="67" height="48" viewBox="0 0 67 48" fill="none" xmlns="http://www.w3.org/2000/svg">
<circle cx="24" cy="24" r="24" fill="white"/>
<circle cx="24" cy="24" r="23.5" stroke="black" stroke-opacity="0.08"/>
<path fill-rule="evenodd" clip-rule="evenodd" d="M33 23C33 23.338 32.9814 23.6717 32.9451 24H34.9552C34.9848 23.6706 35 23.3371 35 23C35 16.9249 30.0751 12 24 12C17.9249 12 13 16.9249 13 23C13 29.0751 17.9249 34 24 34C24.683 34 25.3514 33.9378 26 33.8186V31.777C25.3568 31.9229 24.6874 32 24 32C19.0294 32 15 27.9706 15 23C15 18.0294 19.0294 14 24 14C28.9706 14 33 18.0294 33 23ZM24 29C21.2386 29 19 26.7614 19 24H29C29 25.1256 28.6281 26.1643 28.0004 27H28V27.0005C27.0878 28.2147 25.6356 29 24 29ZM19.5 22C20.3284 22 21 21.3284 21 20.5C21 19.6716 20.3284 19 19.5 19C18.6716 19 18 19.6716 18 20.5C18 21.3284 18.6716 22 19.5 22ZM28.5 22C29.3284 22 30 21.3284 30 20.5C30 19.6716 29.3284 19 28.5 19C27.6716 19 27 19.6716 27 20.5C27 21.3284 27.6716 22 28.5 22ZM31 26V29H28V31H31V34H33V31H36V29H33V26H31Z" fill="#444444"/>
</svg>
