<svg width="16" height="16" viewBox="0 0 16 16" fill="none" xmlns="http://www.w3.org/2000/svg">
<path fill-rule="evenodd" clip-rule="evenodd" d="M12.1627 6.20952C12.5878 5.18315 12.8543 4.10011 12.9547 2.99756C13.0047 2.44814 12.5528 2 12.0011 2C11.4494 2 11.0079 2.44858 10.9468 2.99687C10.8532 3.83683 10.6416 4.6611 10.3169 5.44498C9.86452 6.53717 9.20142 7.52957 8.36549 8.36549C7.52957 9.20142 6.53717 9.86452 5.44498 10.3169C4.6611 10.6416 3.83683 10.8532 2.99687 10.9468C2.44858 11.0079 2 11.4494 2 12.0011C2 12.5528 2.44814 13.0047 2.99756 12.9547C4.10011 12.8543 5.18315 12.5878 6.20952 12.1627C7.5441 11.6099 8.75673 10.7996 9.77817 9.77817C10.7996 8.75673 11.6099 7.5441 12.1627 6.20952ZM8.46716 4.67878C8.69102 4.13834 8.84574 3.57321 8.92867 2.99678C9.00733 2.45003 8.55221 2 7.99983 2C7.44745 2 7.00972 2.45215 6.89996 2.99352C6.83626 3.30767 6.74235 3.61572 6.61909 3.91329C6.36783 4.51988 5.99956 5.07104 5.5353 5.5353C5.07103 5.99956 4.51988 6.36783 3.91329 6.61909C3.61572 6.74235 3.30767 6.83626 2.99352 6.89996C2.45215 7.00972 2 7.44745 2 7.99983C2 8.55221 2.45003 9.00733 2.99678 8.92867C3.57321 8.84574 4.13834 8.69102 4.67878 8.46716C5.52806 8.11537 6.29974 7.59976 6.94975 6.94975C7.59976 6.29974 8.11537 5.52806 8.46716 4.67878Z" fill="currentColor"/>
</svg>
