<svg width="32" height="32" viewBox="0 0 32 32" fill="none" xmlns="http://www.w3.org/2000/svg">
<path fill-rule="evenodd" clip-rule="evenodd" d="M26.0012 7L24.9854 8.54848L24.3987 9.44302C23.5421 10.7488 22.5283 11.9434 21.3806 13L21.8503 13L23.9453 13L22.6278 14.6289L20.9851 16.6599C19.2763 18.7725 16.7046 20 13.9875 20H10.3115L8.56301 22.9061L8.56165 22.9052L8.5238 22.9705C7.79497 24.2268 6.45241 25 5 25L6.86027 21.8815L6.8493 21.8749L8.88929 18.4845L8.89448 18.4758L8.89984 18.4673L13.4706 11.2057C15.1181 8.58818 17.9944 7.00001 21.0873 7L24.1493 7L26.0012 7ZM11.5572 18H13.9875C16.1008 18 18.101 17.0453 19.43 15.4022L19.7553 15H18.7H16.0024L18.0482 13.2417L19.5927 11.9141C20.598 11.05 21.4982 10.0718 22.2752 9L21.0873 9.00001C18.6817 9.00001 16.4446 10.2353 15.1632 12.2711L11.5572 18ZM11.9969 25H18.7609C19.5184 25 20.2109 24.572 20.5497 23.8945L20.9969 23H14.233C13.4755 23 12.7829 23.428 12.4442 24.1056L11.9969 25Z" fill="#303030"/>
</svg>
