<svg width="24" height="24" viewBox="0 0 24 24" fill="none" xmlns="http://www.w3.org/2000/svg">
<path fill-rule="evenodd" clip-rule="evenodd" d="M9.29245 1.29297L6.29245 4.29297L5.58535 5.00008L6.29245 5.70718L9.29245 8.70718L10.7067 7.29297L9.41377 6.00008H12.9996C13.7875 6.00008 14.5677 6.15527 15.2957 6.4568C16.0236 6.75833 16.685 7.20028 17.2422 7.75744C17.7994 8.31459 18.2413 8.97602 18.5428 9.70398C18.8444 10.4319 18.9996 11.2121 18.9996 12.0001C18.9996 12.788 18.8444 13.5682 18.5428 14.2962C18.2413 15.0241 17.7994 15.6856 17.2422 16.2427C16.685 16.7999 16.0236 17.2418 15.2957 17.5434C14.5677 17.8449 13.7875 18.0001 12.9996 18.0001H6.99957C6.44729 18.0001 5.99957 18.4478 5.99957 19.0001C5.99957 19.5524 6.44729 20.0001 6.99957 20.0001H12.9996H12.9996C14.0501 20.0001 15.0904 19.7931 16.061 19.3911C17.0316 18.9891 17.9135 18.3998 18.6564 17.6569C19.3993 16.9141 19.9886 16.0321 20.3906 15.0615C20.7926 14.0909 20.9996 13.0507 20.9996 12.0001C20.9996 10.9495 20.7926 9.90921 20.3906 8.93861C19.9886 7.968 19.3993 7.08609 18.6564 6.34322C17.9135 5.60035 17.0316 5.01108 16.061 4.60904C15.0904 4.207 14.0501 4.00008 12.9996 4.00008L9.41377 4.00008L10.7067 2.70718L9.29245 1.29297ZM8.99956 10.0001C8.99956 9.61206 8.7751 9.25907 8.42371 9.09449C8.07233 8.92991 7.65746 8.98345 7.35938 9.23185L4.35938 11.7319L5.63974 13.2683L6.99956 12.1351V16.0001H8.99956V10.0001ZM13.9996 12.5001C13.9996 13.0078 13.8226 13.4164 13.6024 13.6734C13.3857 13.9261 13.1664 14.0001 12.9996 14.0001C12.8328 14.0001 12.6134 13.9261 12.3968 13.6734C12.1765 13.4164 11.9996 13.0078 11.9996 12.5001C11.9996 11.9923 12.1765 11.5837 12.3968 11.3268C12.6134 11.074 12.8328 11.0001 12.9996 11.0001C13.1664 11.0001 13.3857 11.074 13.6024 11.3268C13.8226 11.5837 13.9996 11.9923 13.9996 12.5001ZM15.9996 12.5001C15.9996 14.4331 14.6564 16.0001 12.9996 16.0001C11.3427 16.0001 9.99956 14.4331 9.99956 12.5001C9.99956 10.5671 11.3427 9.00008 12.9996 9.00008C14.6564 9.00008 15.9996 10.5671 15.9996 12.5001Z" fill="#333333"/>
</svg>
