<svg width="125" height="40" viewBox="0 0 125 40" fill="none" xmlns="http://www.w3.org/2000/svg">
<g clip-path="url(#clip0)">
<path d="M100.14 21.0369C95.2819 21.0369 92.3998 25.5646 91.3119 27.8412C91.1557 28.1655 91.5057 28.4962 91.8121 28.3182C93.7877 27.1799 95.9446 25.5074 99.3581 25.5074C103.04 25.5074 105.372 28.35 109.492 28.35C115.113 28.35 117.126 23.8604 117.976 21.5266C118.095 21.1959 117.739 20.9034 117.445 21.0878C115.588 22.2897 113.5 24.172 110.318 24.172C106.973 24.1656 104.341 21.0369 100.14 21.0369Z" fill="#6259BE"/>
<path d="M47.6485 0.0325454C47.3734 -0.0755601 47.0796 0.166087 46.9983 0.452249C45.8917 4.46487 38.2895 32.3052 37.8456 34.461C37.458 36.3496 39.0397 39.4211 41.3279 39.9489C41.6717 40.0252 41.903 39.9807 42.0031 39.6437C42.0906 39.3511 42.3532 38.5372 42.5907 37.7105C44.4913 31.0397 50.9182 9.97189 51.5246 7.8225C52.1248 5.67311 49.0614 0.579432 47.6485 0.0325454Z" fill="#545351"/>
<path d="M69.9504 0.0325454C69.6753 -0.0755601 69.3815 0.166087 69.3002 0.452249C68.6625 2.76698 65.8554 13.037 63.511 21.7172C63.0358 20.1656 61.8792 18.1434 59.9412 17.7428C57.4342 17.2213 52.8641 19.4216 50.4571 24.28C48.6003 28.0255 47.5375 33.0111 49.1442 36.6994C50.4821 39.7581 52.9829 40.4322 54.5646 39.6691C56.4776 38.747 58.622 36.3305 60.1787 34.2956C60.1662 34.3592 60.1537 34.4164 60.1412 34.461C59.7536 36.3496 61.3353 39.4211 63.6235 39.9489C63.9674 40.0252 64.1987 39.9807 64.2987 39.6437C64.3862 39.3511 64.6488 38.5372 64.8864 37.7105C66.7869 31.0397 73.2138 9.97189 73.8203 7.8225C74.4267 5.67311 71.3696 0.579432 69.9504 0.0325454ZM55.2085 35.9554C54.4145 36.1652 53.5268 36.0444 53.3955 34.7471C53.2204 33.0047 54.0707 27.7648 56.1213 24.776C58.0281 21.997 61.1165 20.4072 63.1859 22.9255C62.4419 25.6917 61.7542 28.2417 61.2291 30.2448C59.7786 32.1844 57.1153 35.453 55.2085 35.9554Z" fill="#545351"/>
<path d="M32.3575 14.8558C32.2637 14.4489 31.701 14.3598 31.0383 14.2581C30.2318 14.1373 28.6064 13.7303 26.662 13.1961C27.4935 10.4362 28.1 8.40767 28.2688 7.81627C28.8689 5.66688 25.8118 0.573206 24.3926 0.0263198C24.1175 -0.0817857 23.8237 0.159862 23.7424 0.446024C23.3485 1.87047 22.1419 6.28372 20.7228 11.4919C17.7594 10.6207 15.0774 9.80032 14.0395 9.49509C12.2703 8.97364 7.3063 9.87663 8.08153 15.8669C8.17531 16.611 8.77549 16.611 9.18186 16.4583C9.58823 16.3057 10.3697 15.4854 12.4953 14.9703C13.877 14.6333 16.7091 14.8558 19.71 15.2247C17.3593 23.8858 14.8398 33.2401 14.5897 34.4547C14.2021 36.3434 15.7838 39.4149 18.072 39.9427C18.4158 40.019 18.6472 39.9745 18.7472 39.6374C18.8347 39.3449 19.0973 38.5309 19.3349 37.7043C20.5415 33.4627 23.5799 23.4089 25.7868 16.0895C27.7498 16.3757 29.3066 16.5919 29.913 16.5601C31.8948 16.4647 32.4888 15.4345 32.3575 14.8558Z" fill="#545351"/>
<path d="M32.9579 18.0163C32.7829 17.9973 32.5641 18.1054 32.5203 18.2643C31.1386 22.932 28.2315 33.2274 27.9189 34.5183C27.4876 36.3052 29.038 39.9617 31.2199 39.9999C31.4888 40.0063 31.6388 39.7837 31.6638 39.5102C31.6888 39.2559 31.7013 38.7026 31.8076 38.2321C32.4703 35.2751 35.9526 24.8015 36.2777 23.2881C36.7778 20.9288 34.5834 18.2262 32.9579 18.0163Z" fill="#545351"/>
<path d="M35.3895 9.71128C34.6581 10.5888 34.1204 12.4394 34.1391 13.8574C34.1642 15.3582 35.4395 16.9989 36.1085 17.374C36.7962 17.762 37.0963 17.603 37.5151 17.196C38.5592 16.204 39.4845 13.2597 38.8468 11.6635C38.3842 10.5189 37.5902 9.82574 37.0463 9.58409C36.4648 9.32973 35.7396 9.29157 35.3895 9.71128Z" fill="#545351"/>
<path d="M85.5541 31.6885C83.3097 34.0986 78.327 37.8378 75.4886 36.6359C74.3008 36.1335 74.4946 33.8697 74.8572 33.5899C77.1641 32.4707 82.6658 29.9016 84.2162 28.8714C85.8104 27.8158 87.8173 26.633 86.8295 23.0083C86.3794 21.3549 85.2478 17.1579 80.6964 17.8192C76.6327 18.4106 73.2005 21.9526 71.6375 25.9398C69.4118 31.6249 69.2681 38.2511 74.0507 39.7519C77.7706 40.922 82.3719 37.3418 83.6536 35.9428C84.7914 34.6964 85.7854 33.2274 86.0918 31.9937C86.1731 31.6694 85.7792 31.4405 85.5541 31.6885ZM82.2719 21.9781C82.9096 21.8064 83.3035 21.9336 83.3847 22.7348C83.4848 23.7332 83.2597 25.5074 82.3219 26.4613C80.984 27.8221 76.4889 30.2068 75.7887 30.4612C76.8078 26.1115 79.5899 22.7094 82.2719 21.9781Z" fill="#545351"/>
</g>
<defs>
<clipPath id="clip0">
<rect width="125" height="40" fill="white"/>
</clipPath>
</defs>
</svg>
