<svg xmlns="http://www.w3.org/2000/svg" width="92" height="10" fill="none">
  <!-- <path fill="#545351" fill-rule="evenodd" d="M1 0a1 1 0 0 0-1 1v8a1 1 0 1 0 2 0V7h1.5a3.5 3.5 0 0 0 2.52-.98A3.5 3.5 0 0 0 7 3.5 3.5 3.5 0 0 0 6.02.98 3.5 3.5 0 0 0 3.5 0H1Zm2.5 5H2V2h1.5c.52 0 .88.17 1.1.4.23.22.4.58.4 1.1 0 .52-.17.88-.4 1.1-.22.23-.58.4-1.1.4ZM10 5a3 3 0 1 1 6 0 3 3 0 0 1-6 0Zm3-5a5 5 0 1 0 0 10 5 5 0 0 0 0-10Zm6 1a1 1 0 0 1 1-1h2.5c.98 0 1.87.33 2.52.98.65.65.98 1.54.98 2.52a3.5 3.5 0 0 1-.98 2.52A3.5 3.5 0 0 1 22.5 7H21v2a1 1 0 1 1-2 0V1Zm2 4h1.5c.52 0 .88-.17 1.1-.4.23-.22.4-.58.4-1.1 0-.52-.17-.88-.4-1.1a1.5 1.5 0 0 0-1.1-.4H21v3Zm21-5a1 1 0 0 0-1 1v8a1 1 0 1 0 2 0V7h6.5a3.5 3.5 0 0 0 2.52-.98A3.5 3.5 0 0 0 53 3.5a3.5 3.5 0 0 0-.98-2.52A3.5 3.5 0 0 0 49.5 0H42Zm7.5 5H43V2h6.5c.52 0 .88.17 1.1.4.23.22.4.58.4 1.1 0 .52-.17.88-.4 1.1-.22.23-.58.4-1.1.4ZM36 2c.57 0 .9.1 1.03.17a1 1 0 0 0 .95-1.76A4.22 4.22 0 0 0 36 0h-5.57c-.89.01-1.74.24-2.38.76A2.8 2.8 0 0 0 27 3c0 .91.37 1.7 1.05 2.24.65.52 1.5.75 2.4.76H36c.6 0 .98.15 1.2.32.18.14.3.35.3.68 0 .33-.12.54-.3.68-.22.17-.6.32-1.2.32H30.46c-.73 0-1.3-.22-1.73-.68a1 1 0 1 0-1.46 1.36c.9.96 2.03 1.3 3.17 1.32H36c.9 0 1.77-.23 2.43-.74A2.8 2.8 0 0 0 39.5 7a2.8 2.8 0 0 0-1.07-2.26A3.9 3.9 0 0 0 36 4h-5.54a1.9 1.9 0 0 1-1.16-.32c-.18-.15-.3-.35-.3-.68 0-.33.12-.53.3-.68.2-.16.58-.31 1.16-.32H36ZM58.85.47a1 1 0 0 0-1.7 0l-5 8A1 1 0 0 0 53 10h10a1 1 0 0 0 .85-1.53l-5-8ZM54.8 8 58 2.89 61.2 8h-6.4ZM80 1a1 1 0 0 1 1-1h10a1 1 0 1 1 0 2h-9v2h7a1 1 0 1 1 0 2h-7v2h9a1 1 0 1 1 0 2H81a1 1 0 0 1-1-1V1ZM69 0a5 5 0 0 0 0 10h5a4.98 4.98 0 0 0 4.33-2.5 1 1 0 0 0-1.73-1A3.02 3.02 0 0 1 74 8h-5a3 3 0 1 1 0-6h5a2.98 2.98 0 0 1 2.6 1.5 1 1 0 1 0 1.73-1A5.02 5.02 0 0 0 74 0h-5Z" clip-rule="evenodd"/> -->
  <path fill="#545351" d="M0 1a1 1 0 0 1 1-1h2.5c.98 0 1.87.33 2.52.98.65.65.98 1.54.98 2.52a3.5 3.5 0 0 1-.98 2.52A3.5 3.5 0 0 1 3.5 7H2v2a1 1 0 1 1-2 0V1Zm2 4h1.5c.52 0 .88-.17 1.1-.4.23-.22.4-.58.4-1.1 0-.52-.17-.88-.4-1.1A1.5 1.5 0 0 0 3.5 2H2v3Zm11-3a3 3 0 1 0 0 6 3 3 0 0 0 0-6ZM8 5a5 5 0 1 1 10 0A5 5 0 0 1 8 5Zm12-5a1 1 0 0 0-1 1v8a1 1 0 1 0 2 0V7h1.5a3.5 3.5 0 0 0 2.52-.98A3.5 3.5 0 0 0 26 3.5a3.5 3.5 0 0 0-.98-2.52A3.5 3.5 0 0 0 22.5 0H20Zm2.5 5H21V2h1.5c.52 0 .88.17 1.1.4.23.22.4.58.4 1.1 0 .52-.17.88-.4 1.1-.22.23-.58.4-1.1.4Z"/>
    <path fill="#6259BE" d="M36 2c.57 0 .9.1 1.03.17a1 1 0 0 0 .95-1.76A4.22 4.22 0 0 0 36 0h-5.57c-.89.01-1.74.24-2.38.76A2.8 2.8 0 0 0 27 3c0 .91.37 1.7 1.05 2.24.65.52 1.5.75 2.4.76H36c.6 0 .98.15 1.2.32.18.14.3.35.3.68 0 .33-.12.54-.3.68-.22.17-.6.32-1.2.32H30.46c-.73 0-1.3-.22-1.73-.68a1 1 0 0 0-1.46 1.36c.9.96 2.03 1.3 3.17 1.32H36c.9 0 1.77-.23 2.43-.74A2.8 2.8 0 0 0 39.5 7a2.8 2.8 0 0 0-1.07-2.26A3.9 3.9 0 0 0 36 4h-5.54a1.9 1.9 0 0 1-1.16-.32c-.18-.15-.3-.35-.3-.68 0-.33.12-.53.3-.68.2-.16.58-.31 1.16-.32H36Zm5-1a1 1 0 0 1 1-1h7.5c.98 0 1.87.33 2.52.98.65.65.98 1.54.98 2.52a3.5 3.5 0 0 1-.98 2.52A3.5 3.5 0 0 1 49.5 7H43v2a1 1 0 1 1-2 0V1Zm2 4h6.5c.52 0 .88-.17 1.1-.4.23-.22.4-.58.4-1.1 0-.52-.17-.88-.4-1.1a1.5 1.5 0 0 0-1.1-.4H43v3ZM58.85.47a1 1 0 0 0-1.7 0l-5 8A1 1 0 0 0 53 10h10a1 1 0 0 0 .85-1.53l-5-8ZM54.8 8 58 2.89 61.2 8h-6.4ZM80 1a1 1 0 0 1 1-1h10a1 1 0 1 1 0 2h-9v2h7a1 1 0 1 1 0 2h-7v2h9a1 1 0 1 1 0 2H81a1 1 0 0 1-1-1V1ZM69 0a5 5 0 0 0 0 10h5a4.98 4.98 0 0 0 4.33-2.5 1 1 0 0 0-1.73-1A3.02 3.02 0 0 1 74 8h-5a3 3 0 0 1 0-6h5a2.98 2.98 0 0 1 2.6 1.5 1 1 0 1 0 1.73-1A5.02 5.02 0 0 0 74 0h-5Z"/>
</svg>
