<svg width="100" height="100" viewBox="0 0 100 100" fill="none" xmlns="http://www.w3.org/2000/svg">
<circle cx="50" cy="50" r="50" fill="#4F8DF5"/>
<path fill-rule="evenodd" clip-rule="evenodd" d="M47.3735 45.9934C45.7246 41.7857 46.6002 36.8174 50.0001 33.4174L53.3166 30.101C57.8957 25.5218 65.3199 25.5218 69.8991 30.101C74.4782 34.6801 74.4782 42.1043 69.8991 46.6834L66.5826 49.9999C63.1826 53.3998 58.2142 54.2753 54.0064 52.6264L57.8997 48.7332C59.8284 48.84 61.7927 48.1568 63.2661 46.6834L66.5826 43.3669C69.3301 40.6194 69.3301 36.1649 66.5826 33.4174C63.8351 30.67 59.3806 30.67 56.6331 33.4174L53.3166 36.7339C51.8433 38.2073 51.16 40.1715 51.2668 42.1001L47.3735 45.9934ZM45.9935 47.3734C41.7858 45.7246 36.8175 46.6002 33.4176 50L30.1011 53.3165C25.522 57.8956 25.522 65.3199 30.1011 69.899C34.6802 74.4781 42.1044 74.4781 46.6836 69.899L50.0001 66.5825C53.4001 63.1825 54.2756 58.214 52.6266 54.0063L48.7333 57.8995C48.8402 59.8283 48.157 61.7926 46.6836 63.266L43.3671 66.5825C40.6196 69.3299 36.1651 69.3299 33.4176 66.5825C30.6701 63.835 30.6701 59.3805 33.4176 56.633L36.7341 53.3165C38.2074 51.8432 40.1716 51.16 42.1001 51.2668L45.9935 47.3734ZM56.5998 40.1004L40.1006 56.5995L43.4005 59.8994L59.8996 43.4002L56.5998 40.1004Z" fill="white"/>
</svg>
