<svg width="24" height="24" viewBox="0 0 24 24" fill="none" xmlns="http://www.w3.org/2000/svg">
<path fill="currentColor" fill-rule="evenodd" clip-rule="evenodd" d="M3.19063 3.18477C3.58021 2.79518 4.21186 2.79518 4.60145 3.18477L19.6992 18.2825C20.0887 18.6721 20.0887 19.3037 19.6992 19.6933C19.3096 20.0829 18.6779 20.0829 18.2883 19.6933L3.19063 4.59559C2.80104 4.206 2.80104 3.57435 3.19063 3.18477ZM9.00034 6.0002C9.00034 4.34334 10.3435 3.0002 12.0003 3.0002C13.6572 3.0002 15.0003 4.34334 15.0003 6.0002V10.0002C15.0003 10.6121 14.8171 11.1813 14.5026 11.6557L9.00034 6.15352V6.0002ZM7.00682 9.85249L5.37452 8.22019C5.14637 8.40347 5.00034 8.68478 5.00034 9.0002V9.57163C5.00034 13.2587 7.56186 16.408 11.0003 16.9257V19.0002H9.00034C8.44805 19.0002 8.00034 19.4479 8.00034 20.0002C8.00034 20.5525 8.44805 21.0002 9.00034 21.0002H12.0003H15.0003C15.5526 21.0002 16.0003 20.5525 16.0003 20.0002C16.0003 19.4479 15.5526 19.0002 15.0003 19.0002H13.0003V16.9257C13.3021 16.8803 13.5972 16.8145 13.8843 16.73L12.152 14.9977C12.1016 14.9994 12.051 15.0002 12.0003 15.0002C9.38579 15.0002 7.14243 12.7791 7.00682 9.85249ZM17.2872 14.4404C18.3589 13.127 19.0003 11.4167 19.0003 9.57163V9.0002C19.0003 8.44791 18.5526 8.0002 18.0003 8.0002C17.4481 8.0002 17.0003 8.44791 17.0003 9.0002V9.57163C17.0003 10.8957 16.5704 12.0892 15.8644 13.0176L17.2872 14.4404Z" />
</svg>
