<svg width="24" height="24" viewBox="0 0 24 24" fill="none" xmlns="http://www.w3.org/2000/svg">
<path fill-rule="evenodd" clip-rule="evenodd" d="M10.1871 5.23884C11.4941 4.88838 12.8747 4.92426 14.1617 5.34215C15.4488 5.76003 16.5871 6.542 17.4389 7.59342C18.2662 8.61454 18.7889 9.84729 18.9482 11.1502C18.953 11.1889 18.9574 11.2276 18.9614 11.2663C18.9895 11.5329 19.0022 11.8003 18.9997 12.0672L20.9996 12.0863C21.0031 11.7212 20.9844 11.3554 20.9432 10.9909C20.7508 9.28489 20.0742 7.66905 18.9929 6.33439C17.8977 4.98258 16.4341 3.97719 14.7793 3.4399C13.1246 2.90262 11.3495 2.85649 9.6691 3.30708C7.98865 3.75767 6.47483 4.68567 5.31085 5.97877C4.14687 7.27186 3.38264 8.87461 3.11066 10.593C2.83867 12.3114 3.07059 14.0719 3.77835 15.6612C4.4861 17.2506 5.63935 18.6007 7.09851 19.5482C8.42088 20.4069 9.94311 20.9016 11.5118 20.9868C11.6741 20.9956 11.8369 21 12 21C12.22 21 12.4397 20.9919 12.6586 20.9759L12.5122 18.9812C12.342 18.9937 12.1711 19 12 19C11.8643 19 11.7289 18.9961 11.5939 18.9882C10.3831 18.9179 9.20881 18.5339 8.18773 17.8708C7.05283 17.1339 6.15586 16.0838 5.60538 14.8476C5.05491 13.6114 4.87452 12.2422 5.08607 10.9057C5.29761 9.56914 5.89201 8.32256 6.79733 7.31682C7.70264 6.31108 8.88006 5.5893 10.1871 5.23884ZM20.5545 14.7964C20.6773 14.4209 20.7749 14.0387 20.847 13.6524L18.881 13.2852C18.8249 13.5857 18.749 13.8829 18.6535 14.175C18.5581 14.467 18.4437 14.7517 18.3115 15.0273L20.1148 15.8922C20.2848 15.5378 20.4318 15.1718 20.5545 14.7964ZM18.5632 18.1582C18.8335 17.8702 19.0839 17.5654 19.313 17.246L17.6878 16.0802C17.5097 16.3286 17.315 16.5657 17.1047 16.7897C16.8945 17.0138 16.6703 17.2232 16.4338 17.4168L17.7005 18.9645C18.0047 18.7155 18.2929 18.4463 18.5632 18.1582ZM15.3348 20.3594C15.7017 20.213 16.0576 20.043 16.4005 19.8508L15.4226 18.1062C15.1559 18.2557 14.8791 18.3879 14.5938 18.5017C14.3084 18.6156 14.0166 18.7102 13.7203 18.7853L14.2118 20.724C14.5927 20.6274 14.9679 20.5057 15.3348 20.3594ZM13 13H13.006H13.0131H13.0201H13.0271H13.0341H13.041H13.048H13.0549H13.0618H13.0687H13.0756H13.0824H13.0893H13.0961H13.1029H13.1097H13.1165H13.1232H13.13H13.1367H13.1434H13.1501H13.1567H13.1634H13.17H13.1766H13.1832H13.1898H13.1964H13.203H13.2095H13.216H13.2226H13.2291H13.2355H13.242H13.2485H13.2549H13.2613H13.2678H13.2742H13.2805H13.2869H13.2933H13.2996H13.306H13.3123H13.3186H13.3249H13.3312H13.3375H13.3437H13.35H13.3562H13.3624H13.3687H13.3749H13.381H13.3872H13.3934H13.3996H13.4057H13.4119H13.418H13.4241H13.4302H13.4363H13.4424H13.4485H13.4546H13.4606H13.4667H13.4727H13.4787H13.4848H13.4908H13.4968H13.5028H13.5088H13.5148H13.5208H13.5267H13.5327H13.5386H13.5446H13.5505H13.5565H13.5624H13.5683H13.5742H13.5801H13.5861H13.5919H13.5978H13.6037H13.6096H13.6155H13.6213H13.6272H13.6331H13.6389H13.6448H13.6506H13.6565H13.6623H13.6681H13.674H13.6798H13.6856H13.6914H13.6972H13.703H13.7089H13.7147H13.7205H13.7263H13.7321H13.7379H13.7437H13.7494H13.7552H13.761H13.7668H13.7726H13.7784H13.7842H13.7899H13.7957H13.8015H13.8073H13.8131H13.8188H13.8246H13.8304H13.8362H13.8419H13.8477H13.8535H13.8593H13.8651H13.8709H13.8766H13.8824H13.8882H13.894H13.8998H13.9056H13.9114H13.9172H13.923H13.9288H13.9346H13.9404H13.9462H13.952H13.9578H13.9636H13.9695H13.9753H13.9811H13.987H13.9928H13.9986H14.0045H14.0103H14.0162H14.0221H14.0279H14.0338H14.0397H14.0456H14.0515H14.0574H14.0633H14.0692H14.0751H14.081H14.0869H14.0929H14.0988H14.1047H14.1107H14.1167H14.1226H14.1286H14.1346H14.1406H14.1466H14.1526H14.1586H14.1646H14.1706H14.1767H14.1827H14.1888H14.1949H14.2009H14.207H14.2131H14.2192H14.2253H14.2315H14.2376H14.2438H14.2499H14.2561H14.2623H14.2684H14.2746H14.2809H14.2871H14.2933H14.2996H14.3058H14.3121H14.3184H14.3247H14.331H14.3373H14.3436H14.35H14.3563H14.3627H14.3691H14.3755H14.3819H14.3883H14.3948H14.4012H14.4077H14.4142H14.4206H14.4272H14.4337H14.4402H14.4468H14.4533H14.4599H14.4665H14.4731H14.4798H14.4864H14.4931H14.4998H14.5065H14.5132H14.5199H14.5266H14.5334H14.5402H14.547H14.5538H14.5606H14.5675H14.5744H14.5812H14.5881H14.5951H14.602H14.609H14.6159H14.6229H14.63H14.637H14.644H14.6511H14.6582H14.6653H14.6724H14.6796H14.6868H14.694H14.7012H14.7084H14.7157H14.7229H14.7302H14.7376H14.7449H14.7523H14.7596H14.767H14.7745H14.7819H14.7894H14.7969H14.8044H14.8119H14.8195H14.8271H14.8347H14.8423H14.85H14.8576H14.8653H14.8731H14.8808H14.8886H14.8964H14.9042H14.912H14.9199H14.9278H14.9357H14.9437H14.9516H14.9596H14.9677H14.9757H14.9838H14.9919H15C15.5523 13 16 12.5523 16 12C16 11.4477 15.5523 11 15 11H14.9919H14.9838H14.9757H14.9677H14.9596H14.9516H14.9437H14.9357H14.9278H14.9199H14.912H14.9042H14.8964H14.8886H14.8808H14.8731H14.8653H14.8576H14.85H14.8423H14.8347H14.8271H14.8195H14.8119H14.8044H14.7969H14.7894H14.7819H14.7745H14.767H14.7596H14.7523H14.7449H14.7376H14.7302H14.7229H14.7157H14.7084H14.7012H14.694H14.6868H14.6796H14.6724H14.6653H14.6582H14.6511H14.644H14.637H14.63H14.6229H14.6159H14.609H14.602H14.5951H14.5881H14.5812H14.5744H14.5675H14.5606H14.5538H14.547H14.5402H14.5334H14.5266H14.5199H14.5132H14.5065H14.4998H14.4931H14.4864H14.4798H14.4731H14.4665H14.4599H14.4533H14.4468H14.4402H14.4337H14.4272H14.4206H14.4142H14.4077H14.4012H14.3948H14.3883H14.3819H14.3755H14.3691H14.3627H14.3563H14.35H14.3436H14.3373H14.331H14.3247H14.3184H14.3121H14.3058H14.2996H14.2933H14.2871H14.2809H14.2746H14.2684H14.2623H14.2561H14.2499H14.2438H14.2376H14.2315H14.2253H14.2192H14.2131H14.207H14.2009H14.1949H14.1888H14.1827H14.1767H14.1706H14.1646H14.1586H14.1526H14.1466H14.1406H14.1346H14.1286H14.1226H14.1167H14.1107H14.1047H14.0988H14.0929H14.0869H14.081H14.0751H14.0692H14.0633H14.0574H14.0515H14.0456H14.0397H14.0338H14.0279H14.0221H14.0162H14.0103H14.0045H13.9986H13.9928H13.987H13.9811H13.9753H13.9695H13.9636H13.9578H13.952H13.9462H13.9404H13.9346H13.9288H13.923H13.9172H13.9114H13.9056H13.8998H13.894H13.8882H13.8824H13.8766H13.8709H13.8651H13.8593H13.8535H13.8477H13.8419H13.8362H13.8304H13.8246H13.8188H13.8131H13.8073H13.8015H13.7957H13.7899H13.7842H13.7784H13.7726H13.7668H13.761H13.7552H13.7494H13.7437H13.7379H13.7321H13.7263H13.7205H13.7147H13.7089H13.703H13.6972H13.6914H13.6856H13.6798H13.674H13.6681H13.6623H13.6565H13.6506H13.6448H13.6389H13.6331H13.6272H13.6213H13.6155H13.6096H13.6037H13.5978H13.5919H13.5861H13.5801H13.5742H13.5683H13.5624H13.5565H13.5505H13.5446H13.5386H13.5327H13.5267H13.5208H13.5148H13.5088H13.5028H13.4968H13.4908H13.4848H13.4787H13.4727H13.4667H13.4606H13.4546H13.4485H13.4424H13.4363H13.4302H13.4241H13.418H13.4119H13.4057H13.3996H13.3934H13.3872H13.381H13.3749H13.3687H13.3624H13.3562H13.35H13.3437H13.3375H13.3312H13.3249H13.3186H13.3123H13.306H13.2996H13.2933H13.2869H13.2805H13.2742H13.2678H13.2613H13.2549H13.2485H13.242H13.2355H13.2291H13.2226H13.216H13.2095H13.203H13.1964H13.1898H13.1832H13.1766H13.17H13.1634H13.1567H13.1501H13.1434H13.1367H13.13H13.1232H13.1165H13.1097H13.1029H13.0961H13.0893H13.0824H13.0756H13.0687H13.0618H13.0549H13.048H13.041H13.0341H13.0271H13.0201H13.0131H13.006H12.999H12.9919H12.9848H12.9777H12.9705H12.9634H12.9562H12.949H12.9418H12.9345H12.9273H12.92H12.9127H12.9054H12.898H12.8907H12.8833H12.8759H12.8684H12.861H12.8535H12.846H12.8385H12.8309H12.8234H12.8158H12.8081H12.8005H12.7928H12.7852H12.7775H12.7697H12.762H12.7542H12.7464H12.7386H12.7307H12.7228H12.7149H12.707H12.699H12.6911H12.6831H12.675H12.667H12.6589H12.6508H12.6426H12.6345H12.6263H12.6181H12.6098H12.6016H12.5933H12.585H12.5766H12.5682H12.5598H12.5514H12.5429H12.5345H12.5259H12.5174H12.5088H12.5002H12.4916H12.4829H12.4742H12.4655H12.4568H12.448H12.4392H12.4304H12.4215H12.4126H12.4037H12.3947H12.3857H12.3767H12.3677H12.3586H12.3495H12.3403H12.3311H12.3219H12.3127H12.3034H12.2941H12.2848H12.2754H12.266H12.2566H12.2471H12.2376H12.2281H12.2185H12.2089H12.1993H12.1896H12.1799H12.1702H12.1604H12.1506H12.1408H12.1309H12.121H12.1111H12.1011H12.0911H12.081H12.071H12.0608H12.0507H12.0405H12.0303H12.02H12.0097H12H11.9994H11.989H11.9786H11.9682H11.9577H11.9472H11.9366H11.926H11.9154H11.9047H11.894H11.8833H11.8725H11.8617H11.8508H11.8399H11.829H11.818H11.807H11.7959H11.7848H11.7737H11.7625H11.7513H11.7401H11.7288H11.7174H11.706H11.6946H11.6832H11.6717H11.6601H11.6486H11.6369H11.6253H11.6136H11.6018H11.59H11.5782H11.5663H11.5544H11.5425H11.5305H11.5184H11.5064H11.4942H11.4821H11.4698H11.4576H11.4453H11.4329H11.4205H11.4081H11.3956H11.3831H11.3706H11.3579H11.3453H11.3326H11.3198H11.307H11.2942H11.2813H11.2684H11.2554H11.2424H11.2293H11.2162H11.2031H11.1899H11.1766H11.1633H11.15H11.1366H11.1231H11.1096H11.0961H11.0825H11.0689H11.0552H11.0415H11.0277H11.0139H11V12V13V13.8076V16.5C11 17.0523 11.4477 17.5 12 17.5C12.5523 17.5 13 17.0523 13 16.5V13.8076V13Z" fill="currentColor"/>
</svg>
