<svg width="24" height="24" viewBox="0 0 24 24" fill="none" xmlns="http://www.w3.org/2000/svg">
<path fill="currentColor" fill-rule="evenodd" clip-rule="evenodd" d="M10.7803 3.07473C10.8977 3.06029 11 3.15293 11 3.27129V4.86922C11 4.97003 10.9249 5.05481 10.8252 5.06958C9.83035 5.21696 8.86852 5.55076 7.99149 6.05712C7.27191 6.47256 6.62439 6.99552 6.06986 7.60505C5.99701 7.68513 5.87407 7.69588 5.79028 7.62732L4.56387 6.6239C4.47701 6.55283 4.46547 6.42408 4.54021 6.34036C5.24566 5.55017 6.07512 4.87379 7 4.33981C8.166 3.66662 9.45215 3.23794 10.7803 3.07473ZM17.9301 7.60505C18.003 7.68513 18.1259 7.69588 18.2097 7.62732L19.4361 6.6239C19.523 6.55283 19.5345 6.42408 19.4598 6.34036C18.7543 5.55017 17.9249 4.87379 17 4.33981C15.834 3.66662 14.5479 3.23794 13.2197 3.07473C13.1023 3.06029 13 3.15293 13 3.27129V4.86922C13 4.97003 13.0751 5.05481 13.1748 5.06958C14.1696 5.21696 15.1315 5.55076 16.0085 6.05712C16.7281 6.47256 17.3756 6.99552 17.9301 7.60505ZM4.70203 9.32106C4.77432 9.38021 4.79579 9.48141 4.75578 9.56582C4.24809 10.6367 3.98297 11.8095 3.98297 13.0001C3.98297 14.0757 4.19939 15.1369 4.61559 16.1215C4.82879 16.6259 4.67262 17.2305 4.1984 17.5043C3.72418 17.7781 3.11284 17.6172 2.88734 17.1183C2.30404 15.8275 2 14.424 2 13.0001C2 11.3787 2.39423 9.78364 3.14608 8.3516C3.20403 8.24123 3.34855 8.21367 3.44503 8.2926L4.70203 9.32106ZM19.298 9.32106C19.2257 9.38021 19.2042 9.48141 19.2442 9.56582C19.7519 10.6367 20.017 11.8095 20.017 13.0001C20.017 14.0757 19.8006 15.1369 19.3844 16.1215C19.1712 16.6259 19.3274 17.2305 19.8016 17.5043C20.2758 17.7781 20.8872 17.6172 21.1127 17.1183C21.696 15.8275 22 14.424 22 13.0001C22 11.3787 21.6058 9.78364 20.8539 8.3516C20.796 8.24123 20.6514 8.21367 20.555 8.2926L19.298 9.32106ZM6.5838 11.1848L6.58196 11.1868C6.41802 11.0692 6.21709 11.0001 6 11.0001C5.44772 11.0001 5 11.4478 5 12.0001C5 12.234 5.08034 12.4492 5.21493 12.6195L5.20898 12.6258L10.4066 18.209C10.7718 18.6897 11.3497 19.0001 12 19.0001C13.1046 19.0001 14 18.1046 14 17.0001C14 16.3585 13.698 15.7876 13.2283 15.4216L13.2326 15.4167L13.1583 15.3694C13.1022 15.3295 13.044 15.2924 12.9838 15.2584L6.5838 11.1848Z" />
</svg>
