<svg width="24" height="24" viewBox="0 0 24 24" fill="none" xmlns="http://www.w3.org/2000/svg">
<path fill="currentColor" fill-rule="evenodd" clip-rule="evenodd" d="M8.68377 3.05159C9.20772 2.87694 9.77404 3.1601 9.94868 3.68404L10.7714 6.15232C11.1645 6.05302 11.5761 6.00027 12 6.00027C12.4239 6.00027 12.8355 6.05302 13.2286 6.15232L14.0513 3.68404C14.226 3.1601 14.7923 2.87694 15.3162 3.05159C15.8402 3.22624 16.1233 3.79256 15.9487 4.3165L15.0433 7.03277C15.8829 7.67781 16.512 8.58343 16.8095 9.62869L19.6489 8.56394C20.166 8.37002 20.7424 8.63203 20.9363 9.14915C21.1302 9.66627 20.8682 10.2427 20.3511 10.4366L17 11.6933V13.0003H21C21.5523 13.0003 22 13.448 22 14.0003C22 14.5526 21.5523 15.0003 21 15.0003H17C17 15.4312 16.9455 15.8494 16.843 16.2484L20.3511 17.5639C20.8682 17.7579 21.1302 18.3343 20.9363 18.8514C20.7424 19.3685 20.166 19.6305 19.6489 19.4366L15.96 18.0533C15.0456 19.2375 13.6119 20.0003 12 20.0003C10.3881 20.0003 8.95436 19.2375 8.04 18.0533L4.35112 19.4366C3.834 19.6305 3.25759 19.3685 3.06367 18.8514C2.86975 18.3343 3.13176 17.7579 3.64888 17.5639L7.15704 16.2484C7.05452 15.8494 7 15.4312 7 15.0003H3C2.44772 15.0003 2 14.5526 2 14.0003C2 13.448 2.44772 13.0003 3 13.0003H7V11.6933L3.64888 10.4366C3.13176 10.2427 2.86975 9.66627 3.06367 9.14915C3.25759 8.63203 3.834 8.37002 4.35112 8.56394L7.19046 9.6287C7.48798 8.58343 8.11705 7.67781 8.95674 7.03277L8.05132 4.3165C7.87667 3.79256 8.15983 3.22624 8.68377 3.05159ZM15 14.0003V11.0236C14.9997 11.0091 14.9996 10.9947 14.9999 10.9802C14.9892 9.3326 13.6502 8.00027 12 8.00027C10.3498 8.00027 9.01085 9.33259 9.00007 10.9802C9.00036 10.9947 9.00034 11.0091 9 11.0236V14.0003V15.0003C9 16.6571 10.3431 18.0003 12 18.0003C13.6569 18.0003 15 16.6571 15 15.0003V14.0003Z" />
</svg>