<svg width="24" height="24" viewBox="0 0 24 24" fill="none" xmlns="http://www.w3.org/2000/svg">
<path fill-rule="evenodd" clip-rule="evenodd" d="M11 19.9381V22H13V19.9381C16.6187 19.4869 19.4869 16.6187 19.9381 13H22V11H19.9381C19.4869 7.38128 16.6187 4.51314 13 4.06189V2H11V4.06189C7.38128 4.51314 4.51314 7.38128 4.06189 11H2V13H4.06189C4.51314 16.6187 7.38128 19.4869 11 19.9381ZM12 6C8.68629 6 6 8.68629 6 12C6 15.3137 8.68629 18 12 18C15.3137 18 18 15.3137 18 12C18 8.68629 15.3137 6 12 6ZM12 15C13.6569 15 15 13.6569 15 12C15 10.3431 13.6569 9 12 9C10.3431 9 9 10.3431 9 12C9 13.6569 10.3431 15 12 15Z" fill="currentColor"/>
</svg>
