<svg width="24" height="24" viewBox="0 0 24 24" fill="none" xmlns="http://www.w3.org/2000/svg">
<path class="glyph-fill" fill-rule="evenodd" clip-rule="evenodd" d="M9 3C9 3.55228 9.44772 4 10 4H14C14.5523 4 15 3.55228 15 3C15 2.44772 14.5523 2 14 2H10C9.44772 2 9 2.44772 9 3ZM4 7C3.44772 7 3 6.55228 3 6C3 5.44772 3.44772 5 4 5H6H18H20C20.5523 5 21 5.44772 21 6C21 6.55228 20.5523 7 20 7H19V17C19 18.6569 17.6569 20 16 20H8C6.34315 20 5 18.6569 5 17V7H4ZM7 7H17V17C17 17.5523 16.5523 18 16 18H8C7.44772 18 7 17.5523 7 17V7ZM9 10C9 9.44772 9.44772 9 10 9C10.5523 9 11 9.44772 11 10V15C11 15.5523 10.5523 16 10 16C9.44772 16 9 15.5523 9 15V10ZM14 9C13.4477 9 13 9.44772 13 10V15C13 15.5523 13.4477 16 14 16C14.5523 16 15 15.5523 15 15V10C15 9.44772 14.5523 9 14 9Z" fill="currentColor"/>
</svg>
