<svg width="24" height="24" viewBox="0 0 24 24" fill="none" xmlns="http://www.w3.org/2000/svg">
<path fill="currentColor" fill-rule="evenodd" clip-rule="evenodd" d="M12 5C8.13401 5 5 8.13401 5 12C5 15.866 8.13401 19 12 19C15.7853 19 18.8689 15.9954 18.9959 12.241L20.7844 10.0328C20.9255 10.666 21 11.3243 21 12C21 16.9706 16.9706 21 12 21C7.02944 21 3 16.9706 3 12C3 7.02944 7.02944 3 12 3C13.9987 3 15.8453 3.65154 17.3389 4.75382L16.0784 6.31015C14.93 5.48554 13.5217 5 12 5ZM7.76832 9.24883L12.08 14.4246L20.2229 4.37062L21.7771 5.62938L12.868 16.6294C12.6797 16.8619 12.3971 16.9979 12.0978 17C11.7986 17.002 11.5141 16.87 11.3226 16.6401L6.23168 10.5289L7.76832 9.24883Z" />
</svg>
