<svg width="24" height="24" viewBox="0 0 24 24" fill="none" xmlns="http://www.w3.org/2000/svg">
<path fill="currentColor" fill-rule="evenodd" clip-rule="evenodd" d="M12.002 3C11.8089 2.99953 11.6163 3.04755 11.4434 3.14271C11.2721 3.237 11.1233 3.37603 11.0171 3.55101C10.5268 4.35342 9.93691 5.07825 9.30145 5.79713C9.07664 6.05146 8.83669 6.31501 8.59295 6.58273L8.59294 6.58274C8.17611 7.04058 7.74817 7.51062 7.36577 7.96763C6.10596 9.47321 5 11.2156 5 13.6456C5 17.4591 8.27315 20 12 20C15.7269 20 19 17.4591 19 13.6456C19 11.2137 17.8868 9.4725 16.6251 7.96918C16.2503 7.52264 15.8291 7.06011 15.4188 6.60965C15.1671 6.33336 14.9196 6.06162 14.6896 5.80091C14.0557 5.08263 13.4691 4.35823 12.9844 3.55605C12.8791 3.38048 12.731 3.24066 12.56 3.14549C12.3875 3.04942 12.1951 3.00047 12.002 3ZM13.19 7.1243C12.7881 6.66885 12.3818 6.18621 11.9962 5.66538C11.6091 6.18498 11.2021 6.6668 10.7999 7.12172C10.5301 7.42698 10.2722 7.70985 10.0228 7.98345L10.0228 7.98347C9.63216 8.41196 9.26226 8.81771 8.89963 9.25109C7.75903 10.6142 7 11.9063 7 13.6456C7 16.1046 9.10997 18 12 18C14.89 18 17 16.1046 17 13.6456C17 11.9082 16.2375 10.6184 15.0931 9.25491C14.735 8.82814 14.3727 8.43099 13.9905 8.01207C13.7342 7.73111 13.4689 7.44035 13.19 7.1243ZM10.3322 12.5546C10.6385 12.095 10.5143 11.4742 10.0547 11.1679C9.59513 10.8616 8.97427 10.9858 8.66798 11.4454C7.2132 13.6281 8.72319 16.5 11.4995 16.5C12.0518 16.5 12.4995 16.0523 12.4995 15.5C12.4995 14.9477 12.0518 14.5 11.4995 14.5C10.2766 14.5 9.78751 13.3719 10.3322 12.5546Z" />
</svg>
