<svg width="24" height="24" viewBox="0 0 24 24" fill="none" xmlns="http://www.w3.org/2000/svg">
<path fill-rule="evenodd" clip-rule="evenodd" d="M14.7071 1.29297L17.7071 4.29297L18.4142 5.00008L17.7071 5.70718L14.7071 8.70718L13.2929 7.29297L14.5858 6.00008H11C10.2121 6.00008 9.43185 6.15527 8.7039 6.4568C7.97595 6.75833 7.31451 7.20028 6.75736 7.75744C6.20021 8.31459 5.75825 8.97602 5.45672 9.70398C5.15519 10.4319 5 11.2121 5 12.0001C5 12.788 5.1552 13.5682 5.45672 14.2962C5.75825 15.0241 6.20021 15.6856 6.75736 16.2427C7.31451 16.7999 7.97595 17.2418 8.7039 17.5434C9.43186 17.8449 10.2121 18.0001 11 18.0001H17C17.5523 18.0001 18 18.4478 18 19.0001C18 19.5524 17.5523 20.0001 17 20.0001H11C9.94943 20.0001 8.90914 19.7931 7.93853 19.3911C6.96793 18.9891 6.08602 18.3998 5.34315 17.6569C4.60028 16.9141 4.011 16.0321 3.60896 15.0615C3.20693 14.0909 3 13.0507 3 12.0001C3 10.9495 3.20693 9.90921 3.60896 8.93861C4.011 7.968 4.60028 7.08609 5.34315 6.34322C6.08601 5.60035 6.96793 5.01108 7.93853 4.60904C8.90914 4.207 9.94942 4.00008 11 4.00008L14.5858 4.00008L13.2929 2.70718L14.7071 1.29297ZM12 10.0001C12 9.61206 11.7755 9.25907 11.4242 9.09449C11.0728 8.92991 10.6579 8.98345 10.3598 9.23185L7.35982 11.7319L8.64018 13.2683L10 12.1351V16.0001H12V10.0001ZM17 12.5001C17 13.0078 16.8231 13.4164 16.6028 13.6734C16.3862 13.9261 16.1668 14.0001 16 14.0001C15.8332 14.0001 15.6138 13.9261 15.3972 13.6734C15.1769 13.4164 15 13.0078 15 12.5001C15 11.9923 15.1769 11.5837 15.3972 11.3268C15.6138 11.074 15.8332 11.0001 16 11.0001C16.1668 11.0001 16.3862 11.074 16.6028 11.3268C16.8231 11.5837 17 11.9923 17 12.5001ZM19 12.5001C19 14.4331 17.6569 16.0001 16 16.0001C14.3431 16.0001 13 14.4331 13 12.5001C13 10.5671 14.3431 9.00008 16 9.00008C17.6569 9.00008 19 10.5671 19 12.5001Z" fill="#333333"/>
</svg>
