<svg width="25" height="24" viewBox="0 0 25 24" fill="none" xmlns="http://www.w3.org/2000/svg">
<path fill-rule="evenodd" clip-rule="evenodd" d="M8.03809 7.66627C8.03809 7.36328 8.2197 6.2846 8.94726 5.30399C9.63044 4.38322 10.8272 3.5 13.0003 3.5C15.0967 3.5 16.2436 4.48305 16.9185 5.64115C17.6306 6.86313 17.8147 8.30076 17.8147 9.01276C17.8147 10.3141 17.2864 11.3554 16.0984 12.6698C14.569 14.3619 14.569 16.0376 14.569 16.9592V16.9647C14.569 17.3554 14.5216 18.2769 14.1763 19.0655C14.0085 19.4485 13.7897 19.7553 13.5142 19.965C13.2518 20.1647 12.8829 20.3194 12.3233 20.3194C11.073 20.3194 10.5152 19.8876 10.2189 19.4519C9.87479 18.9461 9.75301 18.2397 9.75301 17.5327C9.75301 16.9805 9.30529 16.5327 8.75301 16.5327C8.20072 16.5327 7.75301 16.9805 7.75301 17.5327C7.75301 18.3945 7.88818 19.5815 8.56515 20.5768C9.28988 21.6423 10.5172 22.3194 12.3233 22.3194C13.2919 22.3194 14.0928 22.038 14.7255 21.5564C15.345 21.0849 15.7466 20.4653 16.0083 19.8678C16.5217 18.6954 16.569 17.4396 16.569 16.9647C16.569 16.1541 16.5721 15.1284 17.5821 14.0109C18.9365 12.5124 19.8147 11.0112 19.8147 9.01276C19.8147 8.07487 19.5916 6.25611 18.6465 4.63419C17.6641 2.94838 15.9038 1.5 13.0003 1.5C10.1733 1.5 8.38899 2.69992 7.34108 4.11228C6.33757 5.46481 6.03809 6.96927 6.03809 7.66627L6.03809 7.69781C6.03799 8.49913 6.03786 9.62775 6.58127 10.8943C6.79903 11.4018 7.387 11.6367 7.89454 11.419C8.40209 11.2012 8.637 10.6133 8.41924 10.1057C8.04549 9.2346 8.03809 8.46316 8.03809 7.66627ZM11.3463 8.80888C11.3463 8.23257 11.5328 7.87997 11.7661 7.66482C12.0104 7.43956 12.4132 7.26758 13.0067 7.26758C13.9875 7.26758 14.5818 8.11692 14.5818 8.65495C14.5818 8.93232 14.5128 9.26742 14.402 9.57337C14.348 9.72237 14.2899 9.84823 14.2376 9.94196C14.1988 10.0116 14.173 10.0459 14.1657 10.0556C14.1642 10.0575 14.1635 10.0585 14.1636 10.0585L14.1642 10.058C13.773 10.4433 13.7655 11.0727 14.1487 11.4672C14.5335 11.8633 15.1666 11.8725 15.5628 11.4877C15.8838 11.1758 16.1258 10.6869 16.2824 10.2545C16.4506 9.79018 16.5818 9.22082 16.5818 8.65495C16.5818 7.08492 15.1633 5.26758 13.0067 5.26758C12.0314 5.26758 11.104 5.55482 10.4103 6.1945C9.70561 6.84429 9.34627 7.76234 9.34627 8.80888C9.34627 9.75962 9.50496 10.3023 9.64759 10.7729L9.65417 10.7946C9.7703 11.1776 9.86294 11.4832 9.86294 12.0961C9.86294 12.8567 9.48873 13.1111 9.35768 13.1613C9.13481 13.2466 8.94444 13.2103 8.76939 13.1273C8.67894 13.0844 8.60384 13.0331 8.55264 12.993C8.52783 12.9735 8.51093 12.9585 8.50304 12.9513L8.4998 12.9483C8.11615 12.5604 7.49084 12.5514 7.09618 12.9307C6.69796 13.3134 6.68535 13.9464 7.06803 14.3446L7.78907 13.6517C7.06803 14.3446 7.06834 14.3449 7.06865 14.3453L7.06929 14.3459L7.07064 14.3473L7.0736 14.3504L7.08055 14.3575L7.09852 14.3753C7.1123 14.3889 7.12973 14.4055 7.15067 14.4247C7.19244 14.4631 7.24891 14.5122 7.31902 14.5672C7.45764 14.6758 7.65848 14.814 7.91251 14.9345C8.42641 15.1781 9.19915 15.3636 10.0729 15.029C11.0297 14.6626 11.8629 13.6282 11.8629 12.0961C11.8629 11.187 11.7037 10.6615 11.5654 10.2052L11.5616 10.1929C11.4459 9.81107 11.3463 9.481 11.3463 8.80888Z" fill="currentColor"/>
</svg>
