<svg width="24" height="24" viewBox="0 0 24 24" fill="none" xmlns="http://www.w3.org/2000/svg">
<path fill="currentColor" fill-rule="evenodd" clip-rule="evenodd" d="M7 9C7 8.12149 7.22728 6.57315 8.0355 5.28C8.80414 4.05017 10.1202 3 12.5 3C14.9418 3 16.2605 3.94373 17.0027 4.96806C17.7859 6.04882 18 7.32668 18 8C18 9.35144 17.7207 10.3377 17.3263 11.118C16.9263 11.9093 16.385 12.5357 15.7836 13.1534C15.6517 13.2888 15.5122 13.4268 15.3687 13.5687L15.3686 13.5688C14.2963 14.6292 13 15.9112 13 18C13 19.0503 12.6874 19.7948 12.2601 20.2648C11.8379 20.7292 11.2387 21 10.5 21C8.93536 21 8 19.9064 8 19C8 18.4477 7.55228 18 7 18C6.44772 18 6 18.4477 6 19C6 21.2311 8.06464 23 10.5 23C11.7613 23 12.9121 22.5208 13.7399 21.6102C14.5626 20.7052 15 19.4497 15 18C15 16.7919 15.6556 16.1291 16.7688 15.0038L16.7688 15.0037C16.9107 14.8603 17.0601 14.7093 17.2164 14.5487C17.865 13.8827 18.5737 13.0836 19.1112 12.0203C19.6543 10.946 20 9.64856 20 8C20 7.02342 19.7141 5.30128 18.6223 3.79452C17.4895 2.23132 15.5582 1 12.5 1C9.37981 1 7.44586 2.44983 6.3395 4.22C5.27272 5.92685 5 7.87851 5 9C5 9.55228 5.44772 10 6 10C6.55228 10 7 9.55228 7 9ZM11 8.80888C11 7.64512 11.6934 7 12.5744 7C13.6626 7 14 7.60967 14 8C14 8.55228 14.4477 9 15 9C15.5523 9 16 8.55228 16 8C16 6.28225 14.5303 5 12.5744 5C10.4112 5 9 6.72694 9 8.80888V8.81837V8.82783V8.83724V8.84663V8.85597V8.86528V8.87456V8.8838V8.893V8.90217V8.9113V8.9204V8.92946V8.93849V8.94748V8.95644V8.96537V8.97426V8.98312V8.99194V9.00073V9.00948V9.0182V9.02689V9.03555V9.04417V9.05276V9.06132V9.06984V9.07833V9.08679V9.09522V9.10361V9.11198V9.12031V9.12861V9.13688V9.14511V9.15332V9.16149V9.16964V9.17775V9.18583V9.19388V9.2019V9.20989V9.21785V9.22578V9.23368V9.24155V9.2494V9.25721V9.26499V9.27274V9.28047V9.28816V9.29583V9.30347V9.31108V9.31866V9.32621V9.33374V9.34123V9.3487V9.35614V9.36356V9.37094V9.3783V9.38564V9.39294V9.40022V9.40747V9.4147V9.4219V9.42907V9.43622V9.44334V9.45043V9.4575V9.46455V9.47157V9.47856V9.48553V9.49247V9.49939V9.50628V9.51315V9.51999V9.52681V9.53361V9.54038V9.54713V9.55385V9.56056V9.56723V9.57389V9.58052V9.58713V9.59371V9.60027V9.60681V9.61333V9.61982V9.6263V9.63275V9.63917V9.64558V9.65197V9.65833V9.66467V9.67099V9.67729V9.68357V9.68983V9.69607V9.70228V9.70848V9.71465V9.72081V9.72695V9.73306V9.73916V9.74524V9.75129V9.75733V9.76335V9.76935V9.77533V9.78129V9.78724V9.79316V9.79907V9.80496V9.81083V9.81668V9.82252V9.82834V9.83414V9.83992V9.84568V9.85143V9.85716V9.86288V9.86858V9.87426V9.87992V9.88557V9.8912V9.89682V9.90242V9.90801V9.91358V9.91913V9.92467V9.9302V9.93571V9.9412V9.94668V9.95214V9.95759V9.96303V9.96845V9.97386V9.97926V9.98464V9.99V9.99536V10.0007V10.006V10.0113V10.0166V10.0219V10.0272V10.0325V10.0377V10.043V10.0482V10.0534V10.0586V10.0638V10.069V10.0741V10.0793V10.0844V10.0896V10.0947V10.0998V10.1049V10.11V10.1151V10.1202V10.1252V10.1303V10.1353V10.1404V10.1454V10.1504V10.1554V10.1604V10.1654V10.1704V10.1753V10.1803V10.1853V10.1902V10.1951V10.2001V10.205V10.2099V10.2148V10.2197V10.2246V10.2295V10.2344V10.2392V10.2441V10.249V10.2538V10.2587V10.2635V10.2683V10.2732V10.278V10.2828V10.2876V10.2924V10.2972V10.302V10.3068V10.3116V10.3164V10.3212V10.3259V10.3307V10.3355V10.3402V10.345V10.3497V10.3545V10.3592V10.364V10.3687V10.3735V10.3782V10.3829V10.3877V10.3924V10.3971V10.4018V10.4066V10.4113V10.416V10.4207V10.4254V10.4302V10.4349V10.4396V10.4443V10.449V10.4537V10.4584V10.4631V10.4678V10.4726V10.4773V10.482V10.4867V10.4914V10.4961V10.5008V10.5055V10.5103V10.515V10.5197V10.5244V10.5291V10.5339V10.5386V10.5433V10.548V10.5528V10.5575V10.5622V10.567V10.5717V10.5765V10.5812V10.586V10.5907V10.5955V10.6003V10.605V10.6098V10.6146V10.6194V10.6241V10.6289V10.6337V10.6385V10.6433V10.6481V10.653V10.6578V10.6626V10.6674V10.6723V10.6771V10.682V10.6868V10.6917V10.6966V10.7014V10.7063V10.7112V10.7161V10.721V10.7259V10.7308V10.7358V10.7407V10.7456V10.7506V10.7556V10.7605V10.7655V10.7705V10.7755V10.7805V10.7855V10.7905V10.7955V10.8006V10.8056V10.8107V10.8158V10.8208V10.8259V10.831V10.8361V10.8413V10.8464V10.8515V10.8567V10.8618V10.867V10.8722V10.8774V10.8826V10.8878V10.8931V10.8983V10.9036V10.9089V10.9141V10.9194V10.9247V10.9301V10.9354V10.9408V10.9461V10.9515V10.9569V10.9623V10.9677V10.9731V10.9786V10.984V10.9895V10.995V11.0005V11.006V11.0116V11.0171V11.0227V11.0283V11.0338V11.0395V11.0451V11.0507V11.0564V11.0621V11.0678V11.0735V11.0792V11.0849V11.0907V11.0965V11.1023V11.1081V11.1139V11.1198V11.1256V11.1315V11.1374V11.1433V11.1493V11.1552V11.1612V11.1672V11.1732V11.1792V11.1853V11.1913V11.1974V11.2035V11.2097V11.2158V11.222V11.2282V11.2344V11.2406V11.2469V11.2531V11.2594V11.2657V11.2721V11.2784V11.2848V11.2912V11.2976V11.3041V11.3105V11.317V11.3235V11.3301V11.3366V11.3432V11.3498V11.3564V11.3631V11.3697V11.3764V11.3831V11.3899V11.3966V11.4034V11.4102V11.4171V11.4239V11.4308V11.4377V11.4447V11.4516V11.4586V11.4656V11.4727V11.4797V11.4868V11.4939V11.5011V11.5082V11.5154V11.5226V11.5299V11.5371V11.5444V11.5518V11.5591V11.5665V11.5739V11.5813V11.5888V11.5963V11.6038V11.6113V11.6189V11.6265V11.6341V11.6418V11.6495V11.6572V11.6649V11.6727V11.6805V11.6883V11.6962V11.7041V11.712V11.7199V11.7279V11.7359V11.744V11.752V11.7601V11.7683V11.7764V11.7846V11.7929V11.8011V11.8094V11.8177V11.8261V11.8345V11.8429V11.8513V11.8598V11.8683V11.8769V11.8854V11.8941V11.9027V11.9114V11.9201V11.9288V11.9376V11.9464V11.9553V11.9641V11.9731V11.982V11.991V12C9 12.5503 9.44448 12.9968 9.99401 13L9.995 13C9.9984 13.0001 10.0066 13.0003 10.019 13.0009C10.0439 13.002 10.0849 13.0046 10.1375 13.0101C10.2451 13.0215 10.3887 13.0439 10.5378 13.0865C10.8696 13.1813 11.0409 13.3179 11.1056 13.4472C11.3526 13.9412 11.9532 14.1414 12.4472 13.8944C12.9412 13.6474 13.1414 13.0468 12.8944 12.5528C12.4591 11.6821 11.6304 11.3187 11.0872 11.1635C11.0579 11.1551 11.0288 11.1471 11 11.1396V11.1374V11.1315V11.1256V11.1198V11.1139V11.1081V11.1023V11.0965V11.0907V11.0849V11.0792V11.0735V11.0678V11.0621V11.0564V11.0507V11.0451V11.0395V11.0338V11.0283V11.0227V11.0171V11.0116V11.006V11.0005V10.995V10.9895V10.984V10.9786V10.9731V10.9677V10.9623V10.9569V10.9515V10.9461V10.9408V10.9354V10.9301V10.9247V10.9194V10.9141V10.9089V10.9036V10.8983V10.8931V10.8878V10.8826V10.8774V10.8722V10.867V10.8618V10.8567V10.8515V10.8464V10.8413V10.8361V10.831V10.8259V10.8208V10.8158V10.8107V10.8056V10.8006V10.7955V10.7905V10.7855V10.7805V10.7755V10.7705V10.7655V10.7605V10.7556V10.7506V10.7456V10.7407V10.7358V10.7308V10.7259V10.721V10.7161V10.7112V10.7063V10.7014V10.6966V10.6917V10.6868V10.682V10.6771V10.6723V10.6674V10.6626V10.6578V10.653V10.6481V10.6433V10.6385V10.6337V10.6289V10.6241V10.6194V10.6146V10.6098V10.605V10.6003V10.5955V10.5907V10.586V10.5812V10.5765V10.5717V10.567V10.5622V10.5575V10.5528V10.548V10.5433V10.5386V10.5339V10.5291V10.5244V10.5197V10.515V10.5103V10.5055V10.5008V10.4961V10.4914V10.4867V10.482V10.4773V10.4726V10.4678V10.4631V10.4584V10.4537V10.449V10.4443V10.4396V10.4349V10.4302V10.4254V10.4207V10.416V10.4113V10.4066V10.4018V10.3971V10.3924V10.3877V10.3829V10.3782V10.3735V10.3687V10.364V10.3592V10.3545V10.3497V10.345V10.3402V10.3355V10.3307V10.3259V10.3212V10.3164V10.3116V10.3068V10.302V10.2972V10.2924V10.2876V10.2828V10.278V10.2732V10.2683V10.2635V10.2587V10.2538V10.249V10.2441V10.2392V10.2344V10.2295V10.2246V10.2197V10.2148V10.2099V10.205V10.2001V10.1951V10.1902V10.1853V10.1803V10.1753V10.1704V10.1654V10.1604V10.1554V10.1504V10.1454V10.1404V10.1353V10.1303V10.1252V10.1202V10.1151V10.11V10.1049V10.0998V10.0947V10.0896V10.0844V10.0793V10.0741V10.069V10.0638V10.0586V10.0534V10.0482V10.043V10.0377V10.0325V10.0272V10.0219V10.0166V10.0113V10.006V10.0007V9.99536V9.99V9.98464V9.97926V9.97386V9.96845V9.96303V9.95759V9.95214V9.94668V9.9412V9.93571V9.9302V9.92467V9.91913V9.91358V9.90801V9.90242V9.89682V9.8912V9.88557V9.87992V9.87426V9.86858V9.86288V9.85716V9.85143V9.84568V9.83992V9.83414V9.82834V9.82252V9.81668V9.81083V9.80496V9.79907V9.79316V9.78724V9.78129V9.77533V9.76935V9.76335V9.75733V9.75129V9.74524V9.73916V9.73306V9.72695V9.72081V9.71465V9.70848V9.70228V9.69607V9.68983V9.68357V9.67729V9.67099V9.66467V9.65833V9.65197V9.64558V9.63917V9.63275V9.6263V9.61982V9.61333V9.60681V9.60027V9.59371V9.58713V9.58052V9.57389V9.56723V9.56056V9.55385V9.54713V9.54038V9.53361V9.52681V9.51999V9.51315V9.50628V9.49939V9.49247V9.48553V9.47856V9.47157V9.46455V9.4575V9.45043V9.44334V9.43622V9.42907V9.4219V9.4147V9.40747V9.40022V9.39294V9.38564V9.3783V9.37094V9.36356V9.35614V9.3487V9.34123V9.33374V9.32621V9.31866V9.31108V9.30347V9.29583V9.28816V9.28047V9.27274V9.26499V9.25721V9.2494V9.24155V9.23368V9.22578V9.21785V9.20989V9.2019V9.19388V9.18583V9.17775V9.16964V9.16149V9.15332V9.14511V9.13688V9.12861V9.12031V9.11198V9.10361V9.09522V9.08679V9.07833V9.06984V9.06132V9.05276V9.04417V9.03555V9.02689V9.0182V9.00948V9.00073V8.99194V8.98312V8.97426V8.96537V8.95644V8.94748V8.93849V8.92946V8.9204V8.9113V8.90217V8.893V8.8838V8.87456V8.86528V8.85597V8.84663V8.83724V8.82783V8.81837V8.80888ZM10 12C10 12.9879 9.99969 12.9999 9.99938 13L10 13V12Z" />
</svg>
