<svg width="24" height="24" viewBox="0 0 24 24" fill="none" xmlns="http://www.w3.org/2000/svg">
<path fill="currentColor" fill-rule="evenodd" clip-rule="evenodd" d="M9 4C6.79086 4 5 5.79086 5 8V9C5 11.2091 6.79086 13 9 13C11.2091 13 13 11.2091 13 9V8C13 5.79086 11.2091 4 9 4ZM7 8C7 6.89543 7.89543 6 9 6C10.1046 6 11 6.89543 11 8V9C11 10.1046 10.1046 11 9 11C7.89543 11 7 10.1046 7 9V8ZM20 8H18V11H15V13H18V16H20V13H23V11H20V8ZM4.35842 18H9H13.6416C13.4271 17.6894 13.1103 17.3704 12.6748 17.07C11.7639 16.4417 10.4638 16 9 16C7.53616 16 6.2361 16.4417 5.32517 17.07C4.88972 17.3704 4.57288 17.6894 4.35842 18ZM4.18955 15.4237C5.45019 14.5541 7.15014 14 9 14C10.8499 14 12.5498 14.5541 13.8104 15.4237C15.0446 16.275 16 17.5422 16 19V20H15H9H3H2V19C2 17.5422 2.95544 16.275 4.18955 15.4237Z" />
</svg>
