<svg width="24" height="24" viewBox="0 0 24 24" fill="none" xmlns="http://www.w3.org/2000/svg">
<path fill-rule="evenodd" clip-rule="evenodd" d="M6 3C6 2.44772 5.55228 2 5 2C4.44772 2 4 2.44772 4 3V21C4 21.5523 4.44772 22 5 22C5.55228 22 6 21.5523 6 21V3ZM14 5C14 6.10457 13.1046 7 12 7C10.8954 7 10 6.10457 10 5C10 3.89543 10.8954 3 12 3C13.1046 3 14 3.89543 14 5ZM12.3753 8.21916C12.5526 8.07729 12.7729 8 13 8H16.0003C16.2655 8 16.5198 8.10536 16.7074 8.29289L19.2074 10.7929C19.5979 11.1834 19.5979 11.8166 19.2074 12.2071C18.8168 12.5976 18.1837 12.5976 17.7932 12.2071L15.5861 10H14.4431L15.4366 12.6488C15.5628 12.9855 15.4987 13.364 15.2685 13.6402L12.9149 16.4645L11.9704 20.2425C11.8365 20.7783 11.2935 21.1041 10.7577 20.9701C10.2219 20.8362 9.89617 20.2933 10.0301 19.7575L11.0301 15.7575C11.0666 15.6114 11.1357 15.4755 11.232 15.3598L13.3597 12.8066L12.548 10.6423L11.125 11.7808C11.0483 11.8422 10.9629 11.892 10.8717 11.9285L8.37166 12.9285C7.85887 13.1336 7.2769 12.8842 7.07179 12.3714C6.86668 11.8586 7.11609 11.2766 7.62888 11.0715L9.99126 10.1266L12.3753 8.21916ZM15.5146 14.6258C15.9974 14.3576 16.6062 14.5316 16.8744 15.0144L19.3744 19.5144C19.6426 19.9971 19.4687 20.6059 18.9859 20.8742C18.5031 21.1424 17.8943 20.9684 17.6261 20.4856L15.1261 15.9856C14.8579 15.5029 15.0318 14.8941 15.5146 14.6258Z" fill="currentColor"/>
</svg>
