<svg width="24" height="24" viewBox="0 0 24 24" fill="none" xmlns="http://www.w3.org/2000/svg">
<path fill="currentColor" fill-rule="evenodd" clip-rule="evenodd" d="M19.25 5.56718C19.5833 5.75963 19.5833 6.24075 19.25 6.4332L14.75 9.03128C14.4167 9.22373 14 8.98317 14 8.59827V7.00019H6V14.0002C6 14.5525 5.55228 15.0002 5 15.0002C4.44772 15.0002 4 14.5525 4 14.0002V7.00019C4 5.89562 4.89543 5.00019 6 5.00019H14V3.40211C14 3.01721 14.4167 2.77665 14.75 2.9691L19.25 5.56718ZM18 19.0002C19.1046 19.0002 20 18.1048 20 17.0002V10.0002C20 9.44791 19.5523 9.00019 19 9.00019C18.4477 9.00019 18 9.44791 18 10.0002L18 17.0002L10 17.0002V15.4019C10 15.017 9.58333 14.7765 9.25 14.9689L4.75 17.567C4.41667 17.7594 4.41667 18.2406 4.75 18.433L9.25 21.0311C9.58333 21.2235 10 20.983 10 20.5981V19.0002L18 19.0002Z" />
</svg>
