<svg width="24" height="24" viewBox="0 0 24 24" fill="none" xmlns="http://www.w3.org/2000/svg">
<path class="glyph-fill" fill-rule="evenodd" clip-rule="evenodd" d="M7.8284 9.24268L10.5858 12.0001L7.8284 14.7575C7.30488 13.967 7 13.0192 7 12.0001C7 10.981 7.30488 10.0331 7.8284 9.24268ZM6.39362 7.8079C5.51841 8.97648 5 10.4277 5 12.0001C5 13.5724 5.51841 15.0237 6.39362 16.1923L3.29291 19.293L4.70712 20.7072L7.80784 17.6065C8.97642 18.4817 10.4277 19.0001 12 19.0001C13.5723 19.0001 15.0236 18.4817 16.1922 17.6065L19.2929 20.7072L20.7071 19.293L17.6064 16.1922C18.4816 15.0237 19 13.5724 19 12.0001C19 10.4277 18.4816 8.97649 17.6064 7.80791L20.7071 4.70718L19.2929 3.29297L16.1922 6.3937C15.0236 5.51848 13.5723 5.00008 12 5.00008C10.4277 5.00008 8.97642 5.51848 7.80784 6.39369L4.70712 3.29297L3.29291 4.70718L6.39362 7.8079ZM9.24262 7.82847L12 10.5859L14.7574 7.82848C13.967 7.30496 13.0191 7.00008 12 7.00008C10.9809 7.00008 10.0331 7.30495 9.24262 7.82847ZM16.1716 9.24269L13.4142 12.0001L16.1716 14.7575C16.6951 13.967 17 13.0192 17 12.0001C17 10.981 16.6951 10.0331 16.1716 9.24269ZM14.7574 16.1717L12 13.4143L9.24262 16.1717C10.0331 16.6952 10.9809 17.0001 12 17.0001C13.0191 17.0001 13.967 16.6952 14.7574 16.1717Z" fill="currentColor"/>
</svg>
