<svg width="24" height="24" viewBox="0 0 24 24" fill="none" xmlns="http://www.w3.org/2000/svg">
<path fill="currentColor" fill-rule="evenodd" clip-rule="evenodd" d="M5 4C3.89543 4 3 4.89543 3 6V16C3 17.1046 3.89543 18 5 18H5.71429C6.26657 18 6.71429 17.5523 6.71429 17C6.71429 16.4477 6.26657 16 5.71429 16H5V6H19V16H18.2857C17.7334 16 17.2857 16.4477 17.2857 17C17.2857 17.5523 17.7334 18 18.2857 18H19C20.1046 18 21 17.1046 21 16V6C21 4.89543 20.1046 4 19 4H5ZM12.8575 12.4292C12.4691 11.7818 11.5309 11.7818 11.1425 12.4292L6.9087 19.4855C6.50878 20.152 6.9889 21 7.76619 21H16.2338C17.0111 21 17.4912 20.152 17.0913 19.4855L12.8575 12.4292Z" />
</svg>