<svg width="32" height="32" viewBox="0 0 32 32" fill="none" xmlns="http://www.w3.org/2000/svg">
<g clip-path="url(#clip0)">
<mask id="mask0" mask-type="alpha" maskUnits="userSpaceOnUse" x="0" y="0" width="32" height="32">
<rect width="32" height="32" rx="6" fill="#FF0000"/>
</mask>
<g mask="url(#mask0)">
<rect width="32" height="32" rx="6" fill="#6DCBC2"/>
<g style="mix-blend-mode:multiply" opacity="0.6">
<path d="M-0.666504 17.5864C-0.666504 17.5864 5.16016 11.5865 9.2135 12.0227C13.2668 12.4589 11.7468 19.0022 14.2802 19.8744C16.8135 20.7467 18.3335 16.7884 18.3335 16.7884" stroke="#00786D" stroke-width="1.45455" stroke-linecap="round"/>
</g>
<g filter="url(#filter0_d)">
<path fill-rule="evenodd" clip-rule="evenodd" d="M18.6127 16.1688C18.2459 16.0186 17.8654 16.3525 17.9668 16.7357L19.3868 22.105C19.4049 22.1734 19.4379 22.237 19.4835 22.2912L26.7135 30.8878C27.7785 32.1541 29.6765 32.2973 30.9194 31.205C32.1247 30.1457 32.2626 28.3174 31.2298 27.0894L23.9241 18.4028C23.8741 18.3434 23.8105 18.297 23.7386 18.2676L18.6127 16.1688Z" fill="white"/>
<path fill-rule="evenodd" clip-rule="evenodd" d="M18.6127 16.1688C18.2459 16.0186 17.8654 16.3525 17.9668 16.7357L19.3868 22.105C19.4049 22.1734 19.4379 22.237 19.4835 22.2912L26.7135 30.8878C27.7785 32.1541 29.6765 32.2973 30.9194 31.205C32.1247 30.1457 32.2626 28.3174 31.2298 27.0894L23.9241 18.4028C23.8741 18.3434 23.8105 18.297 23.7386 18.2676L18.6127 16.1688Z" fill="url(#paint0_linear)"/>
</g>
</g>
<path fill-rule="evenodd" clip-rule="evenodd" d="M18.6127 16.1688C18.2459 16.0186 17.8654 16.3525 17.9668 16.7357L19.3868 22.105C19.4049 22.1734 19.4379 22.237 19.4835 22.2912L26.7135 30.8878C27.7785 32.1541 29.6765 32.2973 30.9194 31.205C32.1247 30.1457 32.2626 28.3174 31.2298 27.0894L23.9241 18.4028C23.8741 18.3434 23.8105 18.297 23.7386 18.2676L18.6127 16.1688Z" fill="white"/>
<path fill-rule="evenodd" clip-rule="evenodd" d="M18.6127 16.1688C18.2459 16.0186 17.8654 16.3525 17.9668 16.7357L19.3868 22.105C19.4049 22.1734 19.4379 22.237 19.4835 22.2912L26.7135 30.8878C27.7785 32.1541 29.6765 32.2973 30.9194 31.205C32.1247 30.1457 32.2626 28.3174 31.2298 27.0894L23.9241 18.4028C23.8741 18.3434 23.8105 18.297 23.7386 18.2676L18.6127 16.1688Z" fill="url(#paint1_linear)"/>
</g>
<defs>
<filter id="filter0_d" x="10.2701" y="10.3718" width="29.3323" height="31.1674" filterUnits="userSpaceOnUse" color-interpolation-filters="sRGB">
<feFlood flood-opacity="0" result="BackgroundImageFix"/>
<feColorMatrix in="SourceAlpha" type="matrix" values="0 0 0 0 0 0 0 0 0 0 0 0 0 0 0 0 0 0 127 0"/>
<feOffset dy="1.92002"/>
<feGaussianBlur stdDeviation="3.84004"/>
<feColorMatrix type="matrix" values="0 0 0 0 0.202448 0 0 0 0 0.372552 0 0 0 0 0.355752 0 0 0 0.3 0"/>
<feBlend mode="normal" in2="BackgroundImageFix" result="effect1_dropShadow"/>
<feBlend mode="normal" in="SourceGraphic" in2="effect1_dropShadow" result="shape"/>
</filter>
<linearGradient id="paint0_linear" x1="25.4683" y1="28.7789" x2="27.9124" y2="25.2846" gradientUnits="userSpaceOnUse">
<stop stop-color="#E5FDF4"/>
<stop offset="1" stop-color="#E5FDF4" stop-opacity="0"/>
</linearGradient>
<linearGradient id="paint1_linear" x1="25.733" y1="28.9672" x2="27.9124" y2="25.2846" gradientUnits="userSpaceOnUse">
<stop stop-color="#CFFFED"/>
<stop offset="1" stop-color="#E5FDF4" stop-opacity="0"/>
</linearGradient>
<clipPath id="clip0">
<rect width="32" height="32" fill="white"/>
</clipPath>
</defs>
</svg>
