<svg width="32" height="32" viewBox="0 0 32 32" fill="none" xmlns="http://www.w3.org/2000/svg">
<path fill-rule="evenodd" clip-rule="evenodd" d="M8.70711 14.0401L15 7.74722L15 21.333L17 21.333L17 7.74722L23.2929 14.0401L24.7071 12.6259L16.7071 4.6259C16.3166 4.23538 15.6834 4.23538 15.2929 4.6259L7.29289 12.6259L8.70711 14.0401ZM7.3335 17.333H10.6665V19.333H7.3335V24.6663L24.6668 24.6663L24.6668 19.333H21.3332V17.333H24.6668C25.7714 17.333 26.6668 18.2284 26.6668 19.333V24.6663C26.6668 25.7709 25.7714 26.6663 24.6668 26.6663H7.3335C6.22893 26.6663 5.3335 25.7709 5.3335 24.6663V19.333C5.3335 18.2284 6.22893 17.333 7.3335 17.333Z" fill="currentColor"/>
</svg>
