<svg width="24" height="24" viewBox="0 0 24 24" fill="none" xmlns="http://www.w3.org/2000/svg">
<path fill="currentColor" fill-rule="evenodd" clip-rule="evenodd" d="M4 6C4 4.89543 4.89543 4 6 4H18C19.1046 4 20 4.89543 20 6V18C20 19.1046 19.1046 20 18 20H6C4.89543 20 4 19.1046 4 18V6ZM18 6L6 6V11.1972L7.16795 9.4453C7.35342 9.1671 7.66565 9 8 9C8.33435 9 8.64658 9.1671 8.83205 9.4453L12.1667 14.4472L14.1679 11.4453C14.3534 11.1671 14.6656 11 15 11C15.3344 11 15.6466 11.1671 15.8321 11.4453L18 14.6972V6ZM17.7981 18L15 13.8028L13.3685 16.25L14.5352 18H17.7981ZM6 18V14.8028L8 11.8028L12.1315 18H6Z" />
</svg>
