<svg width="24" height="24" viewBox="0 0 24 24" fill="none" xmlns="http://www.w3.org/2000/svg">
<path fill="currentColor" fill-rule="evenodd" clip-rule="evenodd" d="M4 7C4 5.89543 4.89543 5 6 5H9C10.1046 5 11 5.89543 11 7V17C11 18.1046 10.1046 19 9 19H6C4.89543 19 4 18.1046 4 17V7ZM9 7L6 7V17H9V7ZM13 13C13 11.8954 13.8954 11 15 11H18C19.1046 11 20 11.8954 20 13V17C20 18.1046 19.1046 19 18 19H15C13.8954 19 13 18.1046 13 17V13ZM18 13H15V17H18V13ZM15 5C13.8954 5 13 5.89543 13 7V8C13 9.10457 13.8954 10 15 10H18C19.1046 10 20 9.10457 20 8V7C20 5.89543 19.1046 5 18 5H15ZM15 7H18V8H15V7Z" />
</svg>
