<svg width="230" height="71" viewBox="0 0 230 71" fill="none" xmlns="http://www.w3.org/2000/svg">
<path d="M215.484 32.8839H209.233C207.085 32.8839 206.274 32.1204 206.274 31.1183C206.274 30.1162 207.181 29.0187 211.141 29.0187H211.332C214.058 29.0187 215.433 29.7698 215.979 30.7713C216.219 31.2097 216.619 31.5955 217.119 31.5955H225.793C226.345 31.5955 226.797 31.1479 226.744 30.5981C226.393 26.9064 223.9 20 211.619 20H211.141C199.355 20 195.585 25.8216 195.585 31.6432C195.585 37.5602 199.785 41.3777 208.088 41.3777H213.527C215.961 41.3777 216.772 42.1889 216.772 43.1432C216.772 44.4316 215.198 45.1951 211.428 45.1951H211.285C208.473 45.1951 206.614 44.5706 205.9 43.4033C205.645 42.9879 205.25 42.6183 204.763 42.6183H196.061C195.508 42.6183 195.056 43.0653 195.097 43.6161C195.429 48.1246 198.205 54.5478 210.617 54.5478H211.428C222.642 54.5478 227.509 49.8237 227.509 42.9523C227.509 37.0353 223.405 32.8839 215.484 32.8839Z" fill="#303030"/>
<path d="M190.008 29.639C190.56 29.639 191.008 29.1913 191.008 28.639V21.5726C191.008 21.0203 190.56 20.5726 190.008 20.5726H164.809C164.256 20.5726 163.809 21.0203 163.809 21.5726V52.9752C163.809 53.5275 164.256 53.9752 164.809 53.9752H190.008C190.56 53.9752 191.008 53.5275 191.008 52.9752V45.8611C191.008 45.3088 190.56 44.8611 190.008 44.8611H175.307C174.754 44.8611 174.307 44.4134 174.307 43.8611V42.664C174.307 42.1117 174.754 41.664 175.307 41.664H186.763C187.315 41.664 187.763 41.2163 187.763 40.664V33.9793C187.763 33.427 187.315 32.9793 186.763 32.9793H175.307C174.754 32.9793 174.307 32.5316 174.307 31.9793V30.639C174.307 30.0868 174.754 29.639 175.307 29.639H190.008Z" fill="#303030"/>
<path d="M144.318 44.7656C143.766 44.7656 143.318 44.3179 143.318 43.7656V21.5726C143.318 21.0203 142.871 20.5726 142.318 20.5726H133.82C133.268 20.5726 132.82 21.0203 132.82 21.5726V52.9752C132.82 53.5275 133.268 53.9752 133.82 53.9752H158.017C158.57 53.9752 159.017 53.5275 159.017 52.9752V45.7656C159.017 45.2134 158.57 44.7656 158.017 44.7656H144.318Z" fill="#303030"/>
<path d="M79.2387 20.5726C78.6864 20.5726 78.2387 21.0203 78.2387 21.5726V34.7189C78.2387 35.6783 77.0186 36.0871 76.4405 35.3214L65.6072 20.9701C65.4182 20.7198 65.1227 20.5726 64.809 20.5726H56C55.4477 20.5726 55 21.0203 55 21.5726V52.9752C55 53.5275 55.4477 53.9752 56 53.9752H64.3071C64.8594 53.9752 65.3071 53.5275 65.3071 52.9752V39.4593C65.3071 38.4939 66.5398 38.089 67.1123 38.8664L77.9389 53.5682C78.1274 53.8241 78.4263 53.9752 78.7441 53.9752H87.5457C88.098 53.9752 88.5457 53.5275 88.5457 52.9752V21.5726C88.5457 21.0203 88.098 20.5726 87.5457 20.5726H79.2387Z" fill="#303030"/>
<path d="M110.673 54.5478H110.816C121.505 54.5478 128.997 46.8652 128.997 37.2739V36.2194C128.997 35.6682 128.551 35.2209 128 35.2194L111.819 35.1769C111.266 35.1755 110.816 35.6236 110.816 36.1769V41.8092C110.816 42.3615 111.264 42.8092 111.816 42.8092H114.706C115.478 42.8092 115.856 43.5907 115.207 44.0089C114.165 44.6808 112.629 45.1951 110.816 45.1951H110.673C106.045 45.1951 103.038 41.9025 103.038 37.3693C103.038 32.9316 106.045 29.7822 110.673 29.7822H110.816C113.302 29.7822 115.23 30.8185 116.418 32.1625C116.626 32.3984 116.919 32.5498 117.234 32.5498H127.281C127.933 32.5498 128.412 31.9336 128.203 31.3153C125.859 24.3496 119.297 20 110.816 20H110.673C99.9845 20 92.3496 26.9668 92.3496 37.2739C92.3496 47.6287 100.223 54.5478 110.673 54.5478Z" fill="#303030"/>
<path d="M4.99996 47.1556L20.1805 35.4791M44.4212 66.6293L44.4695 47.4776M20.1805 35.4791L44.5471 16.7368L44.4695 47.4776M20.1805 35.4791C20.1805 35.4791 23.8925 40.537 31.1268 44.2671C38.3611 47.9973 44.4695 47.4776 44.4695 47.4776" stroke="#A3B2FF" stroke-width="10" stroke-linejoin="round"/>
<path d="M4.99996 47.1556L20.1805 35.4791L44.5471 16.7368L44.4695 47.4776L44.4212 66.6293" stroke="#303030" stroke-width="10" stroke-linejoin="round"/>
</svg>
