<svg width="30" height="30" viewBox="0 0 30 30" fill="none" xmlns="http://www.w3.org/2000/svg">
<path fill-rule="evenodd" clip-rule="evenodd" d="M17.5 2C17.5 0.895431 16.6046 0 15.5 0H14.5C13.3954 0 12.5 0.895431 12.5 2V10.5C12.5 11.6046 11.6046 12.5 10.5 12.5H2C0.895431 12.5 0 13.3954 0 14.5V15.5C0 16.6046 0.895431 17.5 2 17.5H10.5C11.6046 17.5 12.5 18.3954 12.5 19.5V28C12.5 29.1046 13.3954 30 14.5 30H15.5C16.6046 30 17.5 29.1046 17.5 28V19.5C17.5 18.3954 18.3954 17.5 19.5 17.5H28C29.1046 17.5 30 16.6046 30 15.5V14.5C30 13.3954 29.1046 12.5 28 12.5H19.5C18.3954 12.5 17.5 11.6046 17.5 10.5V2Z" fill="white"/>
</svg>
