<svg width="94" height="39" viewBox="0 0 94 39" fill="none" xmlns="http://www.w3.org/2000/svg">
<rect x="70" y="2" width="10" height="37" fill="#5D93B1"/>
<rect x="42" width="11" height="11" rx="5.5" fill="#A48C8C"/>
<path fill-rule="evenodd" clip-rule="evenodd" d="M28 14H39V28C39 34.0751 34.0751 39 28 39V28V14Z" fill="#FF7062"/>
<path fill-rule="evenodd" clip-rule="evenodd" d="M14 14H25V28C25 34.0751 20.0751 39 14 39V28V14Z" fill="#FF7062"/>
<path fill-rule="evenodd" clip-rule="evenodd" d="M94 25C94 18.9249 89.0751 14 83 14V25V39H94L94 25Z" fill="#5D93B1"/>
<path fill-rule="evenodd" clip-rule="evenodd" d="M11 14H0V28C0 34.0751 4.92487 39 11 39L11 28V14Z" fill="#FF7062"/>
<path fill-rule="evenodd" clip-rule="evenodd" d="M53 14H42V28C42 34.0751 46.9249 39 53 39L53 28V14Z" fill="#A99393"/>
<path fill-rule="evenodd" clip-rule="evenodd" d="M67 8V14V28L67 39C60.9249 39 56 34.0751 56 28V24V14L56 13.8582C59.9233 13.2971 63.3219 11.1093 65.4907 8H67Z" fill="#7ACCCC"/>
</svg>
