<svg width="57" height="31" viewBox="0 0 57 31" fill="none" xmlns="http://www.w3.org/2000/svg">
<g style="mix-blend-mode:screen">
<path d="M15.1553 24.2988C15.1143 25.0098 15.0186 25.7275 14.8682 26.4521C14.7178 27.1631 14.4785 27.8057 14.1504 28.3799C13.8359 28.9541 13.4189 29.4258 12.8994 29.7949C12.3799 30.1504 11.7373 30.3281 10.9717 30.3281C10.4932 30.3281 10.0693 30.2529 9.7002 30.1025C9.34473 29.9658 9.03027 29.7812 8.75684 29.5488C8.49707 29.3027 8.27832 29.0293 8.10059 28.7285C7.92285 28.4141 7.77246 28.0859 7.64941 27.7441C7.1709 28.5371 6.60352 29.1523 5.94727 29.5898C5.30469 30.0137 4.66211 30.2256 4.01953 30.2256C3.5 30.2256 3.02832 30.1299 2.60449 29.9385C2.19434 29.7471 1.83887 29.4805 1.53809 29.1387C1.25098 28.7832 1.02539 28.3594 0.861328 27.8672C0.697266 27.375 0.615234 26.8213 0.615234 26.2061C0.615234 25.1807 0.704102 24.2988 0.881836 23.5605C1.07324 22.8086 1.27832 22.1934 1.49707 21.7148C1.72949 21.2363 1.94141 20.8809 2.13281 20.6484C2.32422 20.4023 2.41992 20.2793 2.41992 20.2793C2.48828 20.1973 2.57031 20.1357 2.66602 20.0947C2.77539 20.0537 2.88477 20.0332 2.99414 20.0332C3.21289 20.0332 3.39062 20.1152 3.52734 20.2793C3.67773 20.4297 3.75293 20.6074 3.75293 20.8125C3.75293 20.9629 3.69824 21.127 3.58887 21.3047C3.53418 21.3867 3.4248 21.5439 3.26074 21.7764C3.11035 22.0088 2.95312 22.3232 2.78906 22.7197C2.625 23.1162 2.47461 23.6016 2.33789 24.1758C2.21484 24.75 2.15332 25.4268 2.15332 26.2061C2.15332 27.0127 2.31738 27.6279 2.64551 28.0518C2.97363 28.4619 3.43164 28.667 4.01953 28.667C4.30664 28.667 4.62109 28.5918 4.96289 28.4414C5.30469 28.2773 5.62598 28.0312 5.92676 27.7031C6.22754 27.375 6.4873 26.958 6.70605 26.4521C6.9248 25.9463 7.06152 25.3516 7.11621 24.668L7.38281 21.1406C7.39648 20.9355 7.47852 20.7646 7.62891 20.6279C7.79297 20.4912 7.97754 20.4229 8.18262 20.4229C8.41504 20.4229 8.59961 20.5117 8.73633 20.6895C8.87305 20.8535 8.94141 21.0449 8.94141 21.2637L8.71582 24.6475C8.6748 25.3721 8.69531 25.9941 8.77734 26.5137C8.87305 27.0332 9.02344 27.4639 9.22852 27.8057C9.43359 28.1338 9.68652 28.3799 9.9873 28.5439C10.2881 28.6943 10.623 28.7695 10.9922 28.7695C11.4844 28.7695 11.9014 28.626 12.2432 28.3389C12.585 28.0518 12.8584 27.6621 13.0635 27.1699C13.2686 26.6777 13.4121 26.1104 13.4941 25.4678C13.5898 24.8115 13.6377 24.1211 13.6377 23.3965C13.6377 22.5352 13.5898 21.8174 13.4941 21.2432C13.3984 20.6689 13.3506 20.2861 13.3506 20.0947C13.3506 19.8896 13.4258 19.7119 13.5762 19.5615C13.7266 19.3975 13.9111 19.3154 14.1299 19.3154C14.3213 19.3154 14.4854 19.377 14.6221 19.5C14.7588 19.6094 14.8477 19.7598 14.8887 19.9512C14.9023 20.0059 14.9434 20.1631 15.0117 20.4229C15.0801 20.6826 15.1758 20.9971 15.2988 21.3662C15.4219 21.7217 15.5791 22.1045 15.7705 22.5146C15.9756 22.9111 16.2148 23.2803 16.4883 23.6221C16.7754 23.9639 17.0967 24.251 17.4521 24.4834C17.8213 24.7021 18.2383 24.8115 18.7031 24.8115C18.9629 24.8115 19.1816 24.7637 19.3594 24.668C19.5508 24.5586 19.708 24.4355 19.8311 24.2988C19.9541 24.1621 20.043 24.0322 20.0977 23.9092C20.166 23.7861 20.207 23.7109 20.2207 23.6836C20.2891 23.5332 20.3848 23.417 20.5078 23.335C20.6445 23.2393 20.7881 23.1914 20.9385 23.1914C21.1709 23.1914 21.3555 23.2803 21.4922 23.458C21.6426 23.6221 21.7178 23.7998 21.7178 23.9912C21.7178 24.1553 21.6426 24.374 21.4922 24.6475C21.3555 24.9209 21.1572 25.1875 20.8975 25.4473C20.6377 25.6934 20.3164 25.9121 19.9336 26.1035C19.5645 26.2812 19.1543 26.3701 18.7031 26.3701C18.3066 26.3701 17.9375 26.3154 17.5957 26.2061C17.2539 26.083 16.9326 25.9258 16.6318 25.7344C16.3447 25.543 16.0781 25.3242 15.832 25.0781C15.5859 24.832 15.3604 24.5723 15.1553 24.2988ZM23.6045 13.9014C23.6045 14.4209 23.4199 14.8652 23.0508 15.2344C22.6953 15.5898 22.2578 15.7676 21.7383 15.7676C21.2188 15.7676 20.7744 15.5898 20.4053 15.2344C20.0498 14.8652 19.8721 14.4209 19.8721 13.9014C19.8721 13.6416 19.9199 13.4023 20.0156 13.1836C20.1113 12.9512 20.2412 12.7529 20.4053 12.5889C20.583 12.4111 20.7812 12.2744 21 12.1787C21.2324 12.083 21.4785 12.0352 21.7383 12.0352C21.998 12.0352 22.2373 12.083 22.4561 12.1787C22.6885 12.2744 22.8867 12.4111 23.0508 12.5889C23.2285 12.7529 23.3652 12.9512 23.4609 13.1836C23.5566 13.4023 23.6045 13.6416 23.6045 13.9014ZM20.2822 25.9189C20.2822 23.9502 20.4053 21.9883 20.6514 20.0332C20.6787 19.8418 20.7607 19.6777 20.8975 19.541C21.0479 19.3906 21.2393 19.3154 21.4717 19.3154C21.6768 19.3154 21.8477 19.3975 21.9844 19.5615C22.1211 19.7119 22.1895 19.8896 22.1895 20.0947C22.1895 20.1768 22.1689 20.4229 22.1279 20.833C22.1006 21.2432 22.0596 21.7354 22.0049 22.3096C21.9639 22.8701 21.9229 23.4717 21.8818 24.1143C21.8545 24.7432 21.8408 25.3242 21.8408 25.8574C21.8408 26.582 21.9092 27.1699 22.0459 27.6211C22.1963 28.0586 22.3809 28.4004 22.5996 28.6465C22.832 28.8926 23.0713 29.0566 23.3174 29.1387C23.5771 29.2207 23.8232 29.2617 24.0557 29.2617C24.4385 29.2617 24.835 29.125 25.2451 28.8516C25.6553 28.5781 26.0723 28.1953 26.4961 27.7031C26.9336 27.2109 27.3711 26.623 27.8086 25.9395C28.2461 25.2422 28.6768 24.4697 29.1006 23.6221C29.1689 23.4854 29.2646 23.3828 29.3877 23.3145C29.5107 23.2324 29.6475 23.1914 29.7979 23.1914C30.0166 23.1914 30.1943 23.2734 30.3311 23.4375C30.4814 23.6016 30.5566 23.7793 30.5566 23.9707C30.5566 24.1074 30.5293 24.2236 30.4746 24.3193C30.3105 24.6338 30.1055 25.0166 29.8594 25.4678C29.6133 25.9189 29.333 26.3838 29.0186 26.8623C28.7041 27.3408 28.3555 27.8193 27.9727 28.2979C27.6035 28.7627 27.207 29.1865 26.7832 29.5693C26.3594 29.9385 25.915 30.2393 25.4502 30.4717C24.9854 30.7041 24.5137 30.8203 24.0352 30.8203C23.4199 30.8203 22.8799 30.6904 22.415 30.4307C21.9502 30.1709 21.5537 29.8223 21.2256 29.3848C20.9111 28.9473 20.6719 28.4346 20.5078 27.8467C20.3574 27.2451 20.2822 26.6025 20.2822 25.9189ZM22.4561 13.9014C22.4561 13.71 22.3809 13.5459 22.2305 13.4092C22.0938 13.2588 21.9297 13.1836 21.7383 13.1836C21.5469 13.1836 21.3828 13.2588 21.2461 13.4092C21.1094 13.5459 21.041 13.71 21.041 13.9014C21.041 14.0928 21.1094 14.2568 21.2461 14.3936C21.3828 14.5303 21.5469 14.5986 21.7383 14.5986C21.9297 14.5986 22.0938 14.5303 22.2305 14.3936C22.3809 14.2568 22.4561 14.0928 22.4561 13.9014ZM45.6914 9.47168C45.6914 9.69043 45.6162 9.86816 45.4658 10.0049C45.3154 10.1279 45.1309 10.1895 44.9121 10.1895H34.5146V10.415C34.5146 11.249 34.4531 12.1377 34.3301 13.0811C34.207 14.0244 34.0361 14.9678 33.8174 15.9111C33.6123 16.8408 33.373 17.75 33.0996 18.6387C32.8398 19.5273 32.5664 20.3477 32.2793 21.0996C32.0059 21.8516 31.7324 22.5078 31.459 23.0684C31.1855 23.6152 30.9395 24.0254 30.7207 24.2988C30.8984 24.9277 31.1104 25.5156 31.3564 26.0625C31.6025 26.5957 31.876 27.0674 32.1768 27.4775C32.4912 27.874 32.8262 28.1885 33.1816 28.4209C33.5371 28.6533 33.9199 28.7695 34.3301 28.7695C34.8086 28.7695 35.2803 28.5713 35.7451 28.1748C36.2236 27.7646 36.6611 27.2861 37.0576 26.7393C37.4678 26.1787 37.8232 25.6182 38.124 25.0576C38.4385 24.4834 38.6641 24.0254 38.8008 23.6836C38.9375 23.3555 39.1768 23.1914 39.5186 23.1914C39.751 23.1914 39.9355 23.2734 40.0723 23.4375C40.2227 23.6016 40.2979 23.7793 40.2979 23.9707C40.2979 24.0664 40.2773 24.1621 40.2363 24.2578C40.1953 24.3535 40.0928 24.5723 39.9287 24.9141C39.7783 25.2559 39.5732 25.6523 39.3135 26.1035C39.0674 26.5547 38.7734 27.0332 38.4316 27.5391C38.1035 28.0312 37.7275 28.4824 37.3037 28.8926C36.8936 29.3027 36.4492 29.6445 35.9707 29.918C35.4922 30.1914 34.9863 30.3281 34.4531 30.3281C33.5098 30.3281 32.6621 30.0205 31.9102 29.4053C31.1582 28.79 30.5156 27.9287 29.9824 26.8213C29.4629 25.7139 29.0664 24.4014 28.793 22.8838C28.5195 21.3662 28.3828 19.7051 28.3828 17.9004C28.3828 17.4492 28.3896 16.9229 28.4033 16.3213C28.417 15.7061 28.4443 15.0635 28.4854 14.3936C28.5264 13.71 28.5879 13.0127 28.6699 12.3018C28.752 11.5771 28.8613 10.873 28.998 10.1895H21.6357C21.417 10.1895 21.2324 10.1279 21.082 10.0049C20.9316 9.86816 20.8564 9.69043 20.8564 9.47168C20.8564 9.25293 20.9316 9.08203 21.082 8.95898C21.2324 8.82227 21.417 8.75391 21.6357 8.75391H29.3467C29.4834 8.26172 29.6406 7.81055 29.8184 7.40039C30.0098 6.99023 30.2217 6.63477 30.4541 6.33398C30.7002 6.0332 30.9668 5.80078 31.2539 5.63672C31.5547 5.45898 31.8828 5.37012 32.2383 5.37012C32.5801 5.37012 32.874 5.45898 33.1201 5.63672C33.3799 5.80078 33.5986 6.0332 33.7764 6.33398C33.9541 6.63477 34.0908 6.99023 34.1865 7.40039C34.2959 7.81055 34.3779 8.26172 34.4326 8.75391H44.9121C45.1309 8.75391 45.3154 8.82227 45.4658 8.95898C45.6162 9.08203 45.6914 9.25293 45.6914 9.47168ZM30.249 22.248C30.6592 21.3457 31.0283 20.375 31.3564 19.3359C31.6982 18.2832 31.9854 17.2236 32.2178 16.1572C32.4639 15.0908 32.6484 14.0449 32.7715 13.0195C32.9082 11.9941 32.9766 11.0508 32.9766 10.1895H30.5566C30.3652 11.0371 30.208 12.0898 30.085 13.3477C29.9756 14.5918 29.9209 16.1094 29.9209 17.9004C29.9209 18.8984 29.9482 19.7393 30.0029 20.4229C30.0576 21.0928 30.1396 21.7012 30.249 22.248ZM32.1562 6.9082C32.0332 6.9082 31.8555 7.04492 31.623 7.31836C31.3906 7.57812 31.1582 8.05664 30.9258 8.75391H32.8945C32.8262 8.17969 32.7236 7.72852 32.5869 7.40039C32.4639 7.07227 32.3203 6.9082 32.1562 6.9082ZM30.5771 23.7246V23.7451V23.7246ZM40.5029 28.2568C40.7217 27.792 40.9746 27.293 41.2617 26.7598C41.5488 26.2129 41.8564 25.6592 42.1846 25.0986C42.5127 24.5244 42.8613 23.957 43.2305 23.3965C43.5996 22.8359 43.9824 22.3096 44.3789 21.8174C44.7754 21.3389 45.1719 20.9971 45.5684 20.792C45.9785 20.5732 46.3613 20.4639 46.7168 20.4639C47.0723 20.4639 47.3799 20.5391 47.6396 20.6895C47.9131 20.8262 48.1318 21.0176 48.2959 21.2637C48.4736 21.5098 48.6035 21.7969 48.6855 22.125C48.7812 22.4531 48.8291 22.8086 48.8291 23.1914C48.8291 23.5059 48.7949 23.9297 48.7266 24.4629C48.6719 24.9824 48.6445 25.5293 48.6445 26.1035C48.6445 26.4316 48.6582 26.7598 48.6855 27.0879C48.7266 27.4023 48.7881 27.6895 48.8701 27.9492C48.9658 28.1953 49.1025 28.4004 49.2803 28.5645C49.458 28.7148 49.6904 28.79 49.9775 28.79C50.3057 28.79 50.6338 28.7012 50.9619 28.5234C51.29 28.332 51.6113 28.0859 51.9258 27.7852C52.2402 27.4707 52.541 27.1289 52.8281 26.7598C53.1152 26.377 53.375 26.001 53.6074 25.6318C53.8398 25.249 54.0449 24.8867 54.2227 24.5449C54.4004 24.1895 54.5439 23.8955 54.6533 23.6631C54.79 23.3486 55.0293 23.1914 55.3711 23.1914C55.6035 23.1914 55.7881 23.2734 55.9248 23.4375C56.0615 23.6016 56.1299 23.7793 56.1299 23.9707C56.1299 24.0801 56.1094 24.1826 56.0684 24.2783C56.0137 24.3877 55.9043 24.6133 55.7402 24.9551C55.5898 25.2969 55.3779 25.6934 55.1045 26.1445C54.8447 26.5957 54.5371 27.0674 54.1816 27.5596C53.8262 28.0518 53.4297 28.5098 52.9922 28.9336C52.5684 29.3438 52.1035 29.6855 51.5977 29.959C51.1055 30.2188 50.5859 30.3486 50.0391 30.3486C49.4102 30.3486 48.9043 30.2188 48.5215 29.959C48.1387 29.6855 47.8379 29.3438 47.6191 28.9336C47.4141 28.5234 47.2705 28.0654 47.1885 27.5596C47.1201 27.0537 47.0859 26.5615 47.0859 26.083C47.0859 25.8369 47.0928 25.5771 47.1064 25.3037C47.1338 25.0166 47.1611 24.7363 47.1885 24.4629C47.2158 24.1895 47.2363 23.9365 47.25 23.7041C47.2773 23.458 47.291 23.2529 47.291 23.0889C47.291 22.665 47.2295 22.3779 47.1064 22.2275C46.9971 22.0771 46.8672 22.002 46.7168 22.002C46.498 22.002 46.2451 22.1318 45.958 22.3916C45.6846 22.6377 45.3906 22.9658 45.0762 23.376C44.7754 23.7861 44.4678 24.251 44.1533 24.7705C43.8525 25.2764 43.5586 25.7822 43.2715 26.2881C42.9844 26.7939 42.7246 27.2793 42.4922 27.7441C42.2598 28.1953 42.0684 28.5713 41.918 28.8721C41.6309 29.4463 41.3369 29.8291 41.0361 30.0205C40.749 30.2256 40.4893 30.3281 40.2568 30.3281C39.833 30.3281 39.5049 30.1641 39.2725 29.8359C39.0537 29.4941 38.9443 29.084 38.9443 28.6055V27.3135C38.9443 24.7295 38.9443 22.2686 38.9443 19.9307C38.958 17.5791 38.9922 15.3984 39.0469 13.3887C39.1152 11.3652 39.2178 9.54004 39.3545 7.91309C39.5049 6.27246 39.7236 4.87793 40.0107 3.72949C40.2979 2.56738 40.6602 1.67188 41.0977 1.04297C41.5488 0.414062 42.1094 0.0996094 42.7793 0.0996094C43.3535 0.0996094 43.8389 0.256836 44.2354 0.571289C44.6318 0.885742 44.9531 1.31641 45.1992 1.86328C45.4453 2.39648 45.623 3.02539 45.7324 3.75C45.8418 4.46094 45.8965 5.21289 45.8965 6.00586C45.8965 7.61914 45.7461 9.20508 45.4453 10.7637C45.1582 12.3086 44.7686 13.8193 44.2764 15.2959C43.7842 16.7725 43.21 18.2148 42.5537 19.623C41.8975 21.0176 41.207 22.3779 40.4824 23.7041C40.4824 23.9502 40.4824 24.2441 40.4824 24.5859C40.4824 24.9277 40.4824 25.2695 40.4824 25.6113C40.4824 25.9531 40.4824 26.2744 40.4824 26.5752C40.4824 26.876 40.4824 27.1152 40.4824 27.293L40.5029 28.2568ZM40.5029 20.6895C41.0771 19.4316 41.5967 18.208 42.0615 17.0186C42.54 15.8154 42.9434 14.6191 43.2715 13.4297C43.6133 12.2402 43.8799 11.0371 44.0713 9.82031C44.2627 8.58984 44.3584 7.31152 44.3584 5.98535C44.3584 5.7666 44.3447 5.41797 44.3174 4.93945C44.3037 4.46094 44.2422 3.97559 44.1328 3.4834C44.0371 2.99121 43.8799 2.56055 43.6611 2.19141C43.4561 1.82227 43.1621 1.6377 42.7793 1.6377C42.4785 1.6377 42.2188 1.84277 42 2.25293C41.7812 2.64941 41.5898 3.19629 41.4258 3.89355C41.2617 4.57715 41.125 5.37695 41.0156 6.29297C40.9062 7.20898 40.8174 8.17969 40.749 9.20508C40.6807 10.2305 40.626 11.2832 40.585 12.3633C40.5576 13.4434 40.5371 14.4961 40.5234 15.5215C40.5098 16.5332 40.5029 17.4834 40.5029 18.3721C40.5029 19.2607 40.5029 20.0332 40.5029 20.6895Z" fill="#2CCCFF"/>
</g>
</svg>
