<svg width="30" height="28" viewBox="0 0 30 28" fill="none" xmlns="http://www.w3.org/2000/svg">
<path d="M28.4148 6.14634H24.2483L24.8796 1.83149C25.0059 0.86918 24.2799 0 23.2698 0C22.4807 0 21.7863 0.5898 21.6601 1.33481L21.0288 6.14634H11.5279L12.1592 1.83149C12.2855 0.86918 11.5595 0 10.5494 0C9.76033 0 9.06592 0.5898 8.93966 1.33481L8.27681 6.14634H3.22653C2.46898 6.14634 1.80613 6.67406 1.67988 7.41907V7.45011C1.45893 8.41242 2.21647 9.31264 3.22653 9.31264H7.80335L6.41452 18.6253H1.58518C0.827642 18.6253 0.164793 19.153 0.0385355 19.898V19.929C-0.182414 20.8914 0.575128 21.7916 1.58518 21.7916H5.90949L5.2782 26.1064C5.15195 27.0687 5.87793 27.9379 6.88798 27.9379C7.67709 27.9379 8.3715 27.3481 8.49776 26.6031L9.16061 21.8537H18.6299L17.9986 26.1685C17.8723 27.1308 18.5983 28 19.6084 28C20.3975 28 21.0919 27.4102 21.2182 26.6652L21.9441 21.8537H26.7735C27.531 21.8537 28.1939 21.3259 28.3201 20.5809V20.5499C28.5411 19.5876 27.7835 18.6874 26.7735 18.6874H22.386L23.7749 9.37472H28.4148C29.1724 9.37472 29.8352 8.84701 29.9615 8.102V8.07095C30.1824 7.04656 29.4249 6.14634 28.4148 6.14634ZM19.1349 18.6874H9.66564L11.0545 9.37472H20.5237L19.1349 18.6874Z" fill="#57D8FF"/>
</svg>
