<svg width="31" height="30" viewBox="0 0 31 30" fill="none" xmlns="http://www.w3.org/2000/svg">
<path fill-rule="evenodd" clip-rule="evenodd" d="M2.8058 28.812C2.43067 28.4431 2.24306 27.9492 2.24306 27.4552C2.24306 26.9675 2.43067 26.4798 2.8058 26.1047L14.9482 13.9623C12.8161 10.6047 13.2225 6.09031 16.1487 3.16414C19.5438 -0.230981 25.0648 -0.230981 28.4537 3.16414C31.8488 6.55925 31.8488 12.0802 28.4537 15.4691C26.7592 17.1698 24.5333 18.0139 22.3012 18.0139C20.688 18.0139 19.0686 17.5699 17.6556 16.6758L5.51941 28.812C4.7691 29.5623 3.55611 29.5623 2.8058 28.812ZM25.7888 5.82902C24.87 4.91022 23.3806 4.91022 22.4618 5.82902C21.5429 6.74785 21.5429 8.23718 22.4618 9.15601C23.3806 10.0748 24.87 10.0748 25.7888 9.15601C26.7076 8.23718 26.7076 6.74785 25.7888 5.82902ZM2.712 24.4353L1.1739 22.9034C1.06136 22.7846 0.992554 22.6283 0.992554 22.4594C0.992554 22.2969 1.06136 22.1343 1.1739 22.0217L4.57528 18.6204C4.81913 18.3703 5.21927 18.3703 5.46313 18.6204L6.995 20.1522L2.712 24.4353Z" fill="#57D8FF"/>
</svg>
