<svg width="24" height="30" viewBox="0 0 24 30" fill="none" xmlns="http://www.w3.org/2000/svg">
<path fill-rule="evenodd" clip-rule="evenodd" d="M16.3 15.2C15.2 16.4 13.7 17 12 17C10.3 17 8.79996 16.4 7.69996 15.3C4.96131 12.4635 4.99697 7.42679 4.99984 7.02027C4.99991 7.01117 4.99996 7.00438 4.99996 7C4.99996 3.1 8.09996 0 12 0C15.9 0 19 3.1 19 7C19 7.00438 19 7.01117 19.0001 7.02028C19.0029 7.42678 19.0386 12.4614 16.3 15.2ZM11.2 19H12.7C17.4 19 24 22.1 24 27.3V27.4C24 28.9 23 30 21.7 30H2.3C1 30 0 28.9 0 27.3C0 22.1 6.6 19 11.2 19Z" fill="#57D8FF"/>
</svg>
