<svg width="128" height="71" viewBox="0 0 128 71" fill="none" xmlns="http://www.w3.org/2000/svg">
<g style="mix-blend-mode:screen">
<path d="M33.5469 55.9688C33.4531 57.5938 33.2344 59.2344 32.8906 60.8906C32.5469 62.5156 32 63.9844 31.25 65.2969C30.5312 66.6094 29.5781 67.6875 28.3906 68.5312C27.2031 69.3438 25.7344 69.75 23.9844 69.75C22.8906 69.75 21.9219 69.5781 21.0781 69.2344C20.2656 68.9219 19.5469 68.5 18.9219 67.9688C18.3281 67.4062 17.8281 66.7812 17.4219 66.0938C17.0156 65.375 16.6719 64.625 16.3906 63.8438C15.2969 65.6562 14 67.0625 12.5 68.0625C11.0312 69.0312 9.5625 69.5156 8.09375 69.5156C6.90625 69.5156 5.82812 69.2969 4.85938 68.8594C3.92188 68.4219 3.10938 67.8125 2.42188 67.0312C1.76562 66.2188 1.25 65.25 0.875 64.125C0.5 63 0.3125 61.7344 0.3125 60.3281C0.3125 57.9844 0.515625 55.9688 0.921875 54.2812C1.35938 52.5625 1.82812 51.1562 2.32812 50.0625C2.85938 48.9688 3.34375 48.1562 3.78125 47.625C4.21875 47.0625 4.4375 46.7812 4.4375 46.7812C4.59375 46.5938 4.78125 46.4531 5 46.3594C5.25 46.2656 5.5 46.2188 5.75 46.2188C6.25 46.2188 6.65625 46.4062 6.96875 46.7812C7.3125 47.125 7.48438 47.5312 7.48438 48C7.48438 48.3438 7.35938 48.7188 7.10938 49.125C6.98438 49.3125 6.73438 49.6719 6.35938 50.2031C6.01562 50.7344 5.65625 51.4531 5.28125 52.3594C4.90625 53.2656 4.5625 54.375 4.25 55.6875C3.96875 57 3.82812 58.5469 3.82812 60.3281C3.82812 62.1719 4.20312 63.5781 4.95312 64.5469C5.70312 65.4844 6.75 65.9531 8.09375 65.9531C8.75 65.9531 9.46875 65.7812 10.25 65.4375C11.0312 65.0625 11.7656 64.5 12.4531 63.75C13.1406 63 13.7344 62.0469 14.2344 60.8906C14.7344 59.7344 15.0469 58.375 15.1719 56.8125L15.7812 48.75C15.8125 48.2812 16 47.8906 16.3438 47.5781C16.7188 47.2656 17.1406 47.1094 17.6094 47.1094C18.1406 47.1094 18.5625 47.3125 18.875 47.7188C19.1875 48.0938 19.3438 48.5312 19.3438 49.0312L18.8281 56.7656C18.7344 58.4219 18.7812 59.8438 18.9688 61.0312C19.1875 62.2188 19.5312 63.2031 20 63.9844C20.4688 64.7344 21.0469 65.2969 21.7344 65.6719C22.4219 66.0156 23.1875 66.1875 24.0312 66.1875C25.1562 66.1875 26.1094 65.8594 26.8906 65.2031C27.6719 64.5469 28.2969 63.6562 28.7656 62.5312C29.2344 61.4062 29.5625 60.1094 29.75 58.6406C29.9688 57.1406 30.0781 55.5625 30.0781 53.9062C30.0781 51.9375 29.9688 50.2969 29.75 48.9844C29.5312 47.6719 29.4219 46.7969 29.4219 46.3594C29.4219 45.8906 29.5938 45.4844 29.9375 45.1406C30.2812 44.7656 30.7031 44.5781 31.2031 44.5781C31.6406 44.5781 32.0156 44.7188 32.3281 45C32.6406 45.25 32.8438 45.5938 32.9375 46.0312C32.9688 46.1562 33.0625 46.5156 33.2188 47.1094C33.375 47.7031 33.5938 48.4219 33.875 49.2656C34.1562 50.0781 34.5156 50.9531 34.9531 51.8906C35.4219 52.7969 35.9688 53.6406 36.5938 54.4219C37.25 55.2031 37.9844 55.8594 38.7969 56.3906C39.6406 56.8906 40.5938 57.1406 41.6562 57.1406C42.25 57.1406 42.75 57.0312 43.1562 56.8125C43.5938 56.5625 43.9531 56.2812 44.2344 55.9688C44.5156 55.6562 44.7188 55.3594 44.8438 55.0781C45 54.7969 45.0938 54.625 45.125 54.5625C45.2812 54.2188 45.5 53.9531 45.7812 53.7656C46.0938 53.5469 46.4219 53.4375 46.7656 53.4375C47.2969 53.4375 47.7188 53.6406 48.0312 54.0469C48.375 54.4219 48.5469 54.8281 48.5469 55.2656C48.5469 55.6406 48.375 56.1406 48.0312 56.7656C47.7188 57.3906 47.2656 58 46.6719 58.5938C46.0781 59.1562 45.3438 59.6562 44.4688 60.0938C43.625 60.5 42.6875 60.7031 41.6562 60.7031C40.75 60.7031 39.9062 60.5781 39.125 60.3281C38.3438 60.0469 37.6094 59.6875 36.9219 59.25C36.2656 58.8125 35.6562 58.3125 35.0938 57.75C34.5312 57.1875 34.0156 56.5938 33.5469 55.9688ZM52.8594 32.2031C52.8594 33.3906 52.4375 34.4062 51.5938 35.25C50.7812 36.0625 49.7812 36.4688 48.5938 36.4688C47.4062 36.4688 46.3906 36.0625 45.5469 35.25C44.7344 34.4062 44.3281 33.3906 44.3281 32.2031C44.3281 31.6094 44.4375 31.0625 44.6562 30.5625C44.875 30.0312 45.1719 29.5781 45.5469 29.2031C45.9531 28.7969 46.4062 28.4844 46.9062 28.2656C47.4375 28.0469 48 27.9375 48.5938 27.9375C49.1875 27.9375 49.7344 28.0469 50.2344 28.2656C50.7656 28.4844 51.2188 28.7969 51.5938 29.2031C52 29.5781 52.3125 30.0312 52.5312 30.5625C52.75 31.0625 52.8594 31.6094 52.8594 32.2031ZM45.2656 59.6719C45.2656 55.1719 45.5469 50.6875 46.1094 46.2188C46.1719 45.7812 46.3594 45.4062 46.6719 45.0938C47.0156 44.75 47.4531 44.5781 47.9844 44.5781C48.4531 44.5781 48.8438 44.7656 49.1562 45.1406C49.4688 45.4844 49.625 45.8906 49.625 46.3594C49.625 46.5469 49.5781 47.1094 49.4844 48.0469C49.4219 48.9844 49.3281 50.1094 49.2031 51.4219C49.1094 52.7031 49.0156 54.0781 48.9219 55.5469C48.8594 56.9844 48.8281 58.3125 48.8281 59.5312C48.8281 61.1875 48.9844 62.5312 49.2969 63.5625C49.6406 64.5625 50.0625 65.3438 50.5625 65.9062C51.0938 66.4688 51.6406 66.8438 52.2031 67.0312C52.7969 67.2188 53.3594 67.3125 53.8906 67.3125C54.7656 67.3125 55.6719 67 56.6094 66.375C57.5469 65.75 58.5 64.875 59.4688 63.75C60.4688 62.625 61.4688 61.2812 62.4688 59.7188C63.4688 58.125 64.4531 56.3594 65.4219 54.4219C65.5781 54.1094 65.7969 53.875 66.0781 53.7188C66.3594 53.5312 66.6719 53.4375 67.0156 53.4375C67.5156 53.4375 67.9219 53.625 68.2344 54C68.5781 54.375 68.75 54.7812 68.75 55.2188C68.75 55.5312 68.6875 55.7969 68.5625 56.0156C68.1875 56.7344 67.7188 57.6094 67.1562 58.6406C66.5938 59.6719 65.9531 60.7344 65.2344 61.8281C64.5156 62.9219 63.7188 64.0156 62.8438 65.1094C62 66.1719 61.0938 67.1406 60.125 68.0156C59.1562 68.8594 58.1406 69.5469 57.0781 70.0781C56.0156 70.6094 54.9375 70.875 53.8438 70.875C52.4375 70.875 51.2031 70.5781 50.1406 69.9844C49.0781 69.3906 48.1719 68.5938 47.4219 67.5938C46.7031 66.5938 46.1562 65.4219 45.7812 64.0781C45.4375 62.7031 45.2656 61.2344 45.2656 59.6719ZM50.2344 32.2031C50.2344 31.7656 50.0625 31.3906 49.7188 31.0781C49.4062 30.7344 49.0312 30.5625 48.5938 30.5625C48.1562 30.5625 47.7812 30.7344 47.4688 31.0781C47.1562 31.3906 47 31.7656 47 32.2031C47 32.6406 47.1562 33.0156 47.4688 33.3281C47.7812 33.6406 48.1562 33.7969 48.5938 33.7969C49.0312 33.7969 49.4062 33.6406 49.7188 33.3281C50.0625 33.0156 50.2344 32.6406 50.2344 32.2031ZM103.344 22.0781C103.344 22.5781 103.172 22.9844 102.828 23.2969C102.484 23.5781 102.062 23.7188 101.562 23.7188H77.7969V24.2344C77.7969 26.1406 77.6562 28.1719 77.375 30.3281C77.0938 32.4844 76.7031 34.6406 76.2031 36.7969C75.7344 38.9219 75.1875 41 74.5625 43.0312C73.9688 45.0625 73.3438 46.9375 72.6875 48.6562C72.0625 50.375 71.4375 51.875 70.8125 53.1562C70.1875 54.4062 69.625 55.3438 69.125 55.9688C69.5312 57.4062 70.0156 58.75 70.5781 60C71.1406 61.2188 71.7656 62.2969 72.4531 63.2344C73.1719 64.1406 73.9375 64.8594 74.75 65.3906C75.5625 65.9219 76.4375 66.1875 77.375 66.1875C78.4688 66.1875 79.5469 65.7344 80.6094 64.8281C81.7031 63.8906 82.7031 62.7969 83.6094 61.5469C84.5469 60.2656 85.3594 58.9844 86.0469 57.7031C86.7656 56.3906 87.2812 55.3438 87.5938 54.5625C87.9062 53.8125 88.4531 53.4375 89.2344 53.4375C89.7656 53.4375 90.1875 53.625 90.5 54C90.8438 54.375 91.0156 54.7812 91.0156 55.2188C91.0156 55.4375 90.9688 55.6562 90.875 55.875C90.7812 56.0938 90.5469 56.5938 90.1719 57.375C89.8281 58.1562 89.3594 59.0625 88.7656 60.0938C88.2031 61.125 87.5312 62.2188 86.75 63.375C86 64.5 85.1406 65.5312 84.1719 66.4688C83.2344 67.4062 82.2188 68.1875 81.125 68.8125C80.0312 69.4375 78.875 69.75 77.6562 69.75C75.5 69.75 73.5625 69.0469 71.8438 67.6406C70.125 66.2344 68.6562 64.2656 67.4375 61.7344C66.25 59.2031 65.3438 56.2031 64.7188 52.7344C64.0938 49.2656 63.7812 45.4688 63.7812 41.3438C63.7812 40.3125 63.7969 39.1094 63.8281 37.7344C63.8594 36.3281 63.9219 34.8594 64.0156 33.3281C64.1094 31.7656 64.25 30.1719 64.4375 28.5469C64.625 26.8906 64.875 25.2812 65.1875 23.7188H48.3594C47.8594 23.7188 47.4375 23.5781 47.0938 23.2969C46.75 22.9844 46.5781 22.5781 46.5781 22.0781C46.5781 21.5781 46.75 21.1875 47.0938 20.9062C47.4375 20.5938 47.8594 20.4375 48.3594 20.4375H65.9844C66.2969 19.3125 66.6562 18.2812 67.0625 17.3438C67.5 16.4062 67.9844 15.5938 68.5156 14.9062C69.0781 14.2188 69.6875 13.6875 70.3438 13.3125C71.0312 12.9062 71.7812 12.7031 72.5938 12.7031C73.375 12.7031 74.0469 12.9062 74.6094 13.3125C75.2031 13.6875 75.7031 14.2188 76.1094 14.9062C76.5156 15.5938 76.8281 16.4062 77.0469 17.3438C77.2969 18.2812 77.4844 19.3125 77.6094 20.4375H101.562C102.062 20.4375 102.484 20.5938 102.828 20.9062C103.172 21.1875 103.344 21.5781 103.344 22.0781ZM68.0469 51.2812C68.9844 49.2188 69.8281 47 70.5781 44.625C71.3594 42.2188 72.0156 39.7969 72.5469 37.3594C73.1094 34.9219 73.5312 32.5312 73.8125 30.1875C74.125 27.8438 74.2812 25.6875 74.2812 23.7188H68.75C68.3125 25.6562 67.9531 28.0625 67.6719 30.9375C67.4219 33.7812 67.2969 37.25 67.2969 41.3438C67.2969 43.625 67.3594 45.5469 67.4844 47.1094C67.6094 48.6406 67.7969 50.0312 68.0469 51.2812ZM72.4062 16.2188C72.125 16.2188 71.7188 16.5312 71.1875 17.1562C70.6562 17.75 70.125 18.8438 69.5938 20.4375H74.0938C73.9375 19.125 73.7031 18.0938 73.3906 17.3438C73.1094 16.5938 72.7812 16.2188 72.4062 16.2188ZM68.7969 54.6562V54.7031V54.6562ZM91.4844 65.0156C91.9844 63.9531 92.5625 62.8125 93.2188 61.5938C93.875 60.3438 94.5781 59.0781 95.3281 57.7969C96.0781 56.4844 96.875 55.1875 97.7188 53.9062C98.5625 52.625 99.4375 51.4219 100.344 50.2969C101.25 49.2031 102.156 48.4219 103.062 47.9531C104 47.4531 104.875 47.2031 105.688 47.2031C106.5 47.2031 107.203 47.375 107.797 47.7188C108.422 48.0312 108.922 48.4688 109.297 49.0312C109.703 49.5938 110 50.25 110.188 51C110.406 51.75 110.516 52.5625 110.516 53.4375C110.516 54.1562 110.438 55.125 110.281 56.3438C110.156 57.5312 110.094 58.7812 110.094 60.0938C110.094 60.8438 110.125 61.5938 110.188 62.3438C110.281 63.0625 110.422 63.7188 110.609 64.3125C110.828 64.875 111.141 65.3438 111.547 65.7188C111.953 66.0625 112.484 66.2344 113.141 66.2344C113.891 66.2344 114.641 66.0312 115.391 65.625C116.141 65.1875 116.875 64.625 117.594 63.9375C118.312 63.2188 119 62.4375 119.656 61.5938C120.312 60.7188 120.906 59.8594 121.438 59.0156C121.969 58.1406 122.438 57.3125 122.844 56.5312C123.25 55.7188 123.578 55.0469 123.828 54.5156C124.141 53.7969 124.688 53.4375 125.469 53.4375C126 53.4375 126.422 53.625 126.734 54C127.047 54.375 127.203 54.7812 127.203 55.2188C127.203 55.4688 127.156 55.7031 127.062 55.9219C126.938 56.1719 126.688 56.6875 126.312 57.4688C125.969 58.25 125.484 59.1562 124.859 60.1875C124.266 61.2188 123.562 62.2969 122.75 63.4219C121.938 64.5469 121.031 65.5938 120.031 66.5625C119.062 67.5 118 68.2812 116.844 68.9062C115.719 69.5 114.531 69.7969 113.281 69.7969C111.844 69.7969 110.688 69.5 109.812 68.9062C108.938 68.2812 108.25 67.5 107.75 66.5625C107.281 65.625 106.953 64.5781 106.766 63.4219C106.609 62.2656 106.531 61.1406 106.531 60.0469C106.531 59.4844 106.547 58.8906 106.578 58.2656C106.641 57.6094 106.703 56.9688 106.766 56.3438C106.828 55.7188 106.875 55.1406 106.906 54.6094C106.969 54.0469 107 53.5781 107 53.2031C107 52.2344 106.859 51.5781 106.578 51.2344C106.328 50.8906 106.031 50.7188 105.688 50.7188C105.188 50.7188 104.609 51.0156 103.953 51.6094C103.328 52.1719 102.656 52.9219 101.938 53.8594C101.25 54.7969 100.547 55.8594 99.8281 57.0469C99.1406 58.2031 98.4688 59.3594 97.8125 60.5156C97.1562 61.6719 96.5625 62.7812 96.0312 63.8438C95.5 64.875 95.0625 65.7344 94.7188 66.4219C94.0625 67.7344 93.3906 68.6094 92.7031 69.0469C92.0469 69.5156 91.4531 69.75 90.9219 69.75C89.9531 69.75 89.2031 69.375 88.6719 68.625C88.1719 67.8438 87.9219 66.9062 87.9219 65.8125V62.8594C87.9219 56.9531 87.9219 51.3281 87.9219 45.9844C87.9531 40.6094 88.0312 35.625 88.1562 31.0312C88.3125 26.4062 88.5469 22.2344 88.8594 18.5156C89.2031 14.7656 89.7031 11.5781 90.3594 8.95312C91.0156 6.29687 91.8438 4.25 92.8438 2.8125C93.875 1.375 95.1562 0.65625 96.6875 0.65625C98 0.65625 99.1094 1.01563 100.016 1.73438C100.922 2.45312 101.656 3.4375 102.219 4.6875C102.781 5.90625 103.188 7.34375 103.438 9C103.688 10.625 103.812 12.3438 103.812 14.1562C103.812 17.8438 103.469 21.4688 102.781 25.0312C102.125 28.5625 101.234 32.0156 100.109 35.3906C98.9844 38.7656 97.6719 42.0625 96.1719 45.2812C94.6719 48.4688 93.0938 51.5781 91.4375 54.6094C91.4375 55.1719 91.4375 55.8438 91.4375 56.625C91.4375 57.4062 91.4375 58.1875 91.4375 58.9688C91.4375 59.75 91.4375 60.4844 91.4375 61.1719C91.4375 61.8594 91.4375 62.4062 91.4375 62.8125L91.4844 65.0156ZM91.4844 47.7188C92.7969 44.8438 93.9844 42.0469 95.0469 39.3281C96.1406 36.5781 97.0625 33.8438 97.8125 31.125C98.5938 28.4062 99.2031 25.6562 99.6406 22.875C100.078 20.0625 100.297 17.1406 100.297 14.1094C100.297 13.6094 100.266 12.8125 100.203 11.7188C100.172 10.625 100.031 9.51562 99.7812 8.39062C99.5625 7.26562 99.2031 6.28125 98.7031 5.4375C98.2344 4.59375 97.5625 4.17188 96.6875 4.17188C96 4.17188 95.4062 4.64062 94.9062 5.57812C94.4062 6.48437 93.9688 7.73438 93.5938 9.32812C93.2188 10.8906 92.9062 12.7188 92.6562 14.8125C92.4062 16.9062 92.2031 19.125 92.0469 21.4688C91.8906 23.8125 91.7656 26.2188 91.6719 28.6875C91.6094 31.1562 91.5625 33.5625 91.5312 35.9062C91.5 38.2188 91.4844 40.3906 91.4844 42.4219C91.4844 44.4531 91.4844 46.2188 91.4844 47.7188Z" fill="#2CCCFF"/>
</g>
</svg>
