<svg width="48" height="48" viewBox="0 0 48 48" fill="none" xmlns="http://www.w3.org/2000/svg">
<path d="M0 6C0 2.68629 2.68629 0 6 0H42C45.3137 0 48 2.68629 48 6V42C48 45.3137 45.3137 48 42 48H6C2.68629 48 0 45.3137 0 42V6Z" fill="#B0D7EF"/>
<rect opacity="0.3" width="48" height="48" fill="#7CA6C5"/>
<path d="M40 15V13C40 11.8954 39.1046 11 38 11H10C8.89543 11 8 11.8954 8 13V15C8 16.1046 8.89543 17 10 17H38C39.1046 17 40 16.1046 40 15Z" fill="#DAEDF9"/>
<path d="M30 25V23C30 21.8954 29.1046 21 28 21H10C8.89543 21 8 21.8954 8 23V25C8 26.1046 8.89543 27 10 27H28C29.1046 27 30 26.1046 30 25Z" fill="#DAEDF9"/>
<path d="M34 35V33C34 31.8954 33.1046 31 32 31H10C8.89543 31 8 31.8954 8 33V35C8 36.1046 8.89543 37 10 37H32C33.1046 37 34 36.1046 34 35Z" fill="#DAEDF9"/>
</svg>
