<svg width="48" height="48" viewBox="0 0 48 48" fill="none" xmlns="http://www.w3.org/2000/svg">
<path d="M0 6C0 2.68629 2.68629 0 6 0H42C45.3137 0 48 2.68629 48 6V42C48 45.3137 45.3137 48 42 48H6C2.68629 48 0 45.3137 0 42V6Z" fill="#E2E5EE"/>
<rect opacity="0.3" width="48" height="48" fill="#949CBA"/>
<path opacity="0.8" fill-rule="evenodd" clip-rule="evenodd" d="M16 10C12.6863 10 10 12.6863 10 16C10 19.3137 12.6863 22 16 22C19.3137 22 22 19.3137 22 16C22 12.6863 19.3137 10 16 10ZM26 20C26 21.1046 26.8954 22 28 22L36 22C37.1046 22 38 21.1046 38 20L38 12C38 10.8954 37.1046 10 36 10H28C26.8954 10 26 10.8954 26 12L26 20ZM20.0084 26.1645C21.0978 25.9825 22 26.8954 22 28L22 36C22 37.1046 21.1046 38 20 38H12C10.8954 38 9.98253 37.0979 10.1645 36.0084C11.005 30.9766 14.9766 27.005 20.0084 26.1645ZM32 26C28.6863 26 26 28.6863 26 32C26 35.3137 28.6863 38 32 38H36C37.1046 38 38 37.1046 38 36V32C38 28.6863 35.3137 26 32 26Z" fill="#F4F5F8"/>
</svg>
