<svg width="40" height="40" viewBox="0 0 40 40" fill="none" xmlns="http://www.w3.org/2000/svg">
<path d="M23 14C23 15.6569 20 19 20 19C20 19 17 15.6569 17 14C17 12.3431 18.3431 11 20 11C21.6569 11 23 12.3431 23 14Z" fill="#636C8B"/>
<path d="M17 26C17 24.3431 20 21 20 21C20 21 23 24.3431 23 26C23 27.6569 21.6569 29 20 29C18.3431 29 17 27.6569 17 26Z" fill="#F4675A"/>
<path d="M26 22.9999C24.3431 22.9999 21 19.9999 21 19.9999C21 19.9999 24.3431 16.9999 26 16.9999C27.6569 16.9999 29 18.3431 29 19.9999C29 21.6568 27.6569 22.9999 26 22.9999Z" fill="#EA990B"/>
<path d="M14 17.0001C15.6569 17.0001 19 20.0001 19 20.0001C19 20.0001 15.6569 23.0001 14 23.0001C12.3431 23.0001 11 21.6569 11 20.0001C11 18.3432 12.3431 17.0001 14 17.0001Z" fill="#66B7AF"/>
</svg>
