<svg width="36" height="36" viewBox="0 0 36 36" fill="none" xmlns="http://www.w3.org/2000/svg">
<path fill-rule="evenodd" clip-rule="evenodd" d="M11.3111 8C5.90289 16.791 6.75682 27 16.5768 27H18L19.4232 27C29.2432 27 30.0971 16.791 24.6889 8L22.6965 11.2612C21.89 11.1667 19.8217 10.9776 18 10.9776C16.1783 10.9776 14.1099 11.1667 13.3035 11.2612L11.3111 8ZM12.5 20C13.3284 20 14 19.3284 14 18.5C14 17.6716 13.3284 17 12.5 17C11.6716 17 11 17.6716 11 18.5C11 19.3284 11.6716 20 12.5 20ZM23.5 20C24.3284 20 25 19.3284 25 18.5C25 17.6716 24.3284 17 23.5 17C22.6716 17 22 17.6716 22 18.5C22 19.3284 22.6716 20 23.5 20ZM18 20.6528L17.9605 20.6822C17.7261 20.8548 17.3863 21.0698 16.9825 21.2158C16.5779 21.3621 16.0855 21.4472 15.5658 21.3256C15.0375 21.2021 14.5358 20.8776 14.1009 20.3011L14.8991 19.6989C15.2142 20.1165 15.525 20.2891 15.7936 20.3519C16.0707 20.4168 16.3596 20.3776 16.6425 20.2754C16.9262 20.1728 17.1801 20.015 17.3676 19.877C17.46 19.809 17.5329 19.7482 17.5816 19.7055C17.6059 19.6842 17.624 19.6676 17.6352 19.6571L17.6468 19.6461L17.6478 19.6451L17.6483 19.6446L17.6484 19.6446L17.6485 19.6444L18 19.295L18.3515 19.6444L18.3517 19.6446L18.3517 19.6446L18.3532 19.6461L18.3648 19.6571C18.376 19.6676 18.3941 19.6842 18.4184 19.7055C18.4671 19.7482 18.54 19.809 18.6324 19.877C18.8199 20.015 19.0738 20.1728 19.3575 20.2754C19.6404 20.3776 19.9293 20.4168 20.2064 20.3519C20.475 20.2891 20.7858 20.1165 21.1009 19.6989L21.8991 20.3011C21.4642 20.8776 20.9625 21.2021 20.4342 21.3256C19.9145 21.4472 19.4221 21.3621 19.0175 21.2158C18.6137 21.0698 18.2739 20.8548 18.0395 20.6822L18 20.6528Z" />
</svg>
