<svg width="36" height="36" viewBox="0 0 36 36" fill="none" xmlns="http://www.w3.org/2000/svg">
<path fill-rule="evenodd" clip-rule="evenodd" d="M10 12C10 11.4477 10.4477 11 11 11H25C25.5523 11 26 11.4477 26 12V23C26 23.5523 25.5523 24 25 24H21C20.4477 24 20 24.4477 20 25C20 25.5523 20.4477 26 21 26H25C26.6569 26 28 24.6569 28 23V12C28 10.3431 26.6569 9 25 9H11C9.34315 9 8 10.3431 8 12V13C8 13.5523 8.44772 14 9 14C9.55228 14 10 13.5523 10 13V12ZM9 16C8.44771 16 8 16.4477 8 17C8 17.5523 8.44771 18 9 18C9.91925 18 10.8295 18.1811 11.6788 18.5328C12.5281 18.8846 13.2997 19.4002 13.9497 20.0503C14.5998 20.7003 15.1154 21.4719 15.4672 22.3212C15.8189 23.1705 16 24.0807 16 25C16 25.5523 16.4477 26 17 26C17.5523 26 18 25.5523 18 25C18 23.8181 17.7672 22.6478 17.3149 21.5558C16.8626 20.4639 16.1997 19.4718 15.364 18.636C14.5282 17.8003 13.5361 17.1374 12.4442 16.6851C11.3522 16.2328 10.1819 16 9 16ZM9 20C8.44772 20 8 20.4477 8 21C8 21.5523 8.44772 22 9 22C9.39397 22 9.78407 22.0776 10.1481 22.2284C10.512 22.3791 10.8427 22.6001 11.1213 22.8787C11.3999 23.1573 11.6209 23.488 11.7716 23.8519C11.9224 24.2159 12 24.606 12 25C12 25.5523 12.4477 26 13 26C13.5523 26 14 25.5523 14 25C14 24.3434 13.8707 23.6932 13.6194 23.0866C13.3681 22.48 12.9998 21.9288 12.5355 21.4645C12.0712 21.0002 11.52 20.6319 10.9134 20.3806C10.3068 20.1293 9.65661 20 9 20ZM10 25C10 25.5523 9.55228 26 9 26C8.44772 26 8 25.5523 8 25C8 24.4477 8.44772 24 9 24C9.55228 24 10 24.4477 10 25Z" fill="#636C8B"/>
</svg>
