<svg width="36" height="36" viewBox="0 0 36 36" fill="none" xmlns="http://www.w3.org/2000/svg">
<path fill-rule="evenodd" clip-rule="evenodd" d="M12 13.5316L10.0847 11.6162C9.69508 11.2266 9.69508 10.595 10.0847 10.2054C10.4743 9.81582 11.1059 9.81582 11.4955 10.2054L24.2254 22.9354C24.615 23.325 24.615 23.9566 24.2254 24.3462C23.8359 24.7358 23.2042 24.7358 22.8146 24.3462L20.7845 22.3161C20.2345 22.6048 19.6341 22.8107 19 22.917V25H21C21.5523 25 22 25.4477 22 26C22 26.5523 21.5523 27 21 27H18H15C14.4477 27 14 26.5523 14 26C14 25.4477 14.4477 25 15 25H17V22.917C14.1623 22.441 12 19.973 12 17V13.5316ZM14 15.5316V17C14 19.2091 15.7909 21 18 21C18.4419 21 18.867 20.9283 19.2645 20.796L18.4369 19.9684C18.2943 19.9892 18.1484 20 18 20C16.3431 20 15 18.6569 15 17V16.5316L14 15.5316ZM24 17C24 18.1443 23.6796 19.2138 23.1237 20.1237L21.6465 18.6465C21.8736 18.1444 22 17.5869 22 17V13C22 12.4477 22.4477 12 23 12C23.5523 12 24 12.4477 24 13V17ZM21 17C21 17.3031 20.9551 17.5957 20.8715 17.8715L15 12V11C15 9.34315 16.3431 8 18 8C19.6569 8 21 9.34315 21 11V17Z" />
</svg>
