<svg width="36" height="36" viewBox="0 0 36 36" fill="none" xmlns="http://www.w3.org/2000/svg">
<path fill-rule="evenodd" clip-rule="evenodd" d="M15 11C15 9.34315 16.3431 8 18 8C19.6569 8 21 9.34315 21 11V17C21 18.6569 19.6569 20 18 20C16.3431 20 15 18.6569 15 17V11ZM13 12C13.5523 12 14 12.4477 14 13V17C14 19.2091 15.7909 21 18 21C20.2091 21 22 19.2091 22 17V13C22 12.4477 22.4477 12 23 12C23.5523 12 24 12.4477 24 13V17C24 19.973 21.8377 22.441 19 22.917V25H21C21.5523 25 22 25.4477 22 26C22 26.5523 21.5523 27 21 27H18H15C14.4477 27 14 26.5523 14 26C14 25.4477 14.4477 25 15 25H17V22.917C14.1623 22.441 12 19.973 12 17V13C12 12.4477 12.4477 12 13 12Z" />
</svg>
