<svg width="42" height="18" viewBox="0 0 42 18" fill="none" xmlns="http://www.w3.org/2000/svg">
<path fill-rule="evenodd" clip-rule="evenodd" d="M20.5 1C19.1193 1 18 2.11929 18 3.5C18 4.88071 19.1193 6 20.5 6C21.8807 6 23 4.88071 23 3.5C23 2.11929 21.8807 1 20.5 1ZM23 18V7H18V18H23Z" fill="#61BEB5"/>
<path fill-rule="evenodd" clip-rule="evenodd" d="M35 0H30V18H35V0ZM36 7C38.7614 7 41 9.23858 41 12V18H36V12V7Z" fill="#636C8B"/>
<path fill-rule="evenodd" clip-rule="evenodd" d="M0 7H5V13V18C2.23858 18 0 15.7614 0 13V7ZM6 7H11V13C11 15.7614 8.76142 18 6 18V13V7ZM12 7H17V13C17 15.7614 14.7614 18 12 18V13L12 7Z" fill="#FF7467"/>
<path fill-rule="evenodd" clip-rule="evenodd" d="M24 6.71013V7V11V13C24 15.7614 26.2386 18 29 18L29 13V7L29 4H27.7454C26.85 5.28367 25.5354 6.2532 24 6.71013Z" fill="#F3A110"/>
</svg>
