<svg width="30" height="31" viewBox="0 0 30 31" fill="none" xmlns="http://www.w3.org/2000/svg">
<path d="M29.9057 13.3441C29.8577 12.9209 29.3655 12.6058 28.9393 12.6058C28.2641 12.6206 27.6005 12.4281 27.0382 12.054C26.4759 11.68 26.0417 11.1425 25.7944 10.5141C25.5471 9.88563 25.4985 9.19645 25.6551 8.53948C25.8117 7.88252 26.166 7.28939 26.6702 6.84009C26.8273 6.69778 26.9244 6.501 26.9416 6.28972C26.9589 6.07845 26.8951 5.86852 26.7633 5.70256C26.0621 4.81577 25.2637 4.01037 24.3831 3.30144C24.2165 3.16847 24.0054 3.10407 23.7929 3.12136C23.5805 3.13865 23.3826 3.23633 23.2396 3.39449C22.7697 3.88932 22.1635 4.23359 21.4977 4.38372C20.832 4.53385 20.1367 4.4831 19.4999 4.23788C18.8689 3.96787 18.3363 3.51023 17.9744 2.9271C17.6125 2.34398 17.4388 1.66361 17.4769 0.978362C17.4884 0.765464 17.4185 0.556178 17.2814 0.392893C17.1443 0.229609 16.9503 0.124534 16.7386 0.098952C15.6179 -0.0299014 14.4864 -0.0329216 13.365 0.0899478C13.1563 0.113204 12.9639 0.21405 12.826 0.372491C12.6882 0.530932 12.6149 0.735398 12.6207 0.945346C12.6449 1.62463 12.461 2.2951 12.0935 2.86693C11.7261 3.43876 11.1927 3.88464 10.5647 4.14484C9.9304 4.38056 9.24115 4.42633 8.58123 4.27655C7.92133 4.12676 7.31937 3.78791 6.84898 3.30144C6.70692 3.14602 6.51134 3.05006 6.30148 3.0328C6.09162 3.01554 5.883 3.07827 5.71745 3.2084C4.81978 3.91324 4.00607 4.7189 3.29233 5.60952C3.15999 5.77599 3.09543 5.98631 3.11157 6.19836C3.12771 6.4104 3.22336 6.60853 3.37937 6.75305C3.89258 7.21307 4.25003 7.82131 4.40222 8.4935C4.55441 9.1657 4.49379 9.86858 4.22876 10.5048C3.94328 11.125 3.48116 11.6472 2.90029 12.0059C2.31942 12.3647 1.64561 12.5441 0.963241 12.5217C0.751454 12.5083 0.542767 12.5779 0.381408 12.7157C0.220048 12.8536 0.118698 13.0488 0.098838 13.2601C-0.032946 14.3928 -0.032946 15.537 0.098838 16.6697C0.137856 17.1079 0.648094 17.408 1.07729 17.408C1.73865 17.4027 2.38637 17.5961 2.9365 17.9632C3.48664 18.3303 3.91383 18.8542 4.16273 19.467C4.41702 20.0971 4.47309 20.7898 4.32347 21.4526C4.17385 22.1155 3.82565 22.7169 3.32534 23.1767C3.16908 23.3189 3.07257 23.5151 3.05531 23.7256C3.03804 23.9362 3.10129 24.1455 3.2323 24.3112C3.92977 25.1993 4.72629 26.0049 5.6064 26.7123C5.77231 26.8461 5.98295 26.9115 6.19541 26.8953C6.40787 26.8791 6.60618 26.7826 6.74994 26.6253C7.22061 26.1296 7.82753 25.7844 8.49415 25.6333C9.16078 25.4821 9.85723 25.5317 10.4957 25.7759C11.1285 26.0428 11.6632 26.4992 12.026 27.0823C12.3888 27.6655 12.5619 28.3468 12.5216 29.0324C12.5102 29.2453 12.5801 29.4546 12.7172 29.6179C12.8543 29.7812 13.0483 29.8863 13.26 29.9118C13.8339 29.9771 14.4111 30.0102 14.9888 30.0109C15.5394 30.0121 16.0896 29.981 16.6365 29.9178C16.8463 29.8945 17.0396 29.7928 17.1776 29.6331C17.3156 29.4734 17.3882 29.2674 17.3809 29.0564C17.3553 28.3777 17.538 27.7073 17.9044 27.1354C18.2709 26.5635 18.8035 26.1174 19.4308 25.8569C20.0648 25.6223 20.7535 25.5782 21.4122 25.7302C22.0708 25.8822 22.6706 26.2236 23.1376 26.7123C23.2796 26.8678 23.4752 26.9637 23.6851 26.981C23.8949 26.9982 24.1035 26.9355 24.2691 26.8054C25.1654 26.099 25.979 25.2935 26.6942 24.4043C26.8279 24.2384 26.8934 24.0277 26.8772 23.8153C26.861 23.6028 26.7645 23.4045 26.6072 23.2607C26.1009 22.8144 25.7436 22.2237 25.5834 21.5681C25.4232 20.9125 25.4677 20.2235 25.711 19.594C25.9543 18.9645 26.3847 18.4246 26.9442 18.0472C27.5037 17.6698 28.1654 17.4729 28.8402 17.483H29.0263C29.2392 17.4945 29.4485 17.4246 29.6118 17.2875C29.7751 17.1504 29.8801 16.9564 29.9057 16.7447C30.0314 15.6147 30.0314 14.4742 29.9057 13.3441ZM15.0218 20.0402C14.0322 20.0402 13.0649 19.7468 12.2421 19.197C11.4193 18.6473 10.778 17.8658 10.3993 16.9516C10.0206 16.0374 9.92154 15.0314 10.1146 14.0608C10.3076 13.0903 10.7842 12.1987 11.4839 11.499C12.1836 10.7993 13.0751 10.3228 14.0457 10.1297C15.0162 9.93666 16.0222 10.0357 16.9365 10.4144C17.8507 10.7931 18.6321 11.4344 19.1819 12.2572C19.7317 13.08 20.0251 14.0473 20.0251 15.0369C20.0235 16.3634 19.4959 17.6351 18.5579 18.573C17.62 19.511 16.3483 20.0387 15.0218 20.0402Z" fill="white"/>
</svg>
