<svg width="125" height="40" viewBox="0 0 125 40" fill="none" xmlns="http://www.w3.org/2000/svg">
<path fill-rule="evenodd" clip-rule="evenodd" d="M16.2336 26.6236V30.1836H12.7536C8.63356 30.1836 6.15355 27.9036 6.15355 23.5436V12.7036H2.39355V9.3036H5.15355C5.87355 9.3036 6.39356 8.78359 6.39356 7.94359V3.3436H10.3536V9.2636H16.4336V12.7036H10.3536V23.4236C10.3536 25.4236 11.1936 26.6236 13.3936 26.6236H16.2336ZM24.3382 3.30359C24.3382 4.90359 23.1782 5.9836 21.5382 5.9836C19.9382 5.9836 18.7782 4.90359 18.7782 3.30359C18.7782 1.78359 19.9382 0.663595 21.5382 0.663595C23.1782 0.663595 24.3382 1.78359 24.3382 3.30359ZM23.6182 9.2636V30.1836H19.4182V9.2636H23.6182ZM34.3326 26.4636V30.1836H32.6126C29.4526 30.1836 27.6526 28.2636 27.6526 24.9836V0.183594H31.8526V24.7436C31.8526 25.8636 32.4126 26.4636 33.4526 26.4636H34.3326ZM52.4598 27.2236C51.8998 28.0236 49.8598 30.7036 45.6998 30.7036C39.6998 30.7036 35.5398 26.2636 35.5398 19.7836C35.5398 13.3036 39.6598 8.7436 45.4998 8.7436C49.4998 8.7436 51.6598 11.2236 52.3398 12.3036H52.6198V0.183594H56.8198V30.1836H52.6998V27.2236H52.4598ZM39.8198 19.7436C39.8198 24.1036 42.4598 26.9036 46.2998 26.9036C50.2998 26.9036 52.7398 23.7036 52.7398 19.7436C52.7398 15.2236 49.9398 12.5836 46.2598 12.5836C42.4598 12.5836 39.8198 15.5436 39.8198 19.7436ZM79.8792 23.8636C78.7992 27.9036 75.0792 30.7036 69.9192 30.7036C63.6392 30.7036 59.3992 26.0636 59.3992 19.7836C59.3992 13.1436 63.8792 8.7436 69.8392 8.7436C76.3592 8.7436 80.0792 13.5436 80.0792 19.5036V21.0636H63.5992C63.7592 24.7036 66.1992 27.1836 70.0392 27.1836C72.6792 27.1836 74.9592 25.9036 75.7992 23.8636H79.8792ZM69.8392 12.2636C66.6392 12.2636 63.9992 14.5436 63.6792 17.8236H75.9192C75.6392 14.3036 73.0792 12.2636 69.8392 12.2636ZM95.4953 16.9227C91.8097 16.7228 89.6596 19.5634 89.43 22.4342L87.5872 22.3342C87.815 18.1327 90.8856 14.6767 95.5295 14.9285C98.5556 15.0926 100.652 16.6079 102.693 18.0834C104.629 19.4832 106.516 20.8471 109.1 20.9872C112.638 21.179 114.862 18.3424 115.017 15.4677L116.934 15.5716C116.714 19.6258 113.705 23.3069 108.988 23.0511C105.972 22.8875 103.919 21.3646 101.913 19.8765C99.9973 18.4549 98.1242 17.0652 95.4953 16.9227Z" fill="#545351"/>
</svg>
