<svg width="24" height="24" viewBox="0 0 24 24" fill="none" xmlns="http://www.w3.org/2000/svg">
<path fill="currentColor" fill-rule="evenodd" clip-rule="evenodd" d="M12.1924 4.4144L8.65682 7.94993L16.435 15.7281L19.9705 12.1926C20.7516 11.4115 20.7516 10.1452 19.9705 9.36415L15.0208 4.4144C14.2397 3.63335 12.9734 3.63335 12.1924 4.4144ZM4.41284 15.0197L9.2084 10.206L7.79152 8.79441L2.99596 13.6081C2.21743 14.3896 2.21862 15.6539 2.99863 16.4339L5.68626 19.1215C6.24887 19.6841 7.01193 20.0002 7.80758 20.0002H10.9164C11.7155 20.0002 12.4816 19.6814 13.0447 19.1144L15.5734 16.5689L14.1545 15.1594L11.6258 17.7049C11.4381 17.8939 11.1827 18.0002 10.9164 18.0002H7.80758C7.54236 18.0002 7.28801 17.8948 7.10047 17.7073L4.41284 15.0197Z" />
</svg>