<svg width="60" height="60" viewBox="0 0 60 60" fill="none" xmlns="http://www.w3.org/2000/svg">
<rect width="60" height="60" rx="15" fill="#4F8DF5"/>
<path fill-rule="evenodd" clip-rule="evenodd" d="M28.4231 27.5966C27.4338 25.0719 27.9591 22.0909 29.999 20.051L31.9889 18.0611C34.7364 15.3136 39.1909 15.3136 41.9384 18.0611C44.6859 20.8086 44.6859 25.2631 41.9384 28.0105L39.9485 30.0004C37.9085 32.0404 34.9275 32.5657 32.4028 31.5764L34.7388 29.2404C35.896 29.3045 37.0746 28.8946 37.9586 28.0105L39.9485 26.0207C41.597 24.3722 41.597 21.6995 39.9485 20.051C38.3 18.4025 35.6273 18.4025 33.9788 20.051L31.9889 22.0409C31.1049 22.9249 30.695 24.1034 30.7591 25.2606L28.4231 27.5966ZM27.5951 28.4245C25.0705 27.4353 22.0895 27.9606 20.0495 30.0005L18.0596 31.9904C15.3122 34.7379 15.3122 39.1924 18.0596 41.9399C20.8071 44.6874 25.2616 44.6874 28.0091 41.9399L29.999 39.95C32.039 37.91 32.5643 34.9289 31.5749 32.4043L29.239 34.7402C29.3031 35.8975 28.8932 37.0761 28.0091 37.9601L26.0192 39.95C24.3707 41.5985 21.698 41.5985 20.0495 39.95C18.401 38.3015 18.401 35.6288 20.0495 33.9803L22.0394 31.9904C22.9234 31.1065 24.1019 30.6965 25.2591 30.7606L27.5951 28.4245ZM33.9599 24.0606L24.0604 33.9601L26.0403 35.94L35.9398 26.0405L33.9599 24.0606Z" fill="white"/>
</svg>
