<svg width="60" height="60" viewBox="0 0 60 60" fill="none" xmlns="http://www.w3.org/2000/svg">
<rect width="60" height="60" rx="15" fill="#1ED760"/>
<path d="M25.4001 35.7625C31.9651 35.7625 37.8151 37.2687 42.8501 40.2862C43.5988 40.7237 44.0388 41.1712 44.0388 42.28C44.0388 43.3612 43.1588 44.1562 42.1726 44.1562C41.6876 44.1562 41.3563 43.9875 40.9026 43.7112C36.5551 41.0812 31.1338 39.6975 25.3801 39.6975C22.1701 39.6975 18.9388 40.1087 15.9176 40.7387C15.7754 40.7695 15.6225 40.8073 15.468 40.8454C15.089 40.9391 14.7008 41.035 14.4388 41.035C13.3001 41.035 12.5401 40.13 12.5401 39.15C12.5401 37.8875 13.2676 37.2612 14.1726 37.0887C17.8776 36.2437 21.5688 35.7625 25.4013 35.7625H25.4001Z" fill="#191414"/>
<path d="M46.4101 31.4962C47.4113 32.07 47.7801 32.8 47.7801 33.8675C47.7801 35.1662 46.7463 36.2162 45.4413 36.2162C44.8276 36.2162 44.4293 35.9831 44.0151 35.7408L43.9388 35.6962C39.0588 32.8 32.2951 30.8762 24.8888 30.8762C21.0901 30.8762 17.8113 31.4087 15.0976 32.1262C14.9347 32.1711 14.7919 32.2169 14.6586 32.2595C14.3132 32.3701 14.0327 32.46 13.6376 32.46C12.3476 32.46 11.2938 31.4087 11.2938 30.1075C11.2938 28.8312 11.9126 27.9537 13.1601 27.6075C16.5321 26.6813 19.9754 25.9664 24.9869 25.9662C32.8387 25.9665 40.4343 27.9227 46.4101 31.4962Z" fill="#191414"/>
<path d="M25.5976 15.6575C34.4101 15.6575 43.6751 17.47 50.4451 21.4462C51.3576 21.9625 51.9913 22.7425 51.9913 24.1712C51.9913 25.8062 50.6763 26.9825 49.1613 26.9825C48.5501 26.9825 48.1876 26.8337 47.6151 26.52C42.1851 23.2637 33.7526 21.47 25.6088 21.47C21.5413 21.47 17.4088 21.8837 13.6251 22.9112C13.1888 23.0212 12.6388 23.2387 12.0863 23.2387C10.4863 23.2387 9.25757 21.9725 9.25757 20.3725C9.25757 18.7425 10.2676 17.8275 11.3576 17.505C15.6338 16.2425 20.4076 15.6575 25.5963 15.6575H25.5976Z" fill="#191414"/>
</svg>
