<svg width="36" height="36" viewBox="0 0 36 36" fill="none" xmlns="http://www.w3.org/2000/svg">
<path fill-rule="evenodd" clip-rule="evenodd" d="M10 12C10 11.4477 10.4477 11 11 11H25C25.5523 11 26 11.4477 26 12V23C26 23.5523 25.5523 24 25 24H21C20.4477 24 20 24.4477 20 25C20 25.5523 20.4477 26 21 26H25C26.6569 26 28 24.6569 28 23V12C28 10.3431 26.6569 9 25 9H11C9.34315 9 8 10.3431 8 12V13C8 13.5523 8.44772 14 9 14C9.55228 14 10 13.5523 10 13V12ZM9.72276 16.3085L9.70711 16.2929C9.31658 15.9024 8.68342 15.9024 8.29289 16.2929C7.90237 16.6834 7.90237 17.3166 8.29289 17.7071L8.30855 17.7228L8.32426 17.7385L8.34004 17.7543L8.35588 17.7701L8.37177 17.786L8.38773 17.8019L8.40374 17.818L8.41982 17.834L8.43595 17.8502L8.45214 17.8663L8.46838 17.8826L8.48468 17.8989L8.50104 17.9153L8.51746 17.9317L8.53393 17.9481L8.55046 17.9647L8.56704 17.9813L8.58368 17.9979L8.60038 18.0146L8.61712 18.0313L8.63392 18.0481L8.65078 18.065L8.66769 18.0819L8.68465 18.0989L8.70166 18.1159L8.71873 18.1329L8.73584 18.1501L8.75301 18.1672L8.77023 18.1844L8.7875 18.2017L8.80482 18.219L8.82219 18.2364L8.83961 18.2538L8.85708 18.2713L8.8746 18.2888L8.89216 18.3064L8.90978 18.324L8.92744 18.3417L8.94515 18.3594L8.96291 18.3771L8.98071 18.3949L8.99856 18.4128L9.01646 18.4307L9.0344 18.4486L9.05238 18.4666L9.07042 18.4846L9.08849 18.5027L9.10661 18.5208L9.12478 18.539L9.14299 18.5572L9.16124 18.5755L9.17953 18.5937L9.19787 18.6121L9.21625 18.6305L9.23467 18.6489L9.25313 18.6673L9.27163 18.6858L9.29017 18.7044L9.30876 18.723L9.32738 18.7416L9.34605 18.7603L9.36475 18.779L9.38349 18.7977L9.40227 18.8165L9.42109 18.8353L9.43994 18.8542L9.45883 18.873L9.47776 18.892L9.49673 18.9109L9.51573 18.9299L9.53477 18.949L9.55385 18.9681L9.57296 18.9872L9.5921 19.0063L9.61128 19.0255L9.6305 19.0447L9.64975 19.064L9.66903 19.0832L9.68834 19.1026L9.70769 19.1219L9.72707 19.1413L9.74648 19.1607L9.76592 19.1801L9.7854 19.1996L9.8049 19.2191L9.82444 19.2387L9.84401 19.2582L9.8636 19.2778L9.88323 19.2974L9.90288 19.3171L9.92257 19.3368L9.94228 19.3565L9.96202 19.3762L9.98179 19.396L10.0016 19.4158L10.0214 19.4356L10.0413 19.4555L10.0611 19.4753L10.081 19.4953L10.101 19.5152L10.1209 19.5351L10.1409 19.5551L10.1609 19.5751L10.1809 19.5951L10.201 19.6152L10.221 19.6353L10.2411 19.6554L10.2613 19.6755L10.2814 19.6956L10.3016 19.7158L10.3218 19.736L10.342 19.7562L10.3622 19.7764L10.3824 19.7967L10.4027 19.8169L10.423 19.8372L10.4433 19.8575L10.4636 19.8779L10.484 19.8982L10.5043 19.9186L10.5247 19.9389L10.5451 19.9593L10.5656 19.9798L10.586 20.0002L10.6064 20.0207L10.6269 20.0411L10.6474 20.0616L10.6679 20.0821L10.6884 20.1026L10.7089 20.1232L10.7295 20.1437L10.75 20.1643L10.7706 20.1848L10.7912 20.2054L10.8118 20.226L10.8324 20.2466L10.853 20.2673L10.8737 20.2879L10.8943 20.3085L10.915 20.3292L10.9357 20.3499L10.9563 20.3705L10.977 20.3912L10.9977 20.4119L11.0184 20.4327L11.0392 20.4534L11.0599 20.4741L11.0806 20.4948L11.1014 20.5156L11.1221 20.5363L11.1429 20.5571L11.1637 20.5779L11.1844 20.5986L11.2052 20.6194L11.226 20.6402L11.2468 20.661L11.2676 20.6818L11.2884 20.7026L11.3092 20.7234L11.33 20.7442L11.3508 20.765L11.3716 20.7858L11.3925 20.8067L11.4133 20.8275L11.4341 20.8483L11.4549 20.8692L11.4758 20.89L11.4966 20.9108L11.5174 20.9316L11.5383 20.9525L11.5591 20.9733L11.5799 20.9941L11.5858 21L11.5799 21.0059L11.5591 21.0267L11.5383 21.0475L11.5174 21.0684L11.4966 21.0892L11.4758 21.11L11.4549 21.1308L11.4341 21.1517L11.4133 21.1725L11.3925 21.1933L11.3716 21.2142L11.3508 21.235L11.33 21.2558L11.3092 21.2766L11.2884 21.2974L11.2676 21.3182L11.2468 21.339L11.226 21.3598L11.2052 21.3806L11.1844 21.4014L11.1637 21.4221L11.1429 21.4429L11.1221 21.4637L11.1014 21.4844L11.0806 21.5052L11.0599 21.5259L11.0392 21.5466L11.0184 21.5673L10.9977 21.5881L10.977 21.6088L10.9563 21.6295L10.9357 21.6501L10.915 21.6708L10.8943 21.6915L10.8737 21.7121L10.853 21.7327L10.8324 21.7534L10.8118 21.774L10.7912 21.7946L10.7706 21.8152L10.75 21.8357L10.7295 21.8563L10.7089 21.8768L10.6884 21.8974L10.6679 21.9179L10.6474 21.9384L10.6269 21.9589L10.6064 21.9793L10.586 21.9998L10.5656 22.0202L10.5451 22.0407L10.5247 22.0611L10.5043 22.0814L10.484 22.1018L10.4636 22.1221L10.4433 22.1425L10.423 22.1628L10.4027 22.1831L10.3824 22.2033L10.3622 22.2236L10.342 22.2438L10.3218 22.264L10.3016 22.2842L10.2814 22.3044L10.2613 22.3245L10.2411 22.3446L10.221 22.3647L10.201 22.3848L10.1809 22.4049L10.1609 22.4249L10.1409 22.4449L10.1209 22.4649L10.101 22.4848L10.081 22.5047L10.0611 22.5247L10.0413 22.5445L10.0214 22.5644L10.0016 22.5842L9.98179 22.604L9.96202 22.6238L9.94228 22.6435L9.92257 22.6632L9.90288 22.6829L9.88323 22.7026L9.8636 22.7222L9.84401 22.7418L9.82444 22.7613L9.8049 22.7809L9.7854 22.8004L9.76592 22.8199L9.74648 22.8393L9.72707 22.8587L9.70769 22.8781L9.68834 22.8974L9.66903 22.9168L9.64975 22.936L9.6305 22.9553L9.61128 22.9745L9.5921 22.9937L9.57296 23.0128L9.55385 23.0319L9.53477 23.051L9.51573 23.0701L9.49673 23.0891L9.47776 23.108L9.45883 23.127L9.43994 23.1458L9.42109 23.1647L9.40227 23.1835L9.38349 23.2023L9.36475 23.221L9.34605 23.2397L9.32738 23.2584L9.30876 23.277L9.29017 23.2956L9.27163 23.3142L9.25313 23.3327L9.23467 23.3511L9.21625 23.3695L9.19787 23.3879L9.17953 23.4063L9.16124 23.4245L9.14299 23.4428L9.12478 23.461L9.10661 23.4792L9.08849 23.4973L9.07042 23.5154L9.05238 23.5334L9.0344 23.5514L9.01646 23.5693L8.99856 23.5872L8.98071 23.6051L8.96291 23.6229L8.94515 23.6406L8.92744 23.6583L8.90978 23.676L8.89216 23.6936L8.8746 23.7112L8.85708 23.7287L8.83961 23.7462L8.82219 23.7636L8.80482 23.781L8.7875 23.7983L8.77023 23.8156L8.75301 23.8328L8.73584 23.8499L8.71873 23.8671L8.70166 23.8841L8.68465 23.9011L8.66769 23.9181L8.65078 23.935L8.63392 23.9519L8.61712 23.9687L8.60038 23.9854L8.58368 24.0021L8.56704 24.0187L8.55046 24.0353L8.53393 24.0519L8.51746 24.0683L8.50104 24.0847L8.48468 24.1011L8.46838 24.1174L8.45214 24.1337L8.43595 24.1498L8.41982 24.166L8.40374 24.182L8.38773 24.1981L8.37177 24.214L8.35588 24.2299L8.34004 24.2457L8.32426 24.2615L8.30855 24.2772L8.29289 24.2929C7.90237 24.6834 7.90237 25.3166 8.29289 25.7071C8.68342 26.0976 9.31658 26.0976 9.70711 25.7071L9.72276 25.6915L9.73848 25.6757L9.75425 25.66L9.77009 25.6441L9.78599 25.6282L9.80194 25.6123L9.81796 25.5963L9.83403 25.5802L9.85016 25.5641L9.86635 25.5479L9.8826 25.5316L9.8989 25.5153L9.91526 25.499L9.93167 25.4825L9.94815 25.4661L9.96468 25.4495L9.98126 25.433L9.9979 25.4163L10.0146 25.3996L10.0313 25.3829L10.0481 25.3661L10.065 25.3492L10.0819 25.3323L10.0989 25.3154L10.1159 25.2983L10.1329 25.2813L10.1501 25.2642L10.1672 25.247L10.1844 25.2298L10.2017 25.2125L10.219 25.1952L10.2364 25.1778L10.2538 25.1604L10.2713 25.1429L10.2888 25.1254L10.3064 25.1078L10.324 25.0902L10.3417 25.0726L10.3594 25.0549L10.3771 25.0371L10.3949 25.0193L10.4128 25.0014L10.4307 24.9835L10.4486 24.9656L10.4666 24.9476L10.4846 24.9296L10.5027 24.9115L10.5208 24.8934L10.539 24.8752L10.5572 24.857L10.5755 24.8388L10.5937 24.8205L10.6121 24.8021L10.6305 24.7838L10.6489 24.7653L10.6673 24.7469L10.6858 24.7284L10.7044 24.7098L10.723 24.6912L10.7416 24.6726L10.7603 24.654L10.779 24.6353L10.7977 24.6165L10.8165 24.5977L10.8353 24.5789L10.8542 24.5601L10.873 24.5412L10.892 24.5222L10.9109 24.5033L10.9299 24.4843L10.949 24.4652L10.9681 24.4462L10.9872 24.427L11.0063 24.4079L11.0255 24.3887L11.0447 24.3695L11.064 24.3503L11.0832 24.331L11.1026 24.3117L11.1219 24.2923L11.1413 24.2729L11.1607 24.2535L11.1801 24.2341L11.1996 24.2146L11.2191 24.1951L11.2387 24.1756L11.2582 24.156L11.2778 24.1364L11.2974 24.1168L11.3171 24.0971L11.3368 24.0774L11.3565 24.0577L11.3762 24.038L11.396 24.0182L11.4158 23.9984L11.4356 23.9786L11.4555 23.9587L11.4753 23.9389L11.4953 23.919L11.5152 23.899L11.5351 23.8791L11.5551 23.8591L11.5751 23.8391L11.5951 23.8191L11.6152 23.799L11.6353 23.779L11.6554 23.7589L11.6755 23.7387L11.6956 23.7186L11.7158 23.6984L11.736 23.6782L11.7562 23.658L11.7764 23.6378L11.7967 23.6176L11.8169 23.5973L11.8372 23.577L11.8575 23.5567L11.8779 23.5364L11.8982 23.516L11.9186 23.4957L11.9389 23.4753L11.9593 23.4549L11.9798 23.4344L12.0002 23.414L12.0207 23.3936L12.0411 23.3731L12.0616 23.3526L12.0821 23.3321L12.1026 23.3116L12.1232 23.2911L12.1437 23.2705L12.1643 23.25L12.1848 23.2294L12.2054 23.2088L12.226 23.1882L12.2466 23.1676L12.2673 23.147L12.2879 23.1263L12.3085 23.1057L12.3292 23.085L12.3499 23.0643L12.3705 23.0437L12.3912 23.023L12.4119 23.0023L12.4327 22.9816L12.4534 22.9608L12.4741 22.9401L12.4948 22.9194L12.5156 22.8986L12.5363 22.8779L12.5571 22.8571L12.5779 22.8363L12.5986 22.8156L12.6194 22.7948L12.6402 22.774L12.661 22.7532L12.6818 22.7324L12.7026 22.7116L12.7234 22.6908L12.7442 22.67L12.765 22.6492L12.7858 22.6284L12.8067 22.6075L12.8275 22.5867L12.8483 22.5659L12.8692 22.5451L12.89 22.5242L12.9108 22.5034L12.9316 22.4826L12.9525 22.4617L12.9733 22.4409L12.9941 22.4201L13 22.4142L13.0166 22.4308L13.0365 22.4508L13.0564 22.4706L13.0763 22.4905L13.0961 22.5103L13.1159 22.5301L13.1357 22.5499L13.1554 22.5697L13.1752 22.5894L13.1949 22.6091L13.2145 22.6287L13.2342 22.6484L13.2538 22.668L13.2733 22.6876L13.2929 22.7071L13.3124 22.7266L13.3319 22.7461L13.3513 22.7656L13.3708 22.785L13.3902 22.8044L13.4095 22.8237L13.4288 22.8431L13.4481 22.8623L13.4674 22.8816L13.4866 22.9008L13.5058 22.92L13.525 22.9392L13.5441 22.9583L13.5632 22.9774L13.5822 22.9964L13.6012 23.0155L13.6202 23.0344L13.6392 23.0534L13.6581 23.0723L13.6769 23.0912L13.6958 23.11L13.7146 23.1288L13.7333 23.1475L13.752 23.1662L13.7707 23.1849L13.7893 23.2036L13.8079 23.2222L13.8265 23.2407L13.845 23.2592L13.8635 23.2777L13.8819 23.2961L13.9003 23.3145L13.9187 23.3329L13.937 23.3512L13.9552 23.3695L13.9735 23.3877L13.9916 23.4059L14.0098 23.424L14.0279 23.4421L14.0459 23.4601L14.0639 23.4781L14.0819 23.4961L14.0998 23.514L14.1177 23.5319L14.1355 23.5497L14.1532 23.5675L14.171 23.5852L14.1886 23.6029L14.2063 23.6205L14.2239 23.6381L14.2414 23.6556L14.2589 23.6731L14.2763 23.6905L14.2937 23.7079L14.311 23.7253L14.3283 23.7425L14.3456 23.7598L14.3627 23.777L14.3799 23.7941L14.397 23.8112L14.414 23.8282L14.431 23.8452L14.4479 23.8621L14.4648 23.879L14.4816 23.8958L14.4984 23.9126L14.5151 23.9293L14.5317 23.9459L14.5483 23.9625L14.5649 23.9791L14.5814 23.9956L14.5978 24.012L14.6142 24.0284L14.6305 24.0447L14.6468 24.061L14.663 24.0772L14.6791 24.0933L14.6952 24.1094L14.7112 24.1255L14.7272 24.1414L14.7431 24.1573L14.759 24.1732L14.7748 24.189L14.7905 24.2047L14.8062 24.2204L14.8218 24.236L14.8374 24.2516L14.8529 24.2671L14.8683 24.2825L14.8837 24.2979L14.899 24.3132L14.9142 24.3284L14.9294 24.3436L14.9445 24.3587L14.9595 24.3738L14.9745 24.3887L14.9895 24.4037L15.0043 24.4185L15.0191 24.4333L15.0338 24.448L15.0485 24.4627L15.0631 24.4773L15.0776 24.4918L15.0921 24.5063L15.1064 24.5207L15.1208 24.535L15.135 24.5492L15.1492 24.5634L15.1633 24.5775L15.1774 24.5916L15.1913 24.6056L15.2052 24.6195L15.2191 24.6333L15.2328 24.6471L15.2465 24.6608L15.2602 24.6744L15.2737 24.6879L15.2872 24.7014L15.3006 24.7148L15.3139 24.7281L15.3272 24.7414L15.3404 24.7546L15.3535 24.7677L15.3665 24.7807L15.3795 24.7937L15.3924 24.8066L15.4052 24.8194L15.4179 24.8321L15.4306 24.8448L15.4431 24.8573L15.4556 24.8698L15.4681 24.8823L15.4804 24.8946L15.4927 24.9069L15.5049 24.9191L15.517 24.9312L15.529 24.9432L15.541 24.9552L15.5528 24.9671L15.5646 24.9789L15.5764 24.9906L15.588 25.0022L15.5995 25.0138L15.611 25.0252L15.6224 25.0366L15.6337 25.0479L15.6449 25.0591L15.6561 25.0703L15.6671 25.0813L15.6781 25.0923L15.689 25.1032L15.6998 25.114L15.7105 25.1247L15.7211 25.1353L15.7317 25.1459L15.7421 25.1564L15.7525 25.1667L15.7628 25.177L15.773 25.1872L15.7831 25.1973L15.7932 25.2074L15.8031 25.2173L15.8129 25.2272L15.8227 25.2369L15.8324 25.2466L15.842 25.2562L15.8515 25.2657L15.8609 25.2751L15.8702 25.2844L15.8794 25.2936L15.8885 25.3027L15.8976 25.3118L15.9065 25.3207L15.9154 25.3296L15.9241 25.3383L15.9328 25.347L15.9414 25.3556L15.9498 25.3641L15.9582 25.3724L15.9665 25.3807L15.9747 25.3889L15.9828 25.397L15.9908 25.405L15.9987 25.4129L16.0065 25.4208L16.0143 25.4285L16.0219 25.4361L16.0294 25.4436L16.0368 25.451L16.0442 25.4584L16.0514 25.4656L16.0585 25.4727L16.0655 25.4798L16.0725 25.4867L16.0793 25.4935L16.086 25.5003L16.0927 25.5069L16.0992 25.5134L16.1056 25.5198L16.112 25.5262L16.1182 25.5324L16.1243 25.5385L16.1303 25.5445L16.1362 25.5504L16.142 25.5563L16.1478 25.562L16.1534 25.5676L16.1589 25.5731L16.1643 25.5785L16.1695 25.5838L16.1747 25.5889L16.1798 25.594L16.1848 25.599L16.1896 25.6039L16.1944 25.6086L16.1991 25.6133L16.2036 25.6178L16.208 25.6222L16.2124 25.6266L16.2166 25.6308L16.2207 25.6349L16.2247 25.6389L16.2286 25.6428L16.2323 25.6466L16.236 25.6502L16.2396 25.6538L16.243 25.6572L16.2464 25.6606L16.2496 25.6638L16.2527 25.6669L16.2557 25.6699L16.2586 25.6728L16.2613 25.6755L16.264 25.6782L16.2665 25.6807L16.269 25.6832L16.2713 25.6855L16.2735 25.6877L16.2755 25.6898L16.2775 25.6917L16.2794 25.6936L16.2811 25.6953L16.2827 25.6969L16.2842 25.6984L16.2856 25.6998L16.2868 25.7011L16.288 25.7022L16.289 25.7032L16.2899 25.7041L16.2907 25.7049L16.2914 25.7056L16.2919 25.7061L16.2923 25.7066L16.2927 25.7069L16.2928 25.707L17 25L16.2929 25.7071C16.6834 26.0976 17.3166 26.0976 17.7071 25.7071C18.0976 25.3166 18.0976 24.6834 17.7071 24.2929L17 25L17.707 24.2928L17.7069 24.2927L17.7066 24.2923L17.7061 24.2919L17.7056 24.2914L17.7049 24.2907L17.7041 24.2899L17.7032 24.289L17.7022 24.288L17.7011 24.2868L17.6998 24.2856L17.6984 24.2842L17.6969 24.2827L17.6953 24.2811L17.6936 24.2794L17.6917 24.2775L17.6898 24.2755L17.6877 24.2735L17.6855 24.2713L17.6832 24.269L17.6807 24.2665L17.6782 24.264L17.6755 24.2613L17.6728 24.2586L17.6699 24.2557L17.6669 24.2527L17.6638 24.2496L17.6606 24.2464L17.6572 24.243L17.6538 24.2396L17.6502 24.236L17.6466 24.2323L17.6428 24.2286L17.6389 24.2247L17.6349 24.2207L17.6308 24.2166L17.6266 24.2124L17.6222 24.208L17.6178 24.2036L17.6133 24.1991L17.6086 24.1944L17.6039 24.1896L17.599 24.1848L17.594 24.1798L17.5889 24.1747L17.5838 24.1695L17.5785 24.1643L17.5731 24.1589L17.5676 24.1534L17.562 24.1478L17.5563 24.142L17.5504 24.1362L17.5445 24.1303L17.5385 24.1243L17.5324 24.1182L17.5262 24.112L17.5198 24.1056L17.5134 24.0992L17.5069 24.0927L17.5003 24.086L17.4935 24.0793L17.4867 24.0725L17.4798 24.0655L17.4727 24.0585L17.4656 24.0514L17.4584 24.0442L17.451 24.0368L17.4436 24.0294L17.4361 24.0219L17.4285 24.0143L17.4208 24.0065L17.4129 23.9987L17.405 23.9908L17.397 23.9828L17.3889 23.9747L17.3807 23.9665L17.3724 23.9582L17.3641 23.9498L17.3556 23.9414L17.347 23.9328L17.3383 23.9241L17.3296 23.9154L17.3207 23.9065L17.3118 23.8976L17.3027 23.8885L17.2936 23.8794L17.2844 23.8702L17.2751 23.8609L17.2657 23.8515L17.2562 23.842L17.2466 23.8324L17.2369 23.8227L17.2272 23.8129L17.2173 23.8031L17.2074 23.7932L17.1973 23.7831L17.1872 23.773L17.177 23.7628L17.1667 23.7525L17.1564 23.7421L17.1459 23.7317L17.1354 23.7211L17.1247 23.7105L17.114 23.6998L17.1032 23.689L17.0923 23.6781L17.0813 23.6671L17.0703 23.6561L17.0591 23.6449L17.0479 23.6337L17.0366 23.6224L17.0252 23.611L17.0138 23.5995L17.0022 23.588L16.9906 23.5764L16.9789 23.5646L16.9671 23.5528L16.9552 23.541L16.9432 23.529L16.9312 23.517L16.9191 23.5049L16.9069 23.4927L16.8946 23.4804L16.8823 23.4681L16.8698 23.4556L16.8573 23.4431L16.8448 23.4305L16.8321 23.4179L16.8194 23.4052L16.8066 23.3924L16.7937 23.3795L16.7807 23.3665L16.7677 23.3535L16.7546 23.3404L16.7414 23.3272L16.7281 23.3139L16.7148 23.3006L16.7014 23.2872L16.6879 23.2737L16.6744 23.2602L16.6608 23.2465L16.6471 23.2328L16.6333 23.2191L16.6195 23.2052L16.6056 23.1913L16.5916 23.1774L16.5775 23.1633L16.5634 23.1492L16.5492 23.135L16.535 23.1208L16.5207 23.1064L16.5063 23.0921L16.4918 23.0776L16.4773 23.0631L16.4627 23.0485L16.448 23.0338L16.4333 23.0191L16.4185 23.0043L16.4037 22.9895L16.3887 22.9745L16.3738 22.9595L16.3587 22.9445L16.3436 22.9294L16.3284 22.9142L16.3132 22.899L16.2979 22.8837L16.2825 22.8683L16.2671 22.8529L16.2516 22.8374L16.236 22.8218L16.2204 22.8062L16.2047 22.7905L16.189 22.7748L16.1732 22.759L16.1573 22.7431L16.1414 22.7272L16.1255 22.7112L16.1094 22.6952L16.0933 22.6791L16.0772 22.663L16.061 22.6468L16.0447 22.6305L16.0284 22.6142L16.012 22.5978L15.9956 22.5814L15.9791 22.5649L15.9625 22.5483L15.9459 22.5317L15.9293 22.5151L15.9126 22.4984L15.8958 22.4816L15.879 22.4648L15.8621 22.4479L15.8452 22.431L15.8282 22.414L15.8112 22.397L15.7941 22.3799L15.777 22.3627L15.7598 22.3456L15.7425 22.3283L15.7253 22.311L15.7079 22.2937L15.6905 22.2763L15.6731 22.2589L15.6556 22.2414L15.6381 22.2239L15.6205 22.2063L15.6029 22.1886L15.5852 22.171L15.5675 22.1532L15.5497 22.1355L15.5319 22.1177L15.514 22.0998L15.4961 22.0819L15.4781 22.0639L15.4601 22.0459L15.4421 22.0279L15.424 22.0098L15.4059 21.9916L15.3877 21.9735L15.3695 21.9552L15.3512 21.937L15.3329 21.9187L15.3145 21.9003L15.2961 21.8819L15.2777 21.8635L15.2592 21.845L15.2407 21.8265L15.2222 21.8079L15.2036 21.7893L15.1849 21.7707L15.1662 21.752L15.1475 21.7333L15.1288 21.7146L15.11 21.6958L15.0912 21.6769L15.0723 21.6581L15.0534 21.6392L15.0344 21.6202L15.0155 21.6012L14.9964 21.5822L14.9774 21.5632L14.9583 21.5441L14.9392 21.525L14.92 21.5058L14.9008 21.4866L14.8816 21.4674L14.8623 21.4481L14.8431 21.4288L14.8237 21.4095L14.8044 21.3902L14.785 21.3708L14.7656 21.3513L14.7461 21.3319L14.7266 21.3124L14.7071 21.2929L14.6876 21.2733L14.668 21.2538L14.6484 21.2342L14.6287 21.2145L14.6091 21.1949L14.5894 21.1752L14.5697 21.1554L14.5499 21.1357L14.5301 21.1159L14.5103 21.0961L14.4905 21.0763L14.4706 21.0564L14.4508 21.0365L14.4308 21.0166L14.4142 21L14.4308 20.9834L14.4508 20.9635L14.4706 20.9436L14.4905 20.9237L14.5103 20.9039L14.5301 20.8841L14.5499 20.8643L14.5697 20.8446L14.5894 20.8248L14.6091 20.8051L14.6287 20.7855L14.6484 20.7658L14.668 20.7462L14.6876 20.7267L14.7071 20.7071L14.7266 20.6876L14.7461 20.6681L14.7656 20.6487L14.785 20.6292L14.8044 20.6098L14.8237 20.5905L14.8431 20.5712L14.8623 20.5519L14.8816 20.5326L14.9008 20.5134L14.92 20.4942L14.9392 20.475L14.9583 20.4559L14.9774 20.4368L14.9964 20.4178L15.0155 20.3988L15.0344 20.3798L15.0534 20.3608L15.0723 20.3419L15.0912 20.3231L15.11 20.3042L15.1288 20.2854L15.1475 20.2667L15.1662 20.248L15.1849 20.2293L15.2036 20.2107L15.2222 20.1921L15.2407 20.1735L15.2592 20.155L15.2777 20.1365L15.2961 20.1181L15.3145 20.0997L15.3329 20.0813L15.3512 20.063L15.3695 20.0448L15.3877 20.0265L15.4059 20.0084L15.424 19.9902L15.4421 19.9721L15.4601 19.9541L15.4781 19.9361L15.4961 19.9181L15.514 19.9002L15.5319 19.8823L15.5497 19.8645L15.5675 19.8468L15.5852 19.829L15.6029 19.8114L15.6205 19.7937L15.6381 19.7761L15.6556 19.7586L15.6731 19.7411L15.6905 19.7237L15.7079 19.7063L15.7253 19.689L15.7425 19.6717L15.7598 19.6544L15.777 19.6373L15.7941 19.6201L15.8112 19.603L15.8282 19.586L15.8452 19.569L15.8621 19.5521L15.879 19.5352L15.8958 19.5184L15.9126 19.5016L15.9293 19.4849L15.9459 19.4683L15.9625 19.4517L15.9791 19.4351L15.9956 19.4186L16.012 19.4022L16.0284 19.3858L16.0447 19.3695L16.061 19.3532L16.0772 19.337L16.0933 19.3209L16.1094 19.3048L16.1255 19.2888L16.1414 19.2728L16.1573 19.2569L16.1732 19.241L16.189 19.2252L16.2047 19.2095L16.2204 19.1938L16.236 19.1782L16.2516 19.1626L16.2671 19.1471L16.2825 19.1317L16.2979 19.1163L16.3132 19.101L16.3284 19.0858L16.3436 19.0706L16.3587 19.0555L16.3738 19.0405L16.3887 19.0255L16.4037 19.0105L16.4185 18.9957L16.4333 18.9809L16.448 18.9662L16.4627 18.9515L16.4773 18.9369L16.4918 18.9224L16.5063 18.9079L16.5207 18.8936L16.535 18.8792L16.5492 18.865L16.5634 18.8508L16.5775 18.8367L16.5916 18.8226L16.6056 18.8087L16.6195 18.7948L16.6333 18.7809L16.6471 18.7672L16.6608 18.7535L16.6744 18.7398L16.6879 18.7263L16.7014 18.7128L16.7148 18.6994L16.7281 18.6861L16.7414 18.6728L16.7546 18.6596L16.7677 18.6465L16.7807 18.6335L16.7937 18.6205L16.8066 18.6076L16.8194 18.5948L16.8321 18.5821L16.8448 18.5694L16.8573 18.5569L16.8698 18.5444L16.8823 18.5319L16.8946 18.5196L16.9069 18.5073L16.9191 18.4951L16.9312 18.483L16.9432 18.471L16.9552 18.459L16.9671 18.4472L16.9789 18.4354L16.9906 18.4236L17.0022 18.412L17.0138 18.4005L17.0252 18.389L17.0366 18.3776L17.0479 18.3663L17.0591 18.3551L17.0703 18.3439L17.0813 18.3329L17.0923 18.3219L17.1032 18.311L17.114 18.3002L17.1247 18.2895L17.1354 18.2789L17.1459 18.2683L17.1564 18.2579L17.1667 18.2475L17.177 18.2372L17.1872 18.227L17.1973 18.2169L17.2074 18.2068L17.2173 18.1969L17.2272 18.1871L17.2369 18.1773L17.2466 18.1676L17.2562 18.158L17.2657 18.1485L17.2751 18.1391L17.2844 18.1298L17.2936 18.1206L17.3027 18.1115L17.3118 18.1024L17.3207 18.0935L17.3296 18.0846L17.3383 18.0759L17.347 18.0672L17.3556 18.0586L17.3641 18.0502L17.3724 18.0418L17.3807 18.0335L17.3889 18.0253L17.397 18.0172L17.405 18.0092L17.4129 18.0013L17.4208 17.9935L17.4285 17.9857L17.4361 17.9781L17.4436 17.9706L17.451 17.9632L17.4584 17.9558L17.4656 17.9486L17.4727 17.9415L17.4798 17.9345L17.4867 17.9275L17.4935 17.9207L17.5003 17.914L17.5069 17.9073L17.5134 17.9008L17.5198 17.8944L17.5262 17.888L17.5324 17.8818L17.5385 17.8757L17.5445 17.8697L17.5504 17.8638L17.5563 17.858L17.562 17.8522L17.5676 17.8466L17.5731 17.8411L17.5785 17.8357L17.5838 17.8305L17.5889 17.8253L17.594 17.8202L17.599 17.8152L17.6039 17.8104L17.6086 17.8056L17.6133 17.8009L17.6178 17.7964L17.6222 17.792L17.6266 17.7876L17.6308 17.7834L17.6349 17.7793L17.6389 17.7753L17.6428 17.7714L17.6466 17.7677L17.6502 17.764L17.6538 17.7604L17.6572 17.757L17.6606 17.7536L17.6638 17.7504L17.6669 17.7473L17.6699 17.7443L17.6728 17.7414L17.6755 17.7387L17.6782 17.736L17.6807 17.7335L17.6832 17.731L17.6855 17.7287L17.6877 17.7265L17.6898 17.7245L17.6917 17.7225L17.6936 17.7206L17.6953 17.7189L17.6969 17.7173L17.6984 17.7158L17.6998 17.7144L17.7011 17.7132L17.7022 17.712L17.7032 17.711L17.7041 17.7101L17.7049 17.7093L17.7056 17.7086L17.7061 17.7081L17.7066 17.7077L17.7069 17.7074L17.707 17.7072L17 17L17.7071 17.7071C18.0976 17.3166 18.0976 16.6834 17.7071 16.2929C17.3166 15.9024 16.6834 15.9024 16.2929 16.2929L17 17L16.2928 16.293L16.2927 16.2931L16.2923 16.2934L16.2919 16.2939L16.2914 16.2944L16.2907 16.2951L16.2899 16.2959L16.289 16.2968L16.288 16.2978L16.2868 16.2989L16.2856 16.3002L16.2842 16.3016L16.2827 16.3031L16.2811 16.3047L16.2794 16.3064L16.2775 16.3083L16.2755 16.3102L16.2735 16.3123L16.2713 16.3145L16.269 16.3168L16.2665 16.3193L16.264 16.3218L16.2613 16.3245L16.2586 16.3272L16.2557 16.3301L16.2527 16.3331L16.2496 16.3362L16.2464 16.3394L16.243 16.3428L16.2396 16.3462L16.236 16.3498L16.2323 16.3534L16.2286 16.3572L16.2247 16.3611L16.2207 16.3651L16.2166 16.3692L16.2124 16.3734L16.208 16.3778L16.2036 16.3822L16.1991 16.3867L16.1944 16.3914L16.1896 16.3961L16.1848 16.401L16.1798 16.406L16.1747 16.4111L16.1695 16.4162L16.1643 16.4215L16.1589 16.4269L16.1534 16.4324L16.1478 16.438L16.142 16.4437L16.1362 16.4496L16.1303 16.4555L16.1243 16.4615L16.1182 16.4676L16.112 16.4738L16.1056 16.4802L16.0992 16.4866L16.0927 16.4931L16.086 16.4997L16.0793 16.5065L16.0725 16.5133L16.0655 16.5202L16.0585 16.5273L16.0514 16.5344L16.0442 16.5416L16.0368 16.549L16.0294 16.5564L16.0219 16.5639L16.0143 16.5715L16.0065 16.5792L15.9987 16.5871L15.9908 16.595L15.9828 16.603L15.9747 16.6111L15.9665 16.6193L15.9582 16.6276L15.9498 16.6359L15.9414 16.6444L15.9328 16.653L15.9241 16.6617L15.9154 16.6704L15.9065 16.6793L15.8976 16.6882L15.8885 16.6973L15.8794 16.7064L15.8702 16.7156L15.8609 16.7249L15.8515 16.7343L15.842 16.7438L15.8324 16.7534L15.8227 16.7631L15.8129 16.7728L15.8031 16.7827L15.7932 16.7926L15.7831 16.8027L15.773 16.8128L15.7628 16.823L15.7525 16.8333L15.7421 16.8436L15.7317 16.8541L15.7211 16.8647L15.7105 16.8753L15.6998 16.886L15.689 16.8968L15.6781 16.9077L15.6671 16.9187L15.6561 16.9297L15.6449 16.9409L15.6337 16.9521L15.6224 16.9634L15.611 16.9748L15.5995 16.9862L15.588 16.9978L15.5764 17.0094L15.5646 17.0211L15.5528 17.0329L15.541 17.0448L15.529 17.0568L15.517 17.0688L15.5049 17.0809L15.4927 17.0931L15.4804 17.1054L15.4681 17.1177L15.4556 17.1302L15.4431 17.1427L15.4306 17.1552L15.4179 17.1679L15.4052 17.1806L15.3924 17.1934L15.3795 17.2063L15.3665 17.2193L15.3535 17.2323L15.3404 17.2454L15.3272 17.2586L15.3139 17.2719L15.3006 17.2852L15.2872 17.2986L15.2737 17.3121L15.2602 17.3256L15.2465 17.3392L15.2328 17.3529L15.2191 17.3667L15.2052 17.3805L15.1913 17.3944L15.1774 17.4084L15.1633 17.4225L15.1492 17.4366L15.135 17.4508L15.1208 17.465L15.1064 17.4793L15.0921 17.4937L15.0776 17.5082L15.0631 17.5227L15.0485 17.5373L15.0338 17.552L15.0191 17.5667L15.0043 17.5815L14.9895 17.5963L14.9745 17.6113L14.9595 17.6262L14.9445 17.6413L14.9294 17.6564L14.9142 17.6716L14.899 17.6868L14.8837 17.7021L14.8683 17.7175L14.8529 17.7329L14.8374 17.7484L14.8218 17.764L14.8062 17.7796L14.7905 17.7953L14.7748 17.811L14.759 17.8268L14.7431 17.8427L14.7272 17.8586L14.7112 17.8745L14.6952 17.8906L14.6791 17.9067L14.663 17.9228L14.6468 17.939L14.6305 17.9553L14.6142 17.9716L14.5978 17.988L14.5814 18.0044L14.5649 18.0209L14.5483 18.0375L14.5317 18.0541L14.5151 18.0707L14.4984 18.0874L14.4816 18.1042L14.4648 18.121L14.4479 18.1379L14.431 18.1548L14.414 18.1718L14.397 18.1888L14.3799 18.2059L14.3627 18.223L14.3456 18.2402L14.3283 18.2575L14.311 18.2747L14.2937 18.2921L14.2763 18.3095L14.2589 18.3269L14.2414 18.3444L14.2239 18.3619L14.2063 18.3795L14.1886 18.3971L14.171 18.4148L14.1532 18.4325L14.1355 18.4503L14.1177 18.4681L14.0998 18.486L14.0819 18.5039L14.0639 18.5219L14.0459 18.5399L14.0279 18.5579L14.0098 18.576L13.9916 18.5941L13.9735 18.6123L13.9552 18.6305L13.937 18.6488L13.9187 18.6671L13.9003 18.6855L13.8819 18.7039L13.8635 18.7223L13.845 18.7408L13.8265 18.7593L13.8079 18.7778L13.7893 18.7964L13.7707 18.8151L13.752 18.8338L13.7333 18.8525L13.7146 18.8712L13.6958 18.89L13.6769 18.9088L13.6581 18.9277L13.6392 18.9466L13.6202 18.9656L13.6012 18.9845L13.5822 19.0036L13.5632 19.0226L13.5441 19.0417L13.525 19.0608L13.5058 19.08L13.4866 19.0992L13.4674 19.1184L13.4481 19.1377L13.4288 19.1569L13.4095 19.1763L13.3902 19.1956L13.3708 19.215L13.3513 19.2344L13.3319 19.2539L13.3124 19.2734L13.2929 19.2929L13.2733 19.3124L13.2538 19.332L13.2342 19.3516L13.2145 19.3713L13.1949 19.3909L13.1752 19.4106L13.1554 19.4303L13.1357 19.4501L13.1159 19.4699L13.0961 19.4897L13.0763 19.5095L13.0564 19.5294L13.0365 19.5492L13.0166 19.5692L13 19.5858L12.9941 19.5799L12.9733 19.5591L12.9525 19.5383L12.9316 19.5174L12.9108 19.4966L12.89 19.4758L12.8692 19.4549L12.8483 19.4341L12.8275 19.4133L12.8067 19.3925L12.7858 19.3716L12.765 19.3508L12.7442 19.33L12.7234 19.3092L12.7026 19.2884L12.6818 19.2676L12.661 19.2468L12.6402 19.226L12.6194 19.2052L12.5986 19.1844L12.5779 19.1637L12.5571 19.1429L12.5363 19.1221L12.5156 19.1014L12.4948 19.0806L12.4741 19.0599L12.4534 19.0392L12.4327 19.0184L12.4119 18.9977L12.3912 18.977L12.3705 18.9563L12.3499 18.9357L12.3292 18.915L12.3085 18.8943L12.2879 18.8737L12.2673 18.853L12.2466 18.8324L12.226 18.8118L12.2054 18.7912L12.1848 18.7706L12.1643 18.75L12.1437 18.7295L12.1232 18.7089L12.1026 18.6884L12.0821 18.6679L12.0616 18.6474L12.0411 18.6269L12.0207 18.6064L12.0002 18.586L11.9798 18.5656L11.9593 18.5451L11.9389 18.5247L11.9186 18.5043L11.8982 18.484L11.8779 18.4636L11.8575 18.4433L11.8372 18.423L11.8169 18.4027L11.7967 18.3824L11.7764 18.3622L11.7562 18.342L11.736 18.3218L11.7158 18.3016L11.6956 18.2814L11.6755 18.2613L11.6554 18.2411L11.6353 18.221L11.6152 18.201L11.5951 18.1809L11.5751 18.1609L11.5551 18.1409L11.5351 18.1209L11.5152 18.101L11.4953 18.081L11.4753 18.0611L11.4555 18.0413L11.4356 18.0214L11.4158 18.0016L11.396 17.9818L11.3762 17.962L11.3565 17.9423L11.3368 17.9226L11.3171 17.9029L11.2974 17.8832L11.2778 17.8636L11.2582 17.844L11.2387 17.8244L11.2191 17.8049L11.1996 17.7854L11.1801 17.7659L11.1607 17.7465L11.1413 17.7271L11.1219 17.7077L11.1026 17.6883L11.0832 17.669L11.064 17.6497L11.0447 17.6305L11.0255 17.6113L11.0063 17.5921L10.9872 17.573L10.9681 17.5538L10.949 17.5348L10.9299 17.5157L10.9109 17.4967L10.892 17.4778L10.873 17.4588L10.8542 17.4399L10.8353 17.4211L10.8165 17.4023L10.7977 17.3835L10.779 17.3647L10.7603 17.346L10.7416 17.3274L10.723 17.3088L10.7044 17.2902L10.6858 17.2716L10.6673 17.2531L10.6489 17.2347L10.6305 17.2162L10.6121 17.1979L10.5937 17.1795L10.5755 17.1612L10.5572 17.143L10.539 17.1248L10.5208 17.1066L10.5027 17.0885L10.4846 17.0704L10.4666 17.0524L10.4486 17.0344L10.4307 17.0165L10.4128 16.9986L10.3949 16.9807L10.3771 16.9629L10.3594 16.9451L10.3417 16.9274L10.324 16.9098L10.3064 16.8922L10.2888 16.8746L10.2713 16.8571L10.2538 16.8396L10.2364 16.8222L10.219 16.8048L10.2017 16.7875L10.1844 16.7702L10.1672 16.753L10.1501 16.7358L10.1329 16.7187L10.1159 16.7017L10.0989 16.6846L10.0819 16.6677L10.065 16.6508L10.0481 16.6339L10.0313 16.6171L10.0146 16.6004L9.9979 16.5837L9.98126 16.567L9.96468 16.5505L9.94815 16.5339L9.93167 16.5175L9.91526 16.501L9.8989 16.4847L9.8826 16.4684L9.86635 16.4521L9.85016 16.4359L9.83403 16.4198L9.81796 16.4037L9.80194 16.3877L9.78599 16.3718L9.77009 16.3559L9.75425 16.34L9.73848 16.3243L9.72276 16.3085Z" fill="#F4675A"/>
</svg>
