<svg width="36" height="36" viewBox="0 0 36 36" fill="none" xmlns="http://www.w3.org/2000/svg">
<path fill-rule="evenodd" clip-rule="evenodd" d="M17.8293 25C17.9398 24.6872 18 24.3506 18 24C18 23.6494 17.9398 23.3128 17.8293 23H26C26.5523 23 27 23.4477 27 24C27 24.5523 26.5523 25 26 25H17.8293ZM12.1707 25H10C9.44772 25 9 24.5523 9 24C9 23.4477 9.44772 23 10 23H12.1707C12.0602 23.3128 12 23.6494 12 24C12 24.3506 12.0602 24.6872 12.1707 25Z" fill="#EA990B"/>
<path fill-rule="evenodd" clip-rule="evenodd" d="M23.8293 19C23.9398 18.6872 24 18.3506 24 18C24 17.6494 23.9398 17.3128 23.8293 17H26C26.5523 17 27 17.4477 27 18C27 18.5523 26.5523 19 26 19H23.8293ZM18.1707 19H10C9.44772 19 9 18.5523 9 18C9 17.4477 9.44772 17 10 17H18.1707C18.0602 17.3128 18 17.6494 18 18C18 18.3506 18.0602 18.6872 18.1707 19Z" fill="#66B7AF"/>
<path fill-rule="evenodd" clip-rule="evenodd" d="M17.8293 13C17.9398 12.6872 18 12.3506 18 12C18 11.6494 17.9398 11.3128 17.8293 11H26C26.5523 11 27 11.4477 27 12C27 12.5523 26.5523 13 26 13H17.8293ZM12.1707 13H10C9.44772 13 9 12.5523 9 12C9 11.4477 9.44772 11 10 11H12.1707C12.0602 11.3128 12 11.6494 12 12C12 12.3506 12.0602 12.6872 12.1707 13Z" fill="#F4675A"/>
<circle cx="15" cy="12" r="2" fill="#636C8B"/>
<circle cx="21" cy="18" r="2" fill="#636C8B"/>
<circle cx="15" cy="24" r="2" fill="#636C8B"/>
</svg>
