<svg width="24" height="24" viewBox="0 0 24 24" fill="none" xmlns="http://www.w3.org/2000/svg">
<path class="glyph-fill" fill-rule="evenodd" clip-rule="evenodd" d="M4 3C2.89543 3 2 3.89543 2 5V17C2 18.1046 2.89543 19 4 19H7V21C7 21.3788 7.214 21.725 7.55279 21.8944C7.89157 22.0638 8.29698 22.0273 8.6 21.8L12.3333 19H20C21.1046 19 22 18.1046 22 17V5C22 3.89543 21.1046 3 20 3H4ZM4 5L20 5V17H12C11.7836 17 11.5731 17.0702 11.4 17.2L9 19V18C9 17.4477 8.55228 17 8 17H4V5ZM14.9589 12.4979C14.7217 13.9178 13.4872 15 12 15C10.5128 15 9.2783 13.9178 9.04113 12.4979C8.99563 12.2255 9.22386 12 9.5 12H14.5C14.7761 12 15.0044 12.2255 14.9589 12.4979ZM8 9C8 8.44772 8.44772 8 9 8C9.55228 8 10 8.44772 10 9C10 9.55228 9.55228 10 9 10C8.44772 10 8 9.55228 8 9ZM15 8C14.4477 8 14 8.44772 14 9C14 9.55228 14.4477 10 15 10C15.5523 10 16 9.55228 16 9C16 8.44772 15.5523 8 15 8Z" fill="#333333"/>
</svg>
