<svg width="90" height="28" viewBox="0 0 90 28" fill="none" xmlns="http://www.w3.org/2000/svg">
<path d="M65.9798 12.0961C63.1867 12.0961 61.5295 14.6996 60.904 16.0086C60.8141 16.1951 61.0154 16.3852 61.1916 16.2828C62.3275 15.6283 63.5677 14.6667 65.5305 14.6667C67.6478 14.6667 68.9887 16.3011 71.3576 16.3011C74.5893 16.3011 75.7468 13.7196 76.2357 12.3777C76.304 12.1876 76.0991 12.0194 75.9302 12.1254C74.8625 12.8165 73.6619 13.8988 71.8321 13.8988C69.9089 13.8951 68.3955 12.0961 65.9798 12.0961Z" fill="white"/>
<path d="M35.7982 0.0186738C35.64 -0.0434863 35.4711 0.0954598 35.4243 0.260001C34.788 2.56724 30.4168 18.5753 30.1616 19.8149C29.9387 20.9008 30.8482 22.6669 32.1639 22.9704C32.3616 23.0143 32.4946 22.9887 32.5521 22.7949C32.6024 22.6267 32.7534 22.1587 32.89 21.6833C33.9828 17.8477 37.6783 5.73375 38.0269 4.49786C38.372 3.26197 36.6106 0.333131 35.7982 0.0186738Z" fill="white"/>
<path d="M48.6209 0.0186738C48.4628 -0.0434863 48.2938 0.0954598 48.2471 0.260001C47.8804 1.59096 46.2664 7.49617 44.9183 12.4873C44.6451 11.5951 43.9801 10.4323 42.8657 10.202C41.4242 9.90214 38.7964 11.1673 37.4124 13.9608C36.3447 16.1145 35.7336 18.9812 36.6575 21.1019C37.4268 22.8607 38.8647 23.2483 39.7742 22.8095C40.8742 22.2793 42.1072 20.8899 43.0023 19.7198C42.9951 19.7564 42.9879 19.7893 42.9807 19.8149C42.7578 20.9008 43.6673 22.6669 44.983 22.9704C45.1807 23.0143 45.3137 22.9887 45.3712 22.7949C45.4216 22.6267 45.5726 22.1587 45.7092 21.6833C46.802 17.8477 50.4974 5.73375 50.8461 4.49786C51.1948 3.26197 49.4369 0.333131 48.6209 0.0186738ZM40.1444 20.6741C39.6879 20.7948 39.1774 20.7253 39.1019 19.9794C39.0013 18.9775 39.4902 15.9646 40.6693 14.246C41.7657 12.6482 43.5415 11.734 44.7314 13.182C44.3036 14.7726 43.9082 16.2388 43.6062 17.3906C42.7722 18.5058 41.2408 20.3853 40.1444 20.6741Z" fill="white"/>
<path d="M27.0054 8.54204C26.9515 8.30803 26.628 8.25684 26.2469 8.19834C25.7832 8.12886 24.8486 7.89485 23.7306 7.5877C24.2087 6.00079 24.5574 4.83437 24.6544 4.49432C24.9995 3.25843 23.2417 0.329591 22.4257 0.0151338C22.2675 -0.0470264 22.0985 0.09192 22.0518 0.256462C21.8253 1.07551 21.1316 3.61311 20.3155 6.60777C18.6116 6.10683 17.0694 5.63514 16.4727 5.45963C15.4554 5.1598 12.6011 5.67902 13.0469 9.12342C13.1008 9.55123 13.4459 9.55123 13.6796 9.46348C13.9132 9.37572 14.3626 8.90404 15.5848 8.60786C16.3792 8.41407 18.0077 8.54204 19.7332 8.75412C18.3815 13.7342 16.9328 19.1129 16.7891 19.8113C16.5662 20.8973 17.4757 22.6634 18.7913 22.9669C18.9891 23.0107 19.1221 22.9851 19.1796 22.7913C19.2299 22.6231 19.3809 22.1551 19.5175 21.6798C20.2113 19.2409 21.9584 13.46 23.2273 9.2514C24.3561 9.41594 25.2512 9.54026 25.5999 9.52198C26.7394 9.46713 27.0809 8.87478 27.0054 8.54204Z" fill="white"/>
<path d="M27.3511 10.3595C27.2504 10.3486 27.1246 10.4107 27.0994 10.5021C26.305 13.186 24.6334 19.1058 24.4537 19.8481C24.2056 20.8756 25.0971 22.978 26.3517 23C26.5063 23.0036 26.5926 22.8757 26.6069 22.7184C26.6213 22.5722 26.6285 22.2541 26.6896 21.9835C27.0707 20.2832 29.073 14.261 29.2599 13.3908C29.5475 12.0342 28.2857 10.4802 27.3511 10.3595Z" fill="white"/>
<path d="M28.7495 5.58404C28.3289 6.08863 28.0198 7.15267 28.0305 7.96806C28.0449 8.83099 28.7783 9.77436 29.1629 9.9901C29.5583 10.2131 29.7309 10.1217 29.9717 9.88771C30.5721 9.3173 31.1041 7.62435 30.7374 6.70658C30.4714 6.04841 30.0149 5.64985 29.7021 5.51091C29.3678 5.36465 28.9508 5.34271 28.7495 5.58404Z" fill="white"/>
<path d="M57.5933 18.2208C56.3028 19.6066 53.4377 21.7566 51.8057 21.0655C51.1227 20.7766 51.2341 19.4749 51.4426 19.314C52.7691 18.6705 55.9325 17.1933 56.824 16.6009C57.7407 15.994 58.8946 15.3139 58.3266 13.2297C58.0678 12.279 57.4171 9.8657 54.8001 10.246C52.4635 10.586 50.49 12.6227 49.5913 14.9153C48.3115 18.1842 48.2289 21.9942 50.9789 22.8572C53.1178 23.53 55.7635 21.4714 56.5005 20.6669C57.1547 19.9503 57.7263 19.1056 57.9024 18.3963C57.9492 18.2098 57.7227 18.0781 57.5933 18.2208ZM55.706 12.6373C56.0727 12.5386 56.2992 12.6117 56.3459 13.0724C56.4034 13.6465 56.274 14.6667 55.7348 15.2151C54.9655 15.9976 52.3808 17.3688 51.9782 17.5151C52.5642 15.014 54.1639 13.0578 55.706 12.6373Z" fill="white"/>
</svg>
