<svg width="48" height="48" viewBox="0 0 48 48" fill="none" xmlns="http://www.w3.org/2000/svg">
<path d="M0 6C0 2.68629 2.68629 0 6 0H42C45.3137 0 48 2.68629 48 6V42C48 45.3137 45.3137 48 42 48H6C2.68629 48 0 45.3137 0 42V6Z" fill="#BBC0D3"/>
<path opacity="0.8" fill-rule="evenodd" clip-rule="evenodd" d="M16 9C16 6.79086 17.7909 5 20 5H20.5C22.433 5 24 6.567 24 8.5C24 10.433 25.567 12 27.5 12H28C30.2091 12 32 13.7909 32 16C32 18.2091 30.2091 20 28 20H24V17C24 14.7909 22.2091 13 20 13C17.7909 13 16 11.2091 16 9ZM24 35V32C24 29.7909 22.2091 28 20 28C17.7909 28 16 26.2091 16 24C16 21.7909 17.7909 20 20 20H24V23C24 25.2091 25.7909 27 28 27C30.2091 27 32 28.7909 32 31C32 33.2091 30.2091 35 28 35H24ZM24 35V39C24 41.2091 22.2091 43 20 43C17.7909 43 16 41.2091 16 39C16 36.7909 17.7909 35 20 35H24Z" fill="#F4F5F8"/>
</svg>
