<svg width="48" height="48" viewBox="0 0 48 48" fill="none" xmlns="http://www.w3.org/2000/svg">
<path d="M0 6C0 2.68629 2.68629 0 6 0H42C45.3137 0 48 2.68629 48 6V42C48 45.3137 45.3137 48 42 48H6C2.68629 48 0 45.3137 0 42V6Z" fill="#FEBEB9"/>
<path fill-rule="evenodd" clip-rule="evenodd" d="M25 10H23C21.8954 10 21 10.8954 21 12L21 36C21 37.1046 21.8954 38 23 38H25C26.1046 38 27 37.1046 27 36V12C27 10.8954 26.1046 10 25 10ZM15 14L13 14C11.8954 14 11 14.8954 11 16V32C11 33.1046 11.8954 34 13 34H15C16.1046 34 17 33.1046 17 32L17 16C17 14.8954 16.1046 14 15 14ZM33 14L35 14C36.1046 14 37 14.8954 37 16V32C37 33.1046 36.1046 34 35 34H33C31.8954 34 31 33.1046 31 32V16C31 14.8954 31.8954 14 33 14Z" fill="#FBE4E2"/>
</svg>
