<svg width="48" height="48" viewBox="0 0 48 48" fill="none" xmlns="http://www.w3.org/2000/svg">
<path d="M0 6C0 2.68629 2.68629 0 6 0H42C45.3137 0 48 2.68629 48 6V42C48 45.3137 45.3137 48 42 48H6C2.68629 48 0 45.3137 0 42V6Z" fill="#9FD1CA"/>
<path d="M18 15V13C18 11.8954 17.1046 11 16 11H10C8.89543 11 8 11.8954 8 13V15C8 16.1046 8.89543 17 10 17H16C17.1046 17 18 16.1046 18 15Z" fill="#DAF4F1"/>
<path d="M18 25V23C18 21.8954 17.1046 21 16 21H10C8.89543 21 8 21.8954 8 23V25C8 26.1046 8.89543 27 10 27H16C17.1046 27 18 26.1046 18 25Z" fill="#DAF4F1"/>
<path d="M18 35V33C18 31.8954 17.1046 31 16 31H10C8.89543 31 8 31.8954 8 33V35C8 36.1046 8.89543 37 10 37H16C17.1046 37 18 36.1046 18 35Z" fill="#DAF4F1"/>
<path d="M40 15V13C40 11.8954 39.1046 11 38 11H24C22.8954 11 22 11.8954 22 13V15C22 16.1046 22.8954 17 24 17H38C39.1046 17 40 16.1046 40 15Z" fill="#DAF4F1"/>
<path d="M40 25V23C40 21.8954 39.1046 21 38 21H24C22.8954 21 22 21.8954 22 23V25C22 26.1046 22.8954 27 24 27H38C39.1046 27 40 26.1046 40 25Z" fill="#DAF4F1"/>
<path d="M40 35V33C40 31.8954 39.1046 31 38 31H24C22.8954 31 22 31.8954 22 33V35C22 36.1046 22.8954 37 24 37H38C39.1046 37 40 36.1046 40 35Z" fill="#DAF4F1"/>
</svg>
