<svg width="100" height="32" viewBox="0 0 100 32" fill="none" xmlns="http://www.w3.org/2000/svg">
<g clip-path="url(#clip0)">
<path d="M73.7111 16.8295C69.8249 16.8295 67.5192 20.4517 66.649 22.2729C66.5239 22.5324 66.804 22.7969 67.0491 22.6545C68.6296 21.7438 70.3551 20.4059 73.0859 20.4059C76.0317 20.4059 77.8973 22.6799 81.1933 22.6799C85.6896 22.6799 87.3001 19.0883 87.9803 17.2212C88.0753 16.9567 87.7902 16.7227 87.5551 16.8702C86.0697 17.8317 84.3992 19.3375 81.8535 19.3375C79.1777 19.3325 77.0721 16.8295 73.7111 16.8295Z" fill="white"/>
<path d="M31.7182 0.0260607C31.4981 -0.0604236 31.2631 0.132894 31.1981 0.361823C30.3128 3.57192 24.231 25.8442 23.8759 27.5688C23.5658 29.0797 24.8312 31.5369 26.6617 31.9591C26.9368 32.0202 27.1218 31.9846 27.2019 31.7149C27.2719 31.4809 27.482 30.8298 27.672 30.1684C29.1925 24.8318 34.334 7.97754 34.8191 6.25802C35.2993 4.53851 32.8485 0.46357 31.7182 0.0260607Z" fill="white"/>
<path d="M49.5595 0.0260607C49.3395 -0.0604236 49.1044 0.132894 49.0394 0.361823C48.5292 2.21361 46.2836 10.4296 44.408 17.3738C44.0279 16.1325 43.1026 14.5147 41.5522 14.1942C39.5466 13.7771 35.8905 15.5373 33.9649 19.424C32.4795 22.4204 31.6292 26.4089 32.9146 29.3595C33.9849 31.8065 35.9855 32.3458 37.2509 31.7353C38.7813 30.9976 40.4968 29.0645 41.7422 27.4365C41.7322 27.4874 41.7222 27.5332 41.7122 27.5688C41.4021 29.0797 42.6675 31.5369 44.498 31.9591C44.7731 32.0202 44.9582 31.9846 45.0382 31.7149C45.1082 31.4809 45.3183 30.8298 45.5083 30.1684C47.0288 24.8318 52.1703 7.97754 52.6554 6.25802C53.1406 4.53851 50.6949 0.46357 49.5595 0.0260607ZM37.766 28.7643C37.1308 28.9322 36.4206 28.8355 36.3156 27.7977C36.1756 26.4038 36.8558 22.2118 38.4962 19.8208C40.0217 17.5976 42.4924 16.3258 44.1479 18.3404C43.5527 20.5534 43.0026 22.5934 42.5825 24.1959C41.4221 25.7475 39.2915 28.3624 37.766 28.7643Z" fill="white"/>
<path d="M19.486 11.8847C19.4109 11.5591 18.9608 11.4879 18.4307 11.4065C17.7855 11.3098 16.4851 10.9842 14.9296 10.5569C15.5948 8.34899 16.08 6.72614 16.215 6.25302C16.6951 4.5335 14.2494 0.458565 13.1141 0.0210558C12.894 -0.0654285 12.6589 0.12789 12.5939 0.356819C12.2788 1.49638 11.3136 5.02697 10.1782 9.19349C7.80751 8.49652 5.66188 7.84026 4.83163 7.59607C3.41622 7.17891 -0.554958 7.90131 0.0652253 12.6936C0.140247 13.2888 0.62039 13.2888 0.945486 13.1667C1.27058 13.0446 1.89577 12.3883 3.59627 11.9762C4.7016 11.7066 6.96727 11.8847 9.36798 12.1797C7.48742 19.1087 5.47182 26.5921 5.27176 27.5638C4.96167 29.0747 6.22705 31.5319 8.05759 31.9541C8.33267 32.0152 8.51772 31.9796 8.59775 31.7099C8.66777 31.4759 8.87783 30.8247 9.06789 30.1634C10.0332 26.7702 12.4639 18.7271 14.2294 12.8716C15.7999 13.1005 17.0452 13.2735 17.5304 13.2481C19.1159 13.1718 19.591 12.3476 19.486 11.8847Z" fill="white"/>
<path d="M19.966 14.4131C19.8259 14.3979 19.6509 14.4843 19.6159 14.6115C18.5105 18.3456 16.1848 26.582 15.9348 27.6147C15.5897 29.0442 16.83 31.9694 18.5755 32C18.7906 32.0051 18.9106 31.827 18.9307 31.6082C18.9507 31.4048 18.9607 30.9622 19.0457 30.5857C19.5758 28.2201 22.3617 19.8413 22.6217 18.6305C23.0219 16.7431 21.2663 14.581 19.966 14.4131Z" fill="white"/>
<path d="M21.9108 7.769C21.3257 8.47105 20.8955 9.95146 20.9105 11.0859C20.9305 12.2865 21.9508 13.5991 22.486 13.8992C23.0362 14.2095 23.2762 14.0824 23.6113 13.7568C24.4466 12.9631 25.1868 10.6077 24.6767 9.3308C24.3065 8.41509 23.6714 7.86057 23.2362 7.66725C22.7711 7.46376 22.1909 7.43323 21.9108 7.769Z" fill="white"/>
<path d="M62.0427 25.3508C60.2472 27.2789 56.261 30.2703 53.9903 29.3088C53.04 28.9069 53.1951 27.0958 53.4852 26.8719C55.3307 25.9766 59.732 23.9213 60.9724 23.0971C62.2478 22.2526 63.8533 21.3064 63.063 18.4066C62.7029 17.0839 61.7976 13.7263 58.1566 14.2554C54.9056 14.7285 52.1598 17.5621 50.9094 20.7519C49.1289 25.2999 49.0139 30.6009 52.84 31.8015C55.8159 32.7376 59.497 29.8734 60.5223 28.7542C61.4325 27.7571 62.2278 26.582 62.4728 25.595C62.5379 25.3356 62.2228 25.1524 62.0427 25.3508ZM59.4169 17.5825C59.9271 17.4451 60.2422 17.5469 60.3072 18.1879C60.3872 18.9866 60.2072 20.4059 59.4569 21.169C58.3866 22.2577 54.7906 24.1655 54.2304 24.369C55.0456 20.8892 57.2713 18.1675 59.4169 17.5825Z" fill="white"/>
</g>
<defs>
<clipPath id="clip0">
<rect width="100" height="32" fill="white"/>
</clipPath>
</defs>
</svg>
