<svg width="120" height="50" viewBox="0 0 120 50" fill="none" xmlns="http://www.w3.org/2000/svg">
<path d="M86.2983 24.0051C82.2996 24.0051 79.9272 27.7076 79.0317 29.5692C78.903 29.8344 79.1912 30.1048 79.4434 29.9592C81.0696 29.0284 82.8451 27.6608 85.655 27.6608C88.6862 27.6608 90.6057 29.9852 93.9972 29.9852C98.6237 29.9852 100.281 26.314 100.981 24.4055C101.078 24.1351 100.785 23.8959 100.543 24.0467C99.0148 25.0296 97.2959 26.5688 94.6765 26.5688C91.9232 26.5636 89.7566 24.0051 86.2983 24.0051Z" fill="#6259BE"/>
<path fill-rule="evenodd" clip-rule="evenodd" d="M37.2718 20.5343C37.2053 20.2457 36.8063 20.1825 36.3364 20.1104C35.7646 20.0247 34.6119 19.7361 33.2332 19.3573C33.8228 17.4003 34.2528 15.9619 34.3725 15.5425C34.7981 14.0184 32.6303 10.4065 31.624 10.0187C31.4289 9.94201 31.2205 10.1134 31.1629 10.3163C30.8836 11.3263 30.028 14.4558 29.0217 18.1489C27.6972 17.7595 26.4519 17.3844 25.5279 17.1061L25.5277 17.106C24.9859 16.9429 24.5546 16.813 24.2826 16.7329C23.028 16.3632 19.5081 17.0035 20.0578 21.2512C20.1243 21.7788 20.5499 21.7788 20.8381 21.6706C20.9142 21.642 21.0088 21.5804 21.1347 21.4985C21.4854 21.2702 22.0785 20.8842 23.1876 20.6154C24.1674 20.3764 26.1756 20.5343 28.3035 20.7958C26.6366 26.9374 24.8501 33.5705 24.6727 34.4318C24.3979 35.771 25.5195 37.949 27.142 38.3233C27.3859 38.3774 27.5499 38.3458 27.6208 38.1068C27.6394 38.0448 27.669 37.9497 27.706 37.8311L27.7061 37.831L27.7062 37.8304L27.7063 37.8304C27.7929 37.5526 27.9196 37.1465 28.0375 36.736C28.8249 33.968 30.7125 27.7093 32.2282 22.6838L32.2282 22.6836L32.2285 22.6825L32.2286 22.6823L32.6126 21.409C34.0046 21.612 35.1084 21.7653 35.5385 21.7427C36.9438 21.6751 37.3649 20.9446 37.2718 20.5343ZM47.6536 10.3204C47.7113 10.1175 47.9196 9.94616 48.1147 10.0228C49.1166 10.4106 51.2888 14.0225 50.8632 15.5467C50.7001 16.125 49.9425 18.6352 48.9916 21.7863L48.9905 21.79L48.99 21.7916L48.9892 21.7944L48.9889 21.7951L48.9888 21.7955C47.4342 26.947 45.364 33.8067 44.5282 36.7402C44.4103 37.1505 44.2837 37.5565 44.197 37.8343L44.197 37.8346C44.1599 37.9534 44.1301 38.0488 44.1115 38.111C44.0406 38.35 43.8766 38.3815 43.6327 38.3274C42.0102 37.9532 40.8886 35.7752 41.1635 34.4359C41.4782 32.9073 46.869 13.1658 47.6536 10.3204ZM63.4679 10.3204C63.5255 10.1175 63.7338 9.94616 63.9289 10.0228C64.9352 10.4106 67.1031 14.0225 66.673 15.5467C66.5097 16.1256 65.751 18.6397 64.7988 21.7948L64.7987 21.7952C63.244 26.9468 61.1738 33.8067 60.338 36.7402C60.2201 37.1507 60.0934 37.5568 60.0067 37.8345C59.9697 37.9534 59.9399 38.0488 59.9213 38.111C59.8504 38.35 59.6864 38.3815 59.4425 38.3274C57.82 37.9532 56.6984 35.7752 56.9732 34.4359C56.9821 34.4044 56.991 34.3638 56.9999 34.3187C55.896 35.7617 54.3754 37.4752 53.0189 38.129C51.8973 38.6701 50.124 38.1922 49.1753 36.0232C48.036 33.4078 48.7896 29.8726 50.1063 27.2166C51.813 23.7715 55.0537 22.2113 56.8314 22.5811C58.2057 22.8652 59.0258 24.2991 59.3627 25.3994C61.0252 19.2443 63.0157 11.9618 63.4679 10.3204ZM52.1899 34.6389C52.283 35.5587 52.9125 35.6444 53.4755 35.4956C54.8276 35.1394 56.7161 32.8216 57.7446 31.4463C58.0762 30.1817 58.4991 28.6096 58.9602 26.8957L59.1322 26.2561C57.6648 24.4705 55.4748 25.5978 54.1227 27.5683C52.6686 29.6877 52.0657 33.4033 52.1899 34.6389ZM37.3873 22.9516C37.4183 22.8388 37.5735 22.7622 37.6976 22.7757C38.8503 22.9245 40.4063 24.8409 40.0516 26.5139C39.9527 26.9744 39.4415 28.6051 38.8529 30.4824C38.07 32.9798 37.1502 35.9137 36.8819 37.1106C36.8251 37.3621 36.8061 37.6468 36.7926 37.849L36.7926 37.8491L36.7926 37.8492L36.7926 37.8495C36.7881 37.9155 36.7843 37.9726 36.78 38.017C36.7622 38.2109 36.6558 38.3687 36.4652 38.3642C34.918 38.3371 33.8186 35.7443 34.1245 34.4772C34.3461 33.5618 36.4076 26.2614 37.3873 22.9516ZM39.4219 16.8861C38.9032 17.5084 38.5219 18.8205 38.5352 19.8261C38.553 20.8903 39.4573 22.0537 39.9317 22.3197C40.4193 22.5948 40.6321 22.4821 40.9291 22.1935C41.6695 21.49 42.3256 19.4022 41.8734 18.2704C41.5453 17.4588 40.9823 16.9672 40.5966 16.7959C40.1844 16.6155 39.6701 16.5885 39.4219 16.8861ZM67.8561 35.9784C69.8687 36.8306 73.402 34.1792 74.9935 32.4702C75.1531 32.2943 75.4324 32.4566 75.3747 32.6866C75.1575 33.5614 74.4526 34.603 73.6458 35.4869C72.737 36.4789 69.4742 39.0176 66.8364 38.1879C63.4451 37.1237 63.547 32.4251 65.1252 28.3938C66.2335 25.5665 68.6673 23.0548 71.5489 22.6355C74.7688 22.1676 75.5749 25.1289 75.8956 26.3069L75.8979 26.315C76.5761 28.8037 75.2635 29.669 74.1533 30.4009C74.1169 30.4249 74.0807 30.4488 74.0448 30.4726C73.1479 31.0685 70.3865 32.3906 68.5115 33.2884C68.088 33.4911 67.7097 33.6722 67.4083 33.8184C67.1512 34.0168 67.0138 35.6221 67.8561 35.9784ZM73.4552 26.1211C73.3975 25.553 73.1183 25.4628 72.6661 25.5845C70.7642 26.1031 68.7915 28.5155 68.0689 31.5999C68.5654 31.4195 71.7528 29.7285 72.7015 28.7636C73.3665 28.0872 73.5261 26.8291 73.4552 26.1211Z" fill="#545351"/>
</svg>
