<svg width="120" height="50" viewBox="0 0 120 50" fill="none" xmlns="http://www.w3.org/2000/svg">
<path d="M22.2593 35.1905C22.4926 35.1905 22.779 35.1799 23.1184 35.1587C23.4578 35.1375 23.7654 35.0951 24.0411 35.0315V32.3905C23.8502 32.4117 23.6487 32.433 23.4366 32.4542C23.2244 32.4754 23.0335 32.486 22.8638 32.486C21.8244 32.486 21.082 32.2314 20.6365 31.7223C20.2123 31.192 20.0002 30.492 20.0002 29.6223V20.6813H23.8502V17.8495H20.0002V13.904H17.0411V15.304C17.0411 16.0889 16.8183 16.7146 16.3729 17.1813C15.9274 17.6268 15.3229 17.8495 14.5592 17.8495H13.9229V20.6813H17.0411V29.7178C17.0411 31.4572 17.4865 32.8042 18.3774 33.7587C19.2896 34.7133 20.5835 35.1905 22.2593 35.1905ZM26.3156 15.1131H29.2747V11.2949H26.3156V15.1131ZM26.3156 34.9996H29.2747V17.8495H26.3156V34.9996ZM32.2754 34.9996H35.2345V10.9131H32.2754V34.9996ZM46.0306 35.3815C47.3034 35.3815 48.4594 35.1375 49.4988 34.6496C50.5595 34.1405 51.4079 33.4193 52.0443 32.486V34.9996H54.9398V10.9131H51.9489V20.1404C51.2913 19.2919 50.4534 18.6344 49.4352 18.1677C48.417 17.701 47.2822 17.4677 46.0306 17.4677C44.4185 17.4677 42.9655 17.8601 41.6715 18.645C40.3988 19.4298 39.3912 20.501 38.6488 21.8586C37.9063 23.195 37.5351 24.7223 37.5351 26.4405C37.5351 28.1375 37.9063 29.6647 38.6488 31.0223C39.3912 32.3587 40.3988 33.4193 41.6715 34.2042C42.9655 34.989 44.4185 35.3815 46.0306 35.3815ZM46.2852 32.5178C45.2033 32.5178 44.2382 32.2526 43.3897 31.7223C42.5412 31.192 41.873 30.4708 41.3851 29.5587C40.8973 28.6253 40.6533 27.5859 40.6533 26.4405C40.6533 25.2738 40.8973 24.2344 41.3851 23.3223C41.873 22.3889 42.5412 21.6571 43.3897 21.1268C44.2594 20.5965 45.2246 20.3313 46.2852 20.3313C47.367 20.3313 48.3322 20.6071 49.1807 21.1586C50.0291 21.6889 50.6973 22.4101 51.1852 23.3223C51.6943 24.2344 51.9489 25.2738 51.9489 26.4405C51.9489 27.5859 51.6943 28.6253 51.1852 29.5587C50.6973 30.4708 50.0291 31.192 49.1807 31.7223C48.3322 32.2526 47.367 32.5178 46.2852 32.5178ZM65.82 35.3815C67.5806 35.3815 69.1079 34.9678 70.4018 34.1405C71.6958 33.3133 72.6079 32.3057 73.1382 31.1178L70.6564 29.8451C70.1685 30.6723 69.5321 31.3511 68.7472 31.8814C67.9624 32.4117 66.9972 32.6769 65.8518 32.6769C64.8972 32.6769 64.0063 32.4648 63.179 32.0405C62.373 31.5951 61.7048 30.9693 61.1745 30.1632C60.6654 29.3572 60.3896 28.4026 60.3472 27.2996H73.4564C73.5624 26.7268 73.6155 26.1965 73.6155 25.7087C73.6155 24.2874 73.2973 22.9511 72.6609 21.6995C72.0245 20.448 71.1018 19.4298 69.8927 18.645C68.7048 17.8601 67.2624 17.4677 65.5654 17.4677C63.9745 17.4677 62.5533 17.8495 61.3017 18.6131C60.0502 19.3768 59.0532 20.4374 58.3108 21.795C57.5896 23.1314 57.229 24.6586 57.229 26.3768C57.229 28.095 57.6002 29.6329 58.3426 30.9905C59.085 32.3481 60.1032 33.4193 61.3972 34.2042C62.6911 34.989 64.1654 35.3815 65.82 35.3815ZM65.5654 20.1086C66.4351 20.1086 67.2306 20.3101 67.9518 20.7132C68.673 21.095 69.2563 21.6359 69.7018 22.3359C70.1473 23.0359 70.3806 23.842 70.4018 24.7541H60.4108C60.6229 23.3117 61.2169 22.1768 62.1926 21.3495C63.1684 20.5223 64.2927 20.1086 65.5654 20.1086Z" fill="#545351"/>
<path d="M87.9501 22.4741C83.0924 22.4741 80.2103 27.0018 79.1225 29.2784C78.9662 29.6027 79.3163 29.9333 79.6226 29.7553C81.5982 28.617 83.7551 26.9445 87.1686 26.9445C90.851 26.9445 93.1829 29.7871 97.3029 29.7871C102.923 29.7871 104.936 25.2975 105.787 22.9637C105.905 22.633 105.549 22.3405 105.255 22.5249C103.398 23.7268 101.31 25.6091 98.1281 25.6091C94.7834 25.6028 92.1513 22.4741 87.9501 22.4741Z" fill="#6259BE"/>
</svg>
