<svg width="100" height="32" viewBox="0 0 100 32" fill="none" xmlns="http://www.w3.org/2000/svg">
<path fill-rule="evenodd" clip-rule="evenodd" d="M12.9947 21.697V24.5467H10.209C6.91103 24.5467 4.92583 22.7216 4.92583 19.2315V10.5543H1.91602V7.83263H4.12535C4.70169 7.83263 5.11795 7.41638 5.11795 6.74397V3.06175H8.28786V7.80061H13.1548V10.5543H8.28786V19.1354C8.28786 20.7364 8.96026 21.697 10.7213 21.697H12.9947ZM19.4824 3.02973C19.4824 4.3105 18.5538 5.17503 17.241 5.17503C15.9602 5.17503 15.0317 4.3105 15.0317 3.02973C15.0317 1.813 15.9602 0.916459 17.241 0.916459C18.5538 0.916459 19.4824 1.813 19.4824 3.02973ZM18.906 7.80061V24.5467H15.544V7.80061H18.906ZM27.4827 21.5689V24.5467H26.1058C23.5763 24.5467 22.1355 23.0098 22.1355 20.3842V0.532227H25.4975V20.1921C25.4975 21.0886 25.9457 21.5689 26.7782 21.5689H27.4827ZM41.9932 22.1773C41.5449 22.8177 39.9119 24.9629 36.5819 24.9629C31.779 24.9629 28.449 21.4088 28.449 16.2217C28.449 11.0346 31.747 7.38436 36.4218 7.38436C39.6237 7.38436 41.3528 9.36955 41.8971 10.2341H42.1212V0.532227H45.4833V24.5467H42.1853V22.1773H41.9932ZM31.8751 16.1897C31.8751 19.6798 33.9883 21.9211 37.0622 21.9211C40.2641 21.9211 42.2173 19.3596 42.2173 16.1897C42.2173 12.5715 39.976 10.4582 37.0302 10.4582C33.9883 10.4582 31.8751 12.8276 31.8751 16.1897ZM63.9419 19.4876C63.0774 22.7216 60.0996 24.9629 55.9691 24.9629C50.9421 24.9629 47.548 21.2487 47.548 16.2217C47.548 10.9065 51.1342 7.38436 55.9051 7.38436C61.1242 7.38436 64.102 11.2267 64.102 15.9975V17.2463H50.91C51.0381 20.1601 52.9913 22.1453 56.0651 22.1453C58.1784 22.1453 60.0035 21.1206 60.6759 19.4876H63.9419ZM55.9051 10.2021C53.3435 10.2021 51.2302 12.0272 50.9741 14.6527H60.772C60.5479 11.835 58.4986 10.2021 55.9051 10.2021ZM76.4437 13.5205C73.4935 13.3605 71.7724 15.6344 71.5886 17.9324L70.1134 17.8524C70.2958 14.4891 72.7538 11.7226 76.4711 11.9242C78.8935 12.0555 80.5715 13.2686 82.2053 14.4497C83.7553 15.5702 85.2655 16.6619 87.3337 16.7741C90.1659 16.9276 91.9461 14.657 92.0709 12.3558L93.605 12.439C93.429 15.6843 91.0204 18.631 87.2441 18.4262C84.8299 18.2953 83.1867 17.0762 81.5812 15.885C80.0475 14.7471 78.5481 13.6346 76.4437 13.5205Z" fill="white"/>
</svg>
