<svg width="24" height="24" viewBox="0 0 24 24" fill="none" xmlns="http://www.w3.org/2000/svg">
<path fill="currentColor" fill-rule="evenodd" clip-rule="evenodd" d="M12 3C10.3431 3 9 4.34315 9 6V10C9 11.6569 10.3431 13 12 13C13.6569 13 15 11.6569 15 10V6C15 4.34315 13.6569 3 12 3ZM6 8C6.55228 8 7 8.44772 7 9V9.57143C7 12.6357 9.30244 15 12 15C14.6976 15 17 12.6357 17 9.57143V9C17 8.44772 17.4477 8 18 8C18.5523 8 19 8.44772 19 9V9.57143C19 13.2585 16.4385 16.4078 13 16.9255V19L15 19C15.5523 19 16 19.4477 16 20C16 20.5523 15.5523 21 15 21H12H9C8.44772 21 8 20.5523 8 20C8 19.4477 8.44772 19 9 19H11V16.9255C7.56152 16.4078 5 13.2585 5 9.57143V9C5 8.44772 5.44772 8 6 8Z" />
</svg>
