<svg width="24" height="24" viewBox="0 0 24 24" fill="none" xmlns="http://www.w3.org/2000/svg">
<path d="M11.8247 3.31935C11.9006 3.18101 12.0994 3.18101 12.1753 3.31935L14.769 8.0438C14.7977 8.09612 14.8483 8.13288 14.9069 8.14403L20.2016 9.15079C20.3566 9.18027 20.4181 9.36929 20.31 9.48427L16.6182 13.4109C16.5773 13.4544 16.558 13.5139 16.5655 13.5731L17.2442 18.9197C17.2641 19.0763 17.1033 19.1931 16.9605 19.1258L12.0853 16.8282C12.0313 16.8027 11.9687 16.8027 11.9147 16.8282L7.03948 19.1258C6.89673 19.1931 6.73594 19.0763 6.75581 18.9197L7.43447 13.5731C7.44199 13.5139 7.42266 13.4544 7.38178 13.4109L3.69004 9.48427C3.58194 9.36929 3.64335 9.18027 3.79839 9.15079L9.09309 8.14403C9.15172 8.13288 9.20232 8.09612 9.23104 8.0438L11.8247 3.31935Z" stroke="currentColor" stroke-width="2"/>
</svg>
