<svg width="24" height="24" viewBox="0 0 24 24" fill="none" xmlns="http://www.w3.org/2000/svg">
<path class="glyph-fill" fill-rule="evenodd" clip-rule="evenodd" d="M12 4C7.58167 4 4 7.58167 4 12C4 16.4183 7.58167 20 12 20C16.4183 20 20 16.4183 20 12C20 7.58167 16.4183 4 12 4ZM2 12C2 6.47717 6.47717 2 12 2C17.5228 2 22 6.47717 22 12C22 17.5228 17.5228 22 12 22C6.47717 22 2 17.5228 2 12ZM13 17C13 17.5522 12.5522 18 12 18C11.4478 18 11 17.5522 11 17C11 16.4478 11.4478 16 12 16C12.5522 16 13 16.4478 13 17ZM10 10C10 9.00122 10.8677 8 12 8C13.165 8 14 8.87891 14 10C14 10.6089 13.7241 10.8223 12.9047 11.4561L12.8882 11.4688C12.5063 11.764 12.0144 12.1594 11.6348 12.733C11.2384 13.3322 11 14.0667 11 15H13C13 14.4333 13.1366 14.0878 13.3027 13.8368C13.4856 13.5603 13.7437 13.3356 14.1118 13.0508C14.1562 13.0165 14.203 12.9811 14.2517 12.9441L14.2651 12.9338C14.9502 12.415 16 11.6198 16 10C16 7.80859 14.3037 6 12 6C9.66357 6 8 7.99878 8 10H10Z" fill="#333333"/>
</svg>