<svg width="24" height="24" viewBox="0 0 24 24" fill="none" xmlns="http://www.w3.org/2000/svg">
<path fill="currentColor" fill-rule="evenodd" clip-rule="evenodd" d="M10.9869 10.4546C10.3509 8.83165 10.6886 6.91528 12 5.60389L13.2792 4.32467C15.0455 2.55844 17.9091 2.55844 19.6753 4.32467C21.4416 6.0909 21.4416 8.95452 19.6753 10.7208L18.3961 12C17.0847 13.3114 15.1683 13.6491 13.5453 13.0131L15.047 11.5114C15.7909 11.5526 16.5486 11.2891 17.1169 10.7208L18.3961 9.44154C19.4558 8.3818 19.4558 6.66363 18.3961 5.60389C17.3364 4.54415 15.6182 4.54415 14.5584 5.60389L13.2792 6.8831C12.7109 7.45139 12.4474 8.20902 12.4886 8.95292L10.9869 10.4546ZM10.4546 10.9869C8.83164 10.3509 6.91528 10.6886 5.6039 12L4.32468 13.2792C2.55844 15.0455 2.55844 17.9091 4.32468 19.6753C6.09091 21.4416 8.95454 21.4416 10.7208 19.6753L12 18.3961C13.3114 17.0847 13.6491 15.1683 13.0131 13.5453L11.5114 15.047C11.5526 15.7909 11.2891 16.5486 10.7208 17.1169L9.44156 18.3961C8.38182 19.4558 6.66364 19.4558 5.6039 18.3961C4.54416 17.3364 4.54416 15.6182 5.6039 14.5585L6.88312 13.2792C7.45139 12.711 8.209 12.4474 8.95288 12.4886L10.4546 10.9869ZM14.8284 7.75736L7.75735 14.8284L9.17157 16.2426L16.2426 9.17158L14.8284 7.75736Z" />
</svg>
