<svg width="24" height="24" viewBox="0 0 24 24" fill="none" xmlns="http://www.w3.org/2000/svg">
<path fill-rule="evenodd" clip-rule="evenodd" d="M14.1706 6.11529C13.0067 5.88378 11.8003 6.0026 10.704 6.45673C9.60762 6.91085 8.67055 7.67989 8.01126 8.66658C7.43179 9.53381 7.08979 10.5349 7.01547 11.5704L9.29297 9.2929L10.7072 10.7071L6.70718 14.7071L6.00008 15.4142L5.29297 14.7071L1.29297 10.7071L2.70718 9.2929L5.01028 11.596C5.0831 10.1556 5.54425 8.75881 6.34832 7.55544C7.22737 6.23985 8.4768 5.21447 9.93861 4.60897C11.4004 4.00347 13.009 3.84504 14.5608 4.15372C16.1126 4.4624 17.5381 5.22433 18.6569 6.34315C19.7758 7.46197 20.5377 8.88743 20.8464 10.4393C21.155 11.9911 20.9966 13.5997 20.3911 15.0615C19.7856 16.5233 18.7602 17.7727 17.4446 18.6518C16.129 19.5308 14.5823 20 13.0001 20L10.0001 20C9.44778 20 9.00006 19.5523 9.00006 19C9.00006 18.4477 9.44778 18 10.0001 18H13.0001L13.0026 18C14.1884 17.9995 15.3475 17.6476 16.3335 16.9888C17.3202 16.3295 18.0892 15.3925 18.5434 14.2961C18.9975 13.1997 19.1163 11.9933 18.8848 10.8295C18.6533 9.66558 18.0818 8.59648 17.2427 7.75736C16.4036 6.91825 15.3345 6.3468 14.1706 6.11529ZM6.00008 21C7.10465 21 8.00008 20.1046 8.00008 19C8.00008 17.8954 7.10465 17 6.00008 17C4.89551 17 4.00008 17.8954 4.00008 19C4.00008 20.1046 4.89551 21 6.00008 21Z" fill="#333333"/>
</svg>
