<svg width="24" height="24" viewBox="0 0 24 24" fill="none" xmlns="http://www.w3.org/2000/svg">
<rect width="24" height="24" rx="2" fill="#EE6659"/>
<path fill-rule="evenodd" clip-rule="evenodd" d="M11.9999 12.5827C14.2073 12.5827 15.9968 10.7932 15.9968 8.58579C15.9968 6.37835 14.2073 4.58887 11.9999 4.58887C9.79241 4.58887 8.00293 6.37835 8.00293 8.58579C8.00293 10.7932 9.79241 12.5827 11.9999 12.5827ZM11.9998 13.5845C14.3441 13.5845 16.3115 11.9704 16.8511 9.79297L18.6432 10.913C19.2699 11.3047 19.2699 12.2173 18.6432 12.609L12.53 16.4298C12.2057 16.6324 11.7943 16.6324 11.47 16.4298L5.3568 12.609C4.73013 12.2173 4.73013 11.3047 5.3568 10.913L7.14857 9.79315C7.68833 11.9705 9.6556 13.5845 11.9998 13.5845ZM5.35672 15.4387C4.74546 15.0567 4.73043 14.1789 5.31162 13.7725L10.94 17.2903C11.5885 17.6956 12.4115 17.6956 13.06 17.2903L18.6883 13.7726C19.2694 14.179 19.2544 15.0567 18.6431 15.4387L12.5299 19.2594C12.2057 19.4621 11.7942 19.4621 11.4699 19.2594L5.35672 15.4387Z" fill="white"/>
</svg>
