<svg width="24" height="24" viewBox="0 0 24 24" fill="none" xmlns="http://www.w3.org/2000/svg">
<path fill="currentColor" fill-rule="evenodd" clip-rule="evenodd" d="M20.9913 4.13166C21.0389 3.77356 20.8896 3.41764 20.6008 3.2006C20.312 2.98357 19.9286 2.93916 19.5979 3.08443L2.59786 10.5511C2.23836 10.709 2.00454 11.0627 2.00007 11.4553C1.99559 11.8479 2.22131 12.2068 2.57711 12.3729L8.55036 15.1604L8.90953 19.581C8.93851 19.9376 9.15585 20.2516 9.47944 20.4044C9.80304 20.5571 10.1836 20.5253 10.4773 20.3209L13.5041 18.2153L17.3095 20.8247C17.5961 21.0213 17.9642 21.0549 18.2817 20.9136C18.5992 20.7722 18.8205 20.4762 18.8663 20.1317L20.9913 4.13166ZM11.6847 17.0447L10.6579 16.4029L10.7622 17.6864L11.6847 17.0447ZM15.5305 7.05528L9.28817 13.2976L5.42386 11.4943L15.5305 7.05528ZM11.096 14.3182L18.6201 6.79409L17.098 18.2547L14.0655 16.1753C14.0539 16.1673 14.042 16.1595 14.03 16.152L11.096 14.3182Z" />
</svg>
