<svg width="24" height="24" viewBox="0 0 24 24" fill="none" xmlns="http://www.w3.org/2000/svg">
<path fill-rule="evenodd" clip-rule="evenodd" d="M10.6535 6.11766L11.9996 4.7992L13.3458 6.11766C13.8435 6.60515 14.5104 6.88139 15.207 6.88862L17.0912 6.90817L17.1107 8.79231C17.1179 9.48896 17.3942 10.1558 17.8817 10.6536L19.2001 11.9997L17.8817 13.3458C17.3942 13.8435 17.1179 14.5104 17.1107 15.207L17.0912 17.0912L15.207 17.1107C14.5104 17.118 13.8435 17.3942 13.3458 17.8817L11.9996 19.2002L10.6535 17.8817C10.1558 17.3942 9.48893 17.118 8.79228 17.1107L6.90814 17.0912L6.88859 15.207C6.88136 14.5104 6.60512 13.8435 6.11763 13.3458L4.79917 11.9997L6.11763 10.6536C6.60512 10.1558 6.88136 9.48896 6.88859 8.79231L6.90814 6.90817L8.79228 6.88862C9.48893 6.88139 10.1558 6.60515 10.6535 6.11766ZM11.5098 2.47943C11.782 2.21287 12.2173 2.21287 12.4895 2.47943L14.7452 4.68885C14.8743 4.81523 15.0472 4.88685 15.2278 4.88873L18.3851 4.92149C18.766 4.92545 19.0739 5.23327 19.0778 5.61419L19.1106 8.77155C19.1125 8.95217 19.1841 9.12506 19.3105 9.2541L21.5199 11.5099C21.7864 11.782 21.7864 12.2173 21.5199 12.4895L19.3105 14.7453C19.1841 14.8743 19.1125 15.0472 19.1106 15.2278L19.0778 18.3852C19.0739 18.7661 18.766 19.0739 18.3851 19.0779L15.2278 19.1106C15.0472 19.1125 14.8743 19.1841 14.7452 19.3105L12.4895 21.5199C12.2173 21.7865 11.782 21.7865 11.5098 21.5199L9.25407 19.3105C9.12503 19.1841 8.95214 19.1125 8.77152 19.1106L5.61416 19.0779C5.23324 19.0739 4.92542 18.7661 4.92146 18.3852L4.8887 15.2278C4.88682 15.0472 4.8152 14.8743 4.68882 14.7453L2.4794 12.4895C2.21284 12.2173 2.21284 11.782 2.4794 11.5099L4.68882 9.2541C4.8152 9.12506 4.88682 8.95217 4.8887 8.77155L4.92146 5.61419C4.92542 5.23327 5.23324 4.92545 5.61416 4.92149L8.77152 4.88873C8.95214 4.88685 9.12503 4.81523 9.25407 4.68885L11.5098 2.47943ZM13.9832 11.997C13.9832 13.094 13.0939 13.9832 11.997 13.9832C10.9 13.9832 10.0108 13.094 10.0108 11.997C10.0108 10.9001 10.9 10.0108 11.997 10.0108C13.0939 10.0108 13.9832 10.9001 13.9832 11.997ZM15.9832 11.997C15.9832 14.1985 14.1985 15.9832 11.997 15.9832C9.79547 15.9832 8.01079 14.1985 8.01079 11.997C8.01079 9.79552 9.79547 8.01084 11.997 8.01084C14.1985 8.01084 15.9832 9.79552 15.9832 11.997Z" fill="currentColor"/>
</svg>
