<svg width="24" height="24" viewBox="0 0 24 24" fill="none" xmlns="http://www.w3.org/2000/svg">
<path fill="currentColor" fill-rule="evenodd" clip-rule="evenodd" d="M12 5C8.13401 5 5 8.13401 5 12C5 13.6589 5.57708 15.1831 6.54144 16.3826C7.44371 15.8531 8.49806 15.4597 9.641 15.2307C8.64616 14.503 8 13.327 8 12V11C8 8.79086 9.79086 7 12 7C14.2091 7 16 8.79086 16 11V12C16 13.327 15.3538 14.503 14.359 15.2307C15.5019 15.4597 16.5563 15.8531 17.4586 16.3826C18.4229 15.1831 19 13.6589 19 12C19 8.13401 15.866 5 12 5ZM12 19C10.5586 19 9.21896 18.5643 8.10556 17.8175C9.17621 17.3134 10.5159 17 12 17C13.4841 17 14.8238 17.3134 15.8944 17.8175C14.781 18.5643 13.4414 19 12 19ZM3 12C3 7.02944 7.02944 3 12 3C16.9706 3 21 7.02944 21 12C21 16.9706 16.9706 21 12 21C7.02944 21 3 16.9706 3 12ZM10 11C10 9.89543 10.8954 9 12 9C13.1046 9 14 9.89543 14 11V12C14 13.1046 13.1046 14 12 14C10.8954 14 10 13.1046 10 12V11Z" />
</svg>
