<svg width="11" height="13" viewBox="0 0 11 13" fill="none" xmlns="http://www.w3.org/2000/svg">
<path fill-rule="evenodd" clip-rule="evenodd" d="M6.04669 4H6.04771H6.05158H6.05546H6.05936H6.06328H6.06723H6.07119H6.07518H6.07918H6.0832H6.08725H6.09132H6.0954H6.09951H6.10364H6.10779H6.11196H6.11615H6.12036H6.1246H6.12885H6.13313H6.13742H6.14174H6.14608H6.15045H6.15483H6.15923H6.16366H6.16811H6.17258H6.17707H6.18159H6.18613H6.19069H6.19527H6.19987H6.2045H6.20915H6.21382H6.21851H6.22323H6.22796H6.23273H6.23751H6.24232H6.24715H6.252H6.25688H6.26178H6.2667H6.27165H6.27662H6.28161H6.28663H6.29167H6.29673H6.30182H6.30693H6.31207H6.31723H6.32241H6.32762H6.33285H6.3381H6.34338H6.34869H6.35401H6.35937H6.36474H6.37015H6.37557H6.38102H6.3865H6.392H6.39753H6.40308H6.40865H6.41425H6.41988H6.42553H6.43121H6.43691H6.44264H6.44839H6.45417H6.45997H6.4658H6.47166H6.47754H6.48345H6.48938H6.49534H6.50133H6.50734H6.51338H6.51944H6.52553H6.53165H6.53779H6.54396H6.55016H6.55638H6.56263H6.56891H6.57521H6.58154H6.5879H6.59429H6.6007H6.60714H6.61361H6.6201H6.62662H6.63317H6.63975H6.64635H6.65299H6.65965H6.66633H6.67305H6.67979H6.68657H6.69337H6.70019H6.70705H6.71393H6.72085H6.72779H6.73476H6.74176H6.74879H6.75584H6.76293H6.77004H6.77718H6.78435H6.79155H6.79878H6.80604H6.81333H6.82065H6.828H6.83537H6.84278H6.85021H6.85768H6.86517H6.8727H6.88025H6.88784H6.89545H6.90309H6.91077H6.91847H6.92621H6.93397H6.94177H6.9496H6.95745H6.96534H6.97326H6.98121H6.98918H6.9972H7.00524H7.01331H7.02141H7.02955H7.03771H7.04591H7.05414H7.0624H7.07069H7.07901H7.08736H7.09575H7.10417H7.11261H7.1211H7.12961H7.13815H7.14673H7.15534H7.16398H7.17265H7.18136H7.1901H7.19887H7.20767H7.21651H7.22538H7.23428H7.24321H7.25218H7.26118H7.27021H7.27927H7.28837H7.29751H7.30667H7.31587H7.3251H7.33437H7.34367H7.353H7.36237H7.37177H7.3812H7.39067H7.40017H7.4097H7.41927H7.42888H7.43851H7.44819H7.45789H7.46763H7.47741H7.48722H7.49706H7.50694H7.51686H7.52681H7.53679H7.54681H7.55686H7.56695H7.57707H7.58723H7.59743H7.60765H7.61792H7.62822H7.63856H7.64893H7.65933H7.66978H7.68025H7.69077H7.70132H7.71191H7.72253H7.73319H7.74388H7.75461H7.76538H7.77618H7.78702H7.7979H7.80881H7.81976H7.83075H7.84177H7.85283H7.86393H7.87506H7.88623H7.89744H7.90869H7.91997H7.93129H7.94265H7.95404H7.96548H7.97695H7.98845H8C8.90801 4 9.4868 3.27146 9.53628 2.46922C9.56043 2.07764 9.45023 1.71515 9.22128 1.45616C8.99963 1.20544 8.62107 1 8 1C7.50852 1 7.17122 1.13574 6.92697 1.32934C6.6758 1.52843 6.48672 1.81794 6.34856 2.17879C6.13175 2.74502 6.06567 3.41562 6.04669 4ZM6.3058 0.545661C6.74493 0.197596 7.30728 0 8 0C8.85917 0 9.52912 0.294561 9.97049 0.793836C10.4046 1.28485 10.5719 1.92236 10.5344 2.53078C10.4893 3.2616 10.1361 4.01986 9.51346 4.5H10C10.5523 4.5 11 4.94772 11 5.5V7.5V8.5V11.5C11 12.0523 10.5523 12.5 10 12.5H6H5H1C0.447715 12.5 0 12.0523 0 11.5V8.5V7.5V5.5C0 4.94772 0.447715 4.5 1 4.5H1.52605C0.903388 4.01986 0.550211 3.2616 0.505136 2.53078C0.467611 1.92236 0.634956 1.28485 1.06903 0.793836C1.5104 0.294561 2.18035 0 3.03952 0C3.73224 0 4.29459 0.197596 4.73372 0.545661C5.08969 0.827822 5.34108 1.18997 5.51976 1.57294C5.69844 1.18997 5.94982 0.827822 6.3058 0.545661ZM1 8.5L1 11.5H5V8.5H1ZM5 7.5H1L1 5.5H5V7.5ZM6 8.5V11.5H10V8.5H6ZM10 7.5H6V5.5H10V7.5ZM4.99181 4H4.99283C4.97385 3.41562 4.90776 2.74502 4.69096 2.17879C4.5528 1.81794 4.36372 1.52843 4.11255 1.32934C3.8683 1.13574 3.53099 1 3.03952 1C2.41845 1 2.03989 1.20544 1.81824 1.45616C1.58929 1.71515 1.47909 2.07764 1.50324 2.46922C1.55272 3.27146 2.13151 4 3.03952 4H3.05106H3.06257H3.07404H3.08547H3.09687H3.10823H3.11955H3.13083H3.14208H3.15328H3.16446H3.17559H3.18669H3.19775H3.20877H3.21976H3.23071H3.24162H3.2525H3.26334H3.27414H3.28491H3.29564H3.30633H3.31699H3.32761H3.3382H3.34875H3.35926H3.36974H3.38019H3.39059H3.40096H3.4113H3.4216H3.43186H3.44209H3.45229H3.46245H3.47257H3.48266H3.49271H3.50273H3.51271H3.52266H3.53258H3.54246H3.5523H3.56211H3.57188H3.58163H3.59133H3.601H3.61064H3.62025H3.62982H3.63935H3.64885H3.65832H3.66775H3.67715H3.68652H3.69585H3.70515H3.71442H3.72365H3.73285H3.74201H3.75114H3.76024H3.76931H3.77834H3.78734H3.79631H3.80524H3.81414H3.82301H3.83185H3.84065H3.84942H3.85816H3.86687H3.87554H3.88418H3.89279H3.90137H3.90991H3.91842H3.9269H3.93535H3.94377H3.95216H3.96051H3.96883H3.97712H3.98538H3.99361H4.00181H4.00997H4.01811H4.02621H4.03428H4.04232H4.05033H4.05831H4.06626H4.07418H4.08207H4.08992H4.09775H4.10555H4.11331H4.12105H4.12875H4.13642H4.14407H4.15168H4.15927H4.16682H4.17435H4.18184H4.18931H4.19674H4.20415H4.21152H4.21887H4.22619H4.23348H4.24073H4.24796H4.25516H4.26234H4.26948H4.27659H4.28368H4.29073H4.29776H4.30476H4.31173H4.31867H4.32558H4.33247H4.33932H4.34615H4.35295H4.35972H4.36647H4.37318H4.37987H4.38653H4.39316H4.39977H4.40635H4.4129H4.41942H4.42591H4.43238H4.43882H4.44523H4.45162H4.45797H4.46431H4.47061H4.47689H4.48314H4.48936H4.49556H4.50173H4.50787H4.51399H4.52008H4.52614H4.53218H4.53819H4.54418H4.55014H4.55607H4.56198H4.56786H4.57372H4.57955H4.58535H4.59113H4.59688H4.60261H4.60831H4.61399H4.61964H4.62527H4.63087H4.63644H4.64199H4.64752H4.65302H4.65849H4.66395H4.66937H4.67477H4.68015H4.6855H4.69083H4.69614H4.70142H4.70667H4.7119H4.71711H4.72229H4.72745H4.73259H4.7377H4.74279H4.74785H4.75289H4.75791H4.7629H4.76787H4.77282H4.77774H4.78264H4.78752H4.79237H4.7972H4.80201H4.80679H4.81155H4.81629H4.82101H4.8257H4.83037H4.83502H4.83965H4.84425H4.84883H4.85339H4.85793H4.86244H4.86694H4.87141H4.87586H4.88028H4.88469H4.88907H4.89344H4.89778H4.90209H4.90639H4.91067H4.91492H4.91916H4.92337H4.92756H4.93173H4.93588H4.94001H4.94412H4.9482H4.95227H4.95631H4.96034H4.96434H4.96833H4.97229H4.97623H4.98016H4.98406H4.98794H4.99181Z" fill="currentColor"/>
</svg>
