<svg width="32" height="32" viewBox="0 0 32 32" fill="none" xmlns="http://www.w3.org/2000/svg">
<rect width="32" height="32" rx="6" fill="#F4F5F8"/>
<path fill-rule="evenodd" clip-rule="evenodd" d="M10.7071 14.7071L15 10.4142L15 20H17L17 10.4142L21.2929 14.7071L22.7071 13.2929L16.7071 7.29289C16.3166 6.90237 15.6834 6.90237 15.2929 7.29289L9.29289 13.2929L10.7071 14.7071ZM9 17H12V19H10V22H22V19H20V17H23C23.5523 17 24 17.4477 24 18V23C24 23.5523 23.5523 24 23 24H9C8.44772 24 8 23.5523 8 23V18C8 17.4477 8.44772 17 9 17Z" fill="#444444"/>
</svg>
