<?xml version="1.0" encoding="UTF-8" standalone="no"?>
<svg
   version="1.1"
   id="Capa_1"
   x="0px"
   y="0px"
   viewBox="0 0 16 16"
   xml:space="preserve"
   sodipodi:docname="social_twitter.svg"
   width="16"
   height="16"
   inkscape:version="1.1 (c68e22c387, 2021-05-23)"
   xmlns:inkscape="http://www.inkscape.org/namespaces/inkscape"
   xmlns:sodipodi="http://sodipodi.sourceforge.net/DTD/sodipodi-0.dtd"
   xmlns="http://www.w3.org/2000/svg"
   xmlns:svg="http://www.w3.org/2000/svg"><defs
   id="defs7" /><sodipodi:namedview
   id="namedview5"
   pagecolor="#ffffff"
   bordercolor="#666666"
   borderopacity="1.0"
   inkscape:pageshadow="2"
   inkscape:pageopacity="0.0"
   inkscape:pagecheckerboard="0"
   showgrid="false"
   inkscape:zoom="54.5625"
   inkscape:cx="7.9358534"
   inkscape:cy="8.2290951"
   inkscape:window-width="2509"
   inkscape:window-height="1199"
   inkscape:window-x="26"
   inkscape:window-y="23"
   inkscape:window-maximized="0"
   inkscape:current-layer="Capa_1" />
	<path
   d="m 15.964644,3.0544278 c -0.593685,0.260423 -1.226283,0.433041 -1.885823,0.516855 0.678497,-0.405103 1.19635,-1.041693 1.439811,-1.808993 -0.632599,0.377165 -1.331052,0.643575 -2.075404,0.792245 -0.60067,-0.639583 -1.456774,-1.035706 -2.390706,-1.035706 -1.8119861,0 -3.2707555,1.470743 -3.2707555,3.273749 0,0.259426 0.021954,0.508874 0.075832,0.746348 -2.7209744,-0.132706 -5.1286422,-1.436818 -6.7460602,-3.423418 -0.28237458,0.489914 -0.44800779,1.050672 -0.44800779,1.654335 0,1.13349 0.58370729,2.138265 1.45378039,2.719977 -0.5258355,-0.01 -1.0416931,-0.16264 -1.47872516,-0.403107 0,0.01 0,0.02295 0,0.03592 0,1.590477 1.13448746,2.911552 2.62219276,3.215877 -0.26641,0.07284 -0.5567669,0.107761 -0.8580996,0.107761 -0.209536,0 -0.4210674,-0.01197 -0.6196277,-0.05587 0.4240608,1.2961302 1.6273959,2.2490202 3.0582271,2.2799522 -1.1135339,0.871068 -2.5274027,1.395906 -4.05801298,1.395906 -0.26840553,0 -0.52583547,-0.01197 -0.78326532,-0.04491 1.4497892,0.934931 3.167984,1.468749 5.0208806,1.468749 6.0226624,0 9.3153704,-4.9889522 9.3153704,-9.3133742 0,-0.14468 -0.005,-0.28437 -0.01197,-0.423063 0.64956,-0.460979 1.195353,-1.036705 1.640367,-1.699237 z" />
</svg>
