<?xml version="1.0" encoding="UTF-8" standalone="no"?>
<svg
   height="16"
   viewBox="0 0 16 16"
   width="16"
   version="1.1"
   inkscape:version="1.1 (c68e22c387, 2021-05-23)"
   sodipodi:docname="social_linkedin.svg"
   id="svg741"
   xmlns:inkscape="http://www.inkscape.org/namespaces/inkscape"
   xmlns:sodipodi="http://sodipodi.sourceforge.net/DTD/sodipodi-0.dtd"
   xmlns="http://www.w3.org/2000/svg"
   xmlns:svg="http://www.w3.org/2000/svg">
  <defs
     id="defs731" />
  <sodipodi:namedview
     inkscape:zoom="37.320954"
     inkscape:cx="2.5856788"
     inkscape:cy="8.1723527"
     inkscape:window-width="3840"
     inkscape:window-height="1507"
     inkscape:window-x="0"
     inkscape:window-y="0"
     inkscape:window-maximized="1"
     id="namedview733"
     pagecolor="#ffffff"
     bordercolor="#666666"
     borderopacity="1.0"
     inkscape:pageshadow="2"
     inkscape:pageopacity="0.0"
     inkscape:pagecheckerboard="0" />
  <path
     d="m 2.7476647,0.11285047 c -1.0096207,0 -1.6697321,0.66296701 -1.6697321,1.53434683 0,0.8521352 0.6404459,1.5340123 1.6309907,1.5340123 h 0.019157 c 1.0293698,0 1.6699844,-0.6818771 1.6699844,-1.5340123 C 4.3788147,0.77581748 3.7574501,0.11285047 2.7476621,0.11285047 Z m 0,0"
     id="path735" />
  <path
     d="m 1.2523939,4.3936116 h 2.951548 v 8.8798574 h -2.951548 z m 0,0"
     id="path737" />
  <path
     d="m 11.448606,4.1852001 c -1.5922498,0 -2.6599402,1.4961948 -2.6599402,1.4961948 V 4.3936116 H 5.8370328 V 13.273469 H 8.7884972 V 8.3146104 c 0,-0.2654722 0.01925,-0.5305249 0.097232,-0.7203649 0.2133701,-0.5301054 0.6989365,-1.0792869 1.5143468,-1.0792869 1.068028,0 1.495188,0.8143178 1.495188,2.0080646 V 13.273469 H 14.84656 V 8.1819161 c 0,-2.7275055 -1.456194,-3.996716 -3.397954,-3.996716 z m 0,0"
     id="path739" />
</svg>
