<?xml version="1.0" encoding="UTF-8" standalone="no"?>
<svg
   height="16"
   viewBox="0 0 16 16"
   width="16"
   version="1.1"
   id="svg8"
   sodipodi:docname="social_instagram.svg"
   inkscape:version="1.1 (c68e22c387, 2021-05-23)"
   xmlns:inkscape="http://www.inkscape.org/namespaces/inkscape"
   xmlns:sodipodi="http://sodipodi.sourceforge.net/DTD/sodipodi-0.dtd"
   xmlns="http://www.w3.org/2000/svg"
   xmlns:svg="http://www.w3.org/2000/svg">
  <defs
     id="defs12" />
  <sodipodi:namedview
     id="namedview10"
     pagecolor="#ffffff"
     bordercolor="#666666"
     borderopacity="1.0"
     inkscape:pageshadow="2"
     inkscape:pageopacity="0.0"
     inkscape:pagecheckerboard="0"
     inkscape:document-units="pt"
     showgrid="false"
     units="px"
     width="16px"
     inkscape:zoom="57.985523"
     inkscape:cx="3.0956002"
     inkscape:cy="7.7088206"
     inkscape:window-width="3840"
     inkscape:window-height="1507"
     inkscape:window-x="0"
     inkscape:window-y="0"
     inkscape:window-maximized="1"
     inkscape:current-layer="svg8"
     showguides="false">
    <inkscape:grid
       type="xygrid"
       id="grid14" />
  </sodipodi:namedview>
  <path
     d="M 15.940593,4.6979728 C 15.903181,3.8493202 15.765965,3.2658791 15.5694,2.7603196 15.36662,2.2236803 15.054651,1.7432284 14.645923,1.3438263 14.246577,0.93820837 13.763023,0.62302619 13.232675,0.42338606 12.724265,0.22679329 12.143952,0.08955601 11.295421,0.05213871 10.440551,0.01155253 10.169162,0.00216786 8.0009763,0.00216786 c -2.1681864,0 -2.4395754,0.00938416 -3.2912757,0.04680186 C 3.8611685,0.08638702 3.2778102,0.2237462 2.7724447,0.42021729 2.2357598,0.62302619 1.7553759,0.93503989 1.3560309,1.3438263 0.95047071,1.7432284 0.63545486,2.2268492 0.43572143,2.7572724 0.23915637,3.2658791 0.10193867,3.8461513 0.06452672,4.6948039 0.02394629,5.5497941 0.01456284,5.8212215 0.01456284,7.9897161 c 0,2.1684939 0.0093824,2.4399229 0.0467953,3.2917449 0.03741204,0.848651 0.17475152,1.432093 0.37131659,1.937651 0.20278011,0.536641 0.51779596,1.017093 0.92335617,1.416495 0.3993449,0.405618 0.8828972,0.720802 1.413245,0.920438 0.5085342,0.196596 1.088724,0.33383 1.9373779,0.371248 0.8515786,0.03753 1.1230893,0.04679 3.2912758,0.04679 2.1681854,0 2.4395754,-0.0092 3.2912744,-0.04679 0.848532,-0.03743 1.431891,-0.174652 1.937257,-0.371248 1.073248,-0.415 1.921778,-1.263652 2.336723,-2.336933 0.196443,-0.508605 0.333783,-1.089 0.371194,-1.937651 0.0374,-0.851822 0.0468,-1.123251 0.0468,-3.2917446 0,-2.1684947 -0.0032,-2.4399223 -0.04059,-3.2917436 z m -1.438104,6.5210852 c -0.03437,0.780033 -0.165368,1.201251 -0.274557,1.482065 -0.268343,0.695814 -0.820504,1.248052 -1.516221,1.516436 -0.280772,0.109213 -0.704978,0.240225 -1.481855,0.274472 -0.842315,0.03753 -1.094937,0.04679 -3.2257115,0.04679 -2.1307744,0 -2.3865647,-0.0092 -3.2258351,-0.04679 C 3.9983862,14.457784 3.5772277,14.326762 3.2964553,14.217559 2.9502426,14.089582 2.6351047,13.886774 2.3793143,13.621562 2.1141406,13.362566 1.9113605,13.050552 1.7834045,12.704291 1.6742153,12.423479 1.5432125,11.999091 1.5089688,11.222227 1.471435,10.379789 1.4621735,10.127009 1.4621735,7.995932 c 0,-2.1310773 0.00926,-2.386904 0.046795,-3.226172 C 1.5432125,3.9897261 1.6742153,3.5685079 1.7834045,3.2876956 1.9113605,2.9413118 2.1141406,2.6262512 2.382483,2.3703025 2.6413198,2.1050907 2.9532891,1.9022821 3.2996238,1.7744294 3.580396,1.665225 4.0047229,1.5342036 4.7814775,1.4998331 5.6237948,1.4624139 5.8765386,1.4530319 8.007191,1.4530319 c 2.133943,0 2.386565,0.0094 3.225835,0.046802 0.779924,0.034371 1.201082,0.1653918 1.481854,0.2745962 0.346213,0.1278527 0.661349,0.3306615 0.91714,0.5958732 0.265177,0.2589956 0.467957,0.5710093 0.595912,0.917393 0.109196,0.2808124 0.240191,0.7050777 0.274557,1.4820648 0.03741,0.8424367 0.04679,1.0950944 0.04679,3.2261719 0,2.131077 -0.0093,2.380689 -0.04679,3.223125 z m 0,0"
     id="path2"
     style="stroke-width:0.031199" />
  <path
     d="m 8.0009763,3.8867374 c -2.2648238,0 -4.1023959,1.8377114 -4.1023959,4.1029787 0,2.2652669 1.8375721,4.1029789 4.1023959,4.1029789 2.2649457,0 4.1023957,-1.837712 4.1023957,-4.1029789 0,-2.2652673 -1.83745,-4.1029789 -4.1023957,-4.1029787 z m 0,6.7644786 c -1.4693021,0 -2.6611225,-1.1918675 -2.6611225,-2.6614999 0,-1.4696328 1.1918204,-2.6615005 2.6611225,-2.6615005 1.4694235,0 2.6611207,1.1918677 2.6611207,2.6615005 0,1.4696324 -1.1916972,2.6614999 -2.6611207,2.6614999 z m 0,0"
     id="path4"
     style="stroke-width:0.031199" />
  <path
     d="m 13.223415,3.7245145 c 0,0.5289608 -0.428836,0.9578575 -0.957844,0.9578575 -0.528884,0 -0.957722,-0.4288967 -0.957722,-0.9578575 0,-0.5290823 0.428838,-0.9578572 0.957722,-0.9578572 0.529008,0 0.957844,0.4287749 0.957844,0.9578572 z m 0,0"
     id="path6"
     style="stroke-width:0.031199" />
</svg>
