<svg width="90" height="28" viewBox="0 0 90 28" fill="none" xmlns="http://www.w3.org/2000/svg">
<path d="M30.3573 18.5245V21.1285H29.1533C26.9413 21.1285 25.6813 19.7845 25.6813 17.4885V0.12851H28.6213V17.3205C28.6213 18.1045 29.0133 18.5245 29.7413 18.5245H30.3573Z" fill="white"/>
<path d="M21.4013 4.18851C22.5493 4.18851 23.3613 3.43251 23.3613 2.31251C23.3613 1.24851 22.5493 0.46451 21.4013 0.46451C20.2813 0.46451 19.4693 1.24851 19.4693 2.31251C19.4693 3.43251 20.2813 4.18851 21.4013 4.18851Z" fill="white"/>
<path d="M22.8573 21.1285V6.48451H19.9173V21.1285H22.8573Z" fill="white"/>
<path d="M17.688 21.1285V18.6365H15.7C14.16 18.6365 13.572 17.7965 13.572 16.3965V8.89251H17.828V6.48451H13.572V2.34051H10.8V5.56051C10.8 6.14851 10.436 6.51251 9.932 6.51251H8V8.89251H10.632V16.4805C10.632 19.5325 12.368 21.1285 15.252 21.1285H17.688Z" fill="white"/>
<path fill-rule="evenodd" clip-rule="evenodd" d="M38.3144 21.4925C41.2264 21.4925 42.6544 19.6165 43.0464 19.0565H43.2144V21.1285H46.0984V0.12851H43.1584V8.61251H42.9624C42.4864 7.85651 40.9744 6.12051 38.1744 6.12051C34.0864 6.12051 31.2024 9.31251 31.2024 13.8485C31.2024 18.3845 34.1144 21.4925 38.3144 21.4925ZM38.7344 18.8325C36.0464 18.8325 34.1984 16.8725 34.1984 13.8205C34.1984 10.8805 36.0464 8.80851 38.7064 8.80851C41.2824 8.80851 43.2424 10.6565 43.2424 13.8205C43.2424 16.5925 41.5344 18.8325 38.7344 18.8325Z" fill="white"/>
<path fill-rule="evenodd" clip-rule="evenodd" d="M62.2399 16.7045C61.4839 19.5325 58.8799 21.4925 55.2679 21.4925C50.8719 21.4925 47.9039 18.2445 47.9039 13.8485C47.9039 9.20051 51.0399 6.12051 55.2119 6.12051C59.7759 6.12051 62.3799 9.48051 62.3799 13.6525V14.7445H50.8439C50.9559 17.2925 52.6639 19.0285 55.3519 19.0285C57.1999 19.0285 58.7959 18.1325 59.3839 16.7045H62.2399ZM55.2119 8.58451C52.9719 8.58451 51.1239 10.1805 50.8999 12.4765H59.4679C59.2719 10.0125 57.4799 8.58451 55.2119 8.58451Z" fill="white"/>
<path d="M73.1712 11.8459C70.5913 11.706 69.0862 13.6944 68.9255 15.7039L67.6355 15.634C67.795 12.6929 69.9445 10.2737 73.1951 10.4499C75.3134 10.5648 76.7808 11.6256 78.2095 12.6584C79.5649 13.6382 80.8856 14.5929 82.6942 14.691C85.1709 14.8253 86.7276 12.8397 86.8367 10.8274L88.1782 10.9001C88.0244 13.738 85.9181 16.3148 82.6158 16.1358C80.5047 16.0213 79.0678 14.9552 77.6638 13.9135C76.3226 12.9185 75.0114 11.9457 73.1712 11.8459Z" fill="white"/>
</svg>
