<svg width="48" height="48" viewBox="0 0 48 48" fill="none" xmlns="http://www.w3.org/2000/svg">
<path d="M0 6C0 2.68629 2.68629 0 6 0H42C45.3137 0 48 2.68629 48 6V42C48 45.3137 45.3137 48 42 48H6C2.68629 48 0 45.3137 0 42V6Z" fill="#CBC7EB"/>
<path opacity="0.5" fill-rule="evenodd" clip-rule="evenodd" d="M20.3681 16.8418L20.982 16.0524C21.6602 15.1805 21.5031 13.924 20.6312 13.2458L19.0525 12.0179C18.1806 11.3398 16.924 11.4969 16.2459 12.3688L15.632 13.1581L8.63196 22.1581L8.15445 22.7721C7.59272 23.4943 7.59272 24.5056 8.15445 25.2278L8.63196 25.8418L15.632 34.8418L16.2459 35.6311C16.924 36.503 18.1806 36.6601 19.0525 35.9819L20.6312 34.7541C21.5031 34.0759 21.6602 32.8194 20.982 31.9475L20.3681 31.1581L15.7556 25.2278C15.1939 24.5056 15.1939 23.4943 15.7556 22.7721L20.3681 16.8418ZM27.632 16.8418L27.018 16.0524C26.3399 15.1805 26.4969 13.924 27.3688 13.2458L28.9475 12.0179C29.8194 11.3398 31.076 11.4969 31.7541 12.3688L32.3681 13.1581L39.3681 22.1581L39.8456 22.7721C40.4073 23.4943 40.4073 24.5056 39.8456 25.2278L39.3681 25.8418L32.3681 34.8418L31.7541 35.6311C31.076 36.503 29.8194 36.6601 28.9475 35.9819L27.3688 34.7541C26.4969 34.0759 26.3399 32.8194 27.018 31.9475L27.632 31.1581L32.2444 25.2278C32.8061 24.5056 32.8061 23.4943 32.2444 22.7721L27.632 16.8418Z" fill="#F1EFFE"/>
<path fill-rule="evenodd" clip-rule="evenodd" d="M20.3681 16.8418L20.982 16.0524C21.6602 15.1805 21.5031 13.924 20.6312 13.2458L19.0525 12.0179C18.1806 11.3398 16.924 11.4969 16.2459 12.3688L15.632 13.1581L8.63196 22.1581L8.15445 22.7721C7.59272 23.4943 7.59272 24.5056 8.15445 25.2278L8.63196 25.8418L15.632 34.8418L16.2459 35.6311C16.924 36.503 18.1806 36.6601 19.0525 35.9819L20.6312 34.7541C21.5031 34.0759 21.6602 32.8194 20.982 31.9475L20.3681 31.1581L15.7556 25.2278C15.1939 24.5056 15.1939 23.4943 15.7556 22.7721L20.3681 16.8418ZM27.632 16.8418L27.018 16.0524C26.3399 15.1805 26.4969 13.924 27.3688 13.2458L28.9475 12.0179C29.8194 11.3398 31.076 11.4969 31.7541 12.3688L32.3681 13.1581L39.3681 22.1581L39.8456 22.7721C40.4073 23.4943 40.4073 24.5056 39.8456 25.2278L39.3681 25.8418L32.3681 34.8418L31.7541 35.6311C31.076 36.503 29.8194 36.6601 28.9475 35.9819L27.3688 34.7541C26.4969 34.0759 26.3399 32.8194 27.018 31.9475L27.632 31.1581L32.2444 25.2278C32.8061 24.5056 32.8061 23.4943 32.2444 22.7721L27.632 16.8418Z" fill="#E6E4F9"/>
</svg>
