<svg width="24" height="24" viewBox="0 0 24 24" fill="none" xmlns="http://www.w3.org/2000/svg">
<path class="glyph-fill" fill-rule="evenodd" clip-rule="evenodd" d="M4 6C4 4.89543 4.89543 4 6 4H18C19.1046 4 20 4.89543 20 6V18C20 19.1046 19.1046 20 18 20H8.13605L10.1362 18H18V6H6V11H4V6ZM11.4171 10.4431C12.008 9.85229 12.966 9.85229 13.5568 10.4431C14.1477 11.0339 14.1477 11.9919 13.5568 12.5827L12.8142 13.3252L10.6745 11.1857L11.4171 10.4431ZM4 17.8641V20H6.13605L12.2086 13.9279L10.0726 11.7921L4 17.8641Z" fill="#444444"/>
</svg>
