<svg width="41" height="18" viewBox="0 0 41 18" fill="none" xmlns="http://www.w3.org/2000/svg">
<path d="M18 7H23V18H18V7Z" fill="#66B7AF"/>
<rect x="30" width="5" height="18" fill="#636C8B"/>
<rect x="18" y="1" width="5" height="5" rx="2.5" fill="#66B7AF"/>
<path fill-rule="evenodd" clip-rule="evenodd" d="M12 7H17V13C17 15.7614 14.7614 18 12 18V13L12 7Z" fill="#F4675A"/>
<path fill-rule="evenodd" clip-rule="evenodd" d="M6 7H11V13C11 15.7614 8.76142 18 6 18V13V7Z" fill="#F4675A"/>
<path fill-rule="evenodd" clip-rule="evenodd" d="M41 12C41 9.23858 38.7614 7 36 7V12V18H41V12Z" fill="#636C8B"/>
<path fill-rule="evenodd" clip-rule="evenodd" d="M5 7H0V13C0 15.7614 2.23858 18 5 18V13V7Z" fill="#F4675A"/>
<path fill-rule="evenodd" clip-rule="evenodd" d="M24 6.71013V7V11V13C24 15.7614 26.2386 18 29 18V13V7V4H27.7454C26.85 5.28367 25.5354 6.2532 24 6.71013Z" fill="#EA990B"/>
</svg>
