<svg width="32" height="32" viewBox="0 0 32 32" fill="none" xmlns="http://www.w3.org/2000/svg">
<path fill-rule="evenodd" clip-rule="evenodd" d="M6.6894 11.4478C7.58382 11.0006 7.58351 11 7.58351 11L7.58681 11.0064C7.59066 11.0139 7.59736 11.0267 7.60691 11.0446C7.62601 11.0805 7.65647 11.1364 7.69827 11.2095C7.78193 11.3559 7.91056 11.5706 8.08395 11.8306C8.43184 12.3525 8.95371 13.0479 9.6465 13.7407C11.0375 15.1317 13.0482 16.4478 15.6894 16.4478C18.3306 16.4478 20.3413 15.1317 21.7323 13.7407C22.4251 13.0479 22.947 12.3525 23.2948 11.8306C23.4682 11.5706 23.5969 11.3559 23.6805 11.2095C23.7223 11.1364 23.7528 11.0805 23.7719 11.0446C23.7814 11.0267 23.7881 11.0139 23.792 11.0064L23.7953 11C23.7953 11 23.795 11.0006 24.6894 11.4478C25.5838 11.8951 25.5834 11.8958 25.5834 11.8958L25.5819 11.899L25.5788 11.9051L25.5692 11.9237C25.5614 11.9389 25.5505 11.9598 25.5366 11.9858C25.5088 12.0379 25.469 12.1109 25.417 12.2018C25.3132 12.3835 25.1606 12.6376 24.9589 12.94C24.6437 13.413 24.2048 14.0097 23.6408 14.6345L26.3788 17.2401L25 18.6889L22.1944 16.0189C21.3952 16.6746 20.4446 17.2888 19.3433 17.7355L20.3122 21.1768L18.3871 21.7189L17.4227 18.2937C16.8733 18.393 16.2955 18.4478 15.6894 18.4478C15.0833 18.4478 14.5055 18.393 13.9561 18.2937L12.9917 21.7189L11.0666 21.1768L12.0355 17.7355C10.9342 17.2888 9.98356 16.6746 9.18434 16.0189L6.37877 18.6889L5 17.2401L7.73796 14.6345C7.17402 14.0097 6.73514 13.413 6.41985 12.94C6.21823 12.6376 6.06561 12.3835 5.96178 12.2018C5.90983 12.1109 5.86997 12.0379 5.8422 11.9858C5.82831 11.9598 5.81743 11.9389 5.80957 11.9237L5.80002 11.9051L5.79693 11.899L5.79581 11.8967L5.79536 11.8958C5.79536 11.8958 5.79497 11.8951 6.6894 11.4478Z" fill="#303030"/>
</svg>
