<svg width="40" height="40" viewBox="0 0 40 40" fill="none" xmlns="http://www.w3.org/2000/svg">
<rect width="40" height="40" rx="10" fill="#EA990B"/>
<path fill-rule="evenodd" clip-rule="evenodd" d="M14.8465 8.36515C14.9855 8.22624 15.1739 8.14819 15.3703 8.14819L24.6296 8.14819C25.0387 8.14819 25.3703 8.47984 25.3703 8.88894L25.3703 16.7035L28.0815 22.656C28.1859 22.8853 28.1666 23.1519 28.0303 23.3638C27.894 23.5757 27.6593 23.7037 27.4074 23.7037H20.7407V31.8519C20.7407 32.261 20.4091 32.5926 20 32.5926C19.5909 32.5926 19.2592 32.261 19.2592 31.8519L19.2592 23.7037H12.5925C12.3406 23.7037 12.1059 23.5757 11.9696 23.3638C11.8333 23.1519 11.814 22.8853 11.9184 22.656L14.6296 16.7035V8.88893C14.6296 8.69248 14.7076 8.50407 14.8465 8.36515ZM16.1111 9.62967V16.8642C16.1111 16.9702 16.0883 17.0749 16.0444 17.1713L13.7439 22.2223H26.256L23.9555 17.1713C23.9116 17.0749 23.8888 16.9702 23.8888 16.8642L23.8888 9.62968L16.1111 9.62967ZM19.2592 11.8519C19.2592 11.4428 18.9276 11.1112 18.5185 11.1112C18.1094 11.1112 17.7777 11.4428 17.7777 11.8519V15.5556C17.7777 15.9647 18.1094 16.2963 18.5185 16.2963C18.9276 16.2963 19.2592 15.9647 19.2592 15.5556V11.8519Z" fill="white"/>
</svg>
