<svg width="60" height="60" viewBox="0 0 60 60" fill="none" xmlns="http://www.w3.org/2000/svg">
<rect width="60" height="60" rx="15" fill="#DF6C6C"/>
<path d="M17.1481 23.6254C17.2772 21.6243 18.0411 20.0643 19.4397 18.9454C20.8599 17.8265 22.6673 17.2671 24.8621 17.2671C26.3683 17.2671 27.6701 17.536 28.7674 18.074C29.8648 18.6119 30.6932 19.3435 31.2527 20.2687C31.8121 21.194 32.0919 22.2375 32.0919 23.3995C32.0919 24.7335 31.7368 25.874 31.0268 26.8207C30.3167 27.7675 29.4668 28.4022 28.477 28.725V28.8541C29.7465 29.2414 30.7363 29.9515 31.4463 30.9843C32.1564 31.9956 32.5114 33.2974 32.5114 34.8897C32.5114 36.1592 32.221 37.2888 31.64 38.2786C31.059 39.2684 30.1983 40.0538 29.0579 40.6348C27.9175 41.1942 26.5512 41.474 24.9589 41.474C22.635 41.474 20.72 40.8822 19.2138 39.6988C17.7291 38.4938 16.933 36.7724 16.8254 34.5346H20.3757C20.4618 35.6751 20.9029 36.6111 21.699 37.3426C22.4952 38.0527 23.571 38.4077 24.9266 38.4077C26.2392 38.4077 27.2505 38.0527 27.9605 37.3426C28.6706 36.6111 29.0256 35.6751 29.0256 34.5346C29.0256 33.0284 28.5415 31.9633 27.5732 31.3393C26.6265 30.6938 25.1633 30.3711 23.1837 30.3711H22.3445V27.3371H23.216C24.9589 27.3156 26.2822 27.0251 27.1859 26.4657C28.1112 25.9062 28.5738 25.024 28.5738 23.8191C28.5738 22.7862 28.2403 21.9686 27.5732 21.3661C26.9062 20.7421 25.9594 20.4301 24.733 20.4301C23.528 20.4301 22.592 20.7421 21.925 21.3661C21.2579 21.9686 20.8599 22.7217 20.7308 23.6254H17.1481ZM35.8923 21.1724V17.8157H42.6057V41.3448H38.894V21.1724H35.8923Z" fill="white"/>
</svg>
