<svg width="60" height="60" viewBox="0 0 60 60" fill="none" xmlns="http://www.w3.org/2000/svg">
<rect width="60" height="60" rx="15" fill="#FFB341"/>
<path fill-rule="evenodd" clip-rule="evenodd" d="M35.2975 40.479L35.2992 40.4884C35.3102 40.5478 35.3313 40.6617 35.3313 40.784V44.4786C35.3313 46.4202 33.7479 47.95 31.8599 47.95H27.0912C25.1497 47.95 23.6199 46.3667 23.6199 44.4786V40.3868L23.6203 40.3762C23.6371 39.9388 23.4914 39.3088 23.1394 38.5013C22.7957 37.7129 22.2749 36.799 21.5901 35.7998C21.1187 35.2839 20.6185 34.6925 20.2477 33.9972L20.2443 33.9908L20.241 33.9843C20.2365 33.9752 20.2324 33.9684 20.2109 33.936L20.2084 33.9323C20.1883 33.9022 20.1552 33.8525 20.1213 33.7874C19.1751 32.16 18.6793 30.308 18.6793 28.4541C18.6793 22.5232 23.5213 17.6805 29.452 17.6794C35.3868 17.6352 40.2288 22.481 40.2288 28.4112C40.2288 30.2558 39.7381 32.0503 38.8512 33.6625C38.8004 33.8035 38.7315 33.9443 38.607 34.0821L38.5332 34.1929C38.2067 34.6827 37.847 35.2223 37.3943 35.6834C36.6712 36.6998 36.1319 37.6314 35.7792 38.4375C35.4183 39.2624 35.2708 39.9154 35.2879 40.377L35.2883 40.3872V40.4264C35.289 40.4309 35.29 40.437 35.2915 40.4456L35.2975 40.479ZM36.4722 32.4939L36.4735 32.4926L36.476 32.4902C36.4801 32.4861 36.4781 32.4877 36.4722 32.4939ZM36.5152 32.408L36.5165 32.4067L36.5189 32.4043C36.5231 32.4001 36.5211 32.4018 36.5152 32.408ZM36.3793 32.6122C36.3622 32.6407 36.3454 32.674 36.3312 32.7118C36.1061 33.1134 35.8146 33.5108 35.4934 33.8377C35.4878 33.8414 35.4817 33.8455 35.4756 33.8499C35.4531 33.8657 35.4142 33.8951 35.374 33.9392C35.3345 33.9825 35.302 34.0309 35.2772 34.0827C34.2975 35.4627 33.1701 37.3269 32.7781 39.074H26.1717C25.8475 37.639 25.0111 35.9947 23.7178 34.1526L23.6903 34.1136L23.58 34.0032C23.2109 33.5961 22.8748 33.1546 22.5718 32.6783V32.6451L22.4974 32.517C21.7699 31.2641 21.3689 29.8551 21.3689 28.4112C21.3689 23.9462 24.9891 20.326 29.4541 20.326C33.919 20.326 37.5393 23.9462 37.5393 28.4112C37.5393 29.867 37.1753 31.2712 36.4577 32.4673L36.4229 32.5253L36.4214 32.5278L36.3793 32.5979V32.6122ZM35.3355 15.8072L36.2811 14.2168C36.6492 13.5641 37.4557 13.3531 38.0986 13.7102C38.7574 14.0763 38.9716 14.8867 38.613 15.5322L38.6091 15.5392L37.6685 17.1211C37.4159 17.6027 36.8939 17.7913 36.4997 17.7913C36.2789 17.7913 36.0744 17.7226 35.9592 17.6838C35.9522 17.6815 35.9455 17.6792 35.9391 17.6771L35.8906 17.661L35.8459 17.6361C35.1871 17.2701 34.9729 16.4597 35.3315 15.8142L35.3355 15.8072ZM22.7989 14.2167C22.4308 13.5641 21.6243 13.3531 20.9814 13.7102C20.3226 14.0763 20.1084 14.8867 20.467 15.5322L20.4709 15.5392L21.4115 17.1212C21.6641 17.6028 22.1861 17.7913 22.5803 17.7913C22.8011 17.7913 23.0056 17.7226 23.1208 17.6838C23.1278 17.6815 23.1345 17.6792 23.1409 17.6771L23.1894 17.661L23.234 17.6361C23.8929 17.2701 24.1071 16.4597 23.7485 15.8142L23.7445 15.8072L22.7989 14.2167ZM42.5408 19.471L42.5479 19.467C43.1934 19.1084 44.0038 19.3226 44.3698 19.9815C44.727 20.6243 44.5159 21.4308 43.8633 21.7989L42.2289 22.7708L42.1727 22.7895C42.1663 22.7916 42.1596 22.7939 42.1526 22.7962C42.0374 22.8349 41.8329 22.9037 41.6121 22.9037C41.2152 22.9037 40.689 22.7126 40.4383 22.2239C40.089 21.5827 40.3012 20.7828 40.9504 20.4166L42.5408 19.471ZM15.2167 21.7989C14.5641 21.4308 14.353 20.6243 14.7102 19.9815C15.0762 19.3226 15.8866 19.1084 16.5321 19.467L16.5392 19.471L18.1296 20.4166C18.7788 20.7828 18.991 21.5827 18.6417 22.2239C18.391 22.7126 17.8648 22.9037 17.4679 22.9037C17.4622 22.9037 17.4561 22.9037 17.4497 22.9037C17.3242 22.9042 17.0558 22.9053 16.7903 22.7346L15.2167 21.7989ZM30.8633 14.6206C30.8633 15.354 30.2734 15.9439 29.54 15.9439C28.8072 15.9439 28.1556 15.3868 28.2167 14.5967V12.7733C28.2167 12.0399 28.8066 11.45 29.54 11.45C30.2734 11.45 30.8633 12.0399 30.8633 12.7733V14.6206ZM13.7733 27.1738H15.6206C16.354 27.1738 16.9439 27.7637 16.9439 28.4971C16.9439 29.2305 16.354 29.8204 15.6206 29.8204H13.7733C13.0399 29.8204 12.45 29.2305 12.45 28.4971C12.45 27.7637 13.0399 27.1738 13.7733 27.1738ZM43.4594 27.1738H45.3067C46.0401 27.1738 46.63 27.7637 46.63 28.4971C46.63 29.2305 46.0401 29.8204 45.3067 29.8204H43.4594C42.726 29.8204 42.1361 29.2305 42.1361 28.4971C42.1361 27.7637 42.726 27.1738 43.4594 27.1738ZM26.3094 44.5263C26.3744 44.9365 26.7047 45.2175 27.0912 45.2175H31.8599C32.2464 45.2175 32.5767 44.9365 32.6417 44.5263V41.7636H26.3094V44.5263Z" fill="white"/>
</svg>
