<svg width="40" height="40" viewBox="0 0 40 40" fill="none" xmlns="http://www.w3.org/2000/svg">
<rect width="40" height="40" rx="10" fill="#5587DA"/>
<mask id="path-2-inside-1" fill="white">
<path fill-rule="evenodd" clip-rule="evenodd" d="M18.9487 18.3977C18.2892 16.7146 18.6394 14.7273 19.9994 13.3673L21.326 12.0407C23.1576 10.2091 26.1273 10.2091 27.9589 12.0407C29.7906 13.8724 29.7906 16.8421 27.9589 18.6737L26.6323 20.0003C25.2724 21.3603 23.285 21.7105 21.6019 21.0509L23.1592 19.4936C23.9307 19.5363 24.7164 19.263 25.3057 18.6737L26.6323 17.3471C27.7313 16.2481 27.7313 14.4663 26.6323 13.3673C25.5334 12.2683 23.7515 12.2683 22.6526 13.3673L21.326 14.6939C20.7366 15.2832 20.4633 16.0689 20.506 16.8404L18.9487 18.3977ZM18.3967 18.9497C16.7136 18.2902 14.7263 18.6404 13.3664 20.0004L12.0398 21.327C10.2081 23.1586 10.2081 26.1283 12.0398 27.9599C13.8714 29.7916 16.8411 29.7916 18.6727 27.9599L19.9993 26.6333C21.3593 25.2733 21.7095 23.286 21.05 21.6029L19.4927 23.1602C19.5354 23.9316 19.2621 24.7174 18.6727 25.3067L17.3461 26.6333C16.2472 27.7323 14.4653 27.7323 13.3664 26.6333C12.2674 25.5343 12.2674 23.7525 13.3664 22.6535L14.693 21.327C15.2823 20.7376 16.0679 20.4643 16.8394 20.507L18.3967 18.9497ZM22.6401 16.0404L16.0404 22.6401L17.3603 23.96L23.96 17.3603L22.6401 16.0404Z"/>
</mask>
<path fill-rule="evenodd" clip-rule="evenodd" d="M18.9487 18.3977C18.2892 16.7146 18.6394 14.7273 19.9994 13.3673L21.326 12.0407C23.1576 10.2091 26.1273 10.2091 27.9589 12.0407C29.7906 13.8724 29.7906 16.8421 27.9589 18.6737L26.6323 20.0003C25.2724 21.3603 23.285 21.7105 21.6019 21.0509L23.1592 19.4936C23.9307 19.5363 24.7164 19.263 25.3057 18.6737L26.6323 17.3471C27.7313 16.2481 27.7313 14.4663 26.6323 13.3673C25.5334 12.2683 23.7515 12.2683 22.6526 13.3673L21.326 14.6939C20.7366 15.2832 20.4633 16.0689 20.506 16.8404L18.9487 18.3977ZM18.3967 18.9497C16.7136 18.2902 14.7263 18.6404 13.3664 20.0004L12.0398 21.327C10.2081 23.1586 10.2081 26.1283 12.0398 27.9599C13.8714 29.7916 16.8411 29.7916 18.6727 27.9599L19.9993 26.6333C21.3593 25.2733 21.7095 23.286 21.05 21.6029L19.4927 23.1602C19.5354 23.9316 19.2621 24.7174 18.6727 25.3067L17.3461 26.6333C16.2472 27.7323 14.4653 27.7323 13.3664 26.6333C12.2674 25.5343 12.2674 23.7525 13.3664 22.6535L14.693 21.327C15.2823 20.7376 16.0679 20.4643 16.8394 20.507L18.3967 18.9497ZM22.6401 16.0404L16.0404 22.6401L17.3603 23.96L23.96 17.3603L22.6401 16.0404Z" fill="white"/>
<path d="M19.9994 13.3673L19.8684 13.2364L19.8684 13.2364L19.9994 13.3673ZM18.9487 18.3977L18.7763 18.4653L18.8795 18.7288L19.0797 18.5287L18.9487 18.3977ZM21.326 12.0407L21.195 11.9098L21.326 12.0407ZM27.9589 12.0407L28.0899 11.9098L28.0899 11.9098L27.9589 12.0407ZM27.9589 18.6737L28.0899 18.8046L28.0899 18.8046L27.9589 18.6737ZM26.6323 20.0003L26.5014 19.8693L26.5014 19.8693L26.6323 20.0003ZM21.6019 21.0509L21.4709 20.92L21.2708 21.1201L21.5343 21.2233L21.6019 21.0509ZM23.1592 19.4936L23.1695 19.3087L23.0868 19.3041L23.0283 19.3627L23.1592 19.4936ZM25.3057 18.6737L25.4367 18.8046L25.4367 18.8046L25.3057 18.6737ZM26.6323 17.3471L26.5014 17.2162L26.5014 17.2162L26.6323 17.3471ZM26.6323 13.3673L26.7633 13.2364L26.7633 13.2364L26.6323 13.3673ZM22.6526 13.3673L22.5216 13.2364L22.5216 13.2364L22.6526 13.3673ZM21.326 14.6939L21.4569 14.8249L21.4569 14.8249L21.326 14.6939ZM20.506 16.8404L20.637 16.9713L20.6955 16.9128L20.6909 16.8301L20.506 16.8404ZM13.3664 20.0004L13.4973 20.1313L13.4973 20.1313L13.3664 20.0004ZM18.3967 18.9497L18.5277 19.0806L18.7278 18.8805L18.4643 18.7773L18.3967 18.9497ZM12.0398 21.327L11.9088 21.196L11.9088 21.196L12.0398 21.327ZM12.0398 27.9599L12.1707 27.829L12.1707 27.829L12.0398 27.9599ZM18.6727 27.9599L18.5418 27.829L18.5418 27.829L18.6727 27.9599ZM19.9993 26.6333L20.1303 26.7643L20.1303 26.7643L19.9993 26.6333ZM21.05 21.6029L21.2224 21.5353L21.1191 21.2718L20.919 21.4719L21.05 21.6029ZM19.4927 23.1602L19.3617 23.0292L19.3032 23.0877L19.3077 23.1704L19.4927 23.1602ZM18.6727 25.3067L18.5418 25.1758L18.5418 25.1758L18.6727 25.3067ZM17.3461 26.6333L17.4771 26.7643L17.4771 26.7643L17.3461 26.6333ZM13.3664 26.6333L13.2354 26.7643L13.2354 26.7643L13.3664 26.6333ZM13.3664 22.6535L13.2354 22.5226L13.3664 22.6535ZM14.693 21.327L14.562 21.196L14.562 21.196L14.693 21.327ZM16.8394 20.507L16.8291 20.6919L16.9118 20.6965L16.9703 20.638L16.8394 20.507ZM16.0404 22.6401L15.9095 22.5091L15.7785 22.6401L15.9095 22.771L16.0404 22.6401ZM22.6401 16.0404L22.771 15.9095L22.6401 15.7785L22.5091 15.9095L22.6401 16.0404ZM17.3603 23.96L17.2294 24.0909L17.3603 24.2219L17.4913 24.0909L17.3603 23.96ZM23.96 17.3603L24.0909 17.4913L24.2219 17.3603L24.0909 17.2294L23.96 17.3603ZM19.8684 13.2364C18.4545 14.6502 18.0909 16.7161 18.7763 18.4653L19.1211 18.3302C18.4875 16.7131 18.8242 14.8043 20.1303 13.4983L19.8684 13.2364ZM21.195 11.9098L19.8684 13.2364L20.1303 13.4983L21.4569 12.1717L21.195 11.9098ZM28.0899 11.9098C26.1859 10.0058 23.099 10.0058 21.195 11.9098L21.4569 12.1717C23.2162 10.4123 26.0687 10.4123 27.828 12.1717L28.0899 11.9098ZM28.0899 18.8046C29.9939 16.9007 29.9939 13.8137 28.0899 11.9098L27.828 12.1717C29.5873 13.931 29.5873 16.7834 27.828 18.5428L28.0899 18.8046ZM26.7633 20.1312L28.0899 18.8046L27.828 18.5428L26.5014 19.8693L26.7633 20.1312ZM21.5343 21.2233C23.2835 21.9088 25.3494 21.5451 26.7633 20.1312L26.5014 19.8693C25.1953 21.1754 23.2865 21.5122 21.6695 20.8785L21.5343 21.2233ZM23.0283 19.3627L21.4709 20.92L21.7328 21.1819L23.2902 19.6245L23.0283 19.3627ZM25.1748 18.5428C24.6242 19.0933 23.8906 19.3487 23.1695 19.3087L23.149 19.6785C23.9708 19.724 24.8086 19.4328 25.4367 18.8046L25.1748 18.5428ZM26.5014 17.2162L25.1748 18.5428L25.4367 18.8046L26.7633 17.478L26.5014 17.2162ZM26.5014 13.4983C27.5281 14.5249 27.5281 16.1895 26.5014 17.2162L26.7633 17.478C27.9346 16.3067 27.9346 14.4077 26.7633 13.2364L26.5014 13.4983ZM22.7835 13.4983C23.8102 12.4716 25.4747 12.4716 26.5014 13.4983L26.7633 13.2364C25.592 12.0651 23.6929 12.0651 22.5216 13.2364L22.7835 13.4983ZM21.4569 14.8249L22.7835 13.4983L22.5216 13.2364L21.195 14.563L21.4569 14.8249ZM20.6909 16.8301C20.651 16.1091 20.9064 15.3754 21.4569 14.8249L21.195 14.563C20.5669 15.1911 20.2756 16.0288 20.3211 16.8506L20.6909 16.8301ZM19.0797 18.5287L20.637 16.9713L20.3751 16.7094L18.8178 18.2668L19.0797 18.5287ZM13.4973 20.1313C14.8034 18.8252 16.7121 18.4885 18.3292 19.1221L18.4643 18.7773C16.7151 18.0919 14.6493 18.4556 13.2354 19.8694L13.4973 20.1313ZM12.1707 21.4579L13.4973 20.1313L13.2354 19.8694L11.9088 21.196L12.1707 21.4579ZM12.1707 27.829C10.4114 26.0697 10.4114 23.2172 12.1707 21.4579L11.9088 21.196C10.0048 23.1 10.0048 26.1869 11.9088 28.0909L12.1707 27.829ZM18.5418 27.829C16.7825 29.5883 13.93 29.5883 12.1707 27.829L11.9088 28.0909C13.8128 29.9948 16.8997 29.9948 18.8037 28.0909L18.5418 27.829ZM19.8684 26.5024L18.5418 27.829L18.8037 28.0909L20.1303 26.7643L19.8684 26.5024ZM20.8775 21.6704C21.5112 23.2875 21.1745 25.1963 19.8684 26.5024L20.1303 26.7643C21.5442 25.3504 21.9078 23.2844 21.2224 21.5353L20.8775 21.6704ZM19.6236 23.2911L21.1809 21.7338L20.919 21.4719L19.3617 23.0292L19.6236 23.2911ZM18.8037 25.4377C19.4318 24.8095 19.7231 23.9718 19.6776 23.1499L19.3077 23.1704C19.3477 23.8915 19.0924 24.6252 18.5418 25.1758L18.8037 25.4377ZM17.4771 26.7643L18.8037 25.4377L18.5418 25.1758L17.2152 26.5024L17.4771 26.7643ZM13.2354 26.7643C14.4067 27.9356 16.3058 27.9356 17.4771 26.7643L17.2152 26.5024C16.1885 27.5291 14.524 27.5291 13.4973 26.5024L13.2354 26.7643ZM13.2354 22.5226C12.0641 23.6939 12.0641 25.593 13.2354 26.7643L13.4973 26.5024C12.4706 25.4757 12.4706 23.8112 13.4973 22.7845L13.2354 22.5226ZM14.562 21.196L13.2354 22.5226L13.4973 22.7845L14.8239 21.4579L14.562 21.196ZM16.8496 20.3221C16.0278 20.2766 15.1901 20.5679 14.562 21.196L14.8239 21.4579C15.3744 20.9074 16.1081 20.652 16.8291 20.6919L16.8496 20.3221ZM18.2658 18.8188L16.7084 20.3761L16.9703 20.638L18.5277 19.0806L18.2658 18.8188ZM16.1713 22.771L22.771 16.1713L22.5091 15.9095L15.9095 22.5091L16.1713 22.771ZM17.4913 23.8291L16.1713 22.5091L15.9095 22.771L17.2294 24.0909L17.4913 23.8291ZM23.8291 17.2294L17.2294 23.8291L17.4913 24.0909L24.0909 17.4913L23.8291 17.2294ZM22.5091 16.1713L23.8291 17.4913L24.0909 17.2294L22.771 15.9095L22.5091 16.1713Z" fill="#636C8B" mask="url(#path-2-inside-1)"/>
</svg>
