<svg width="40" height="40" viewBox="0 0 40 40" fill="none" xmlns="http://www.w3.org/2000/svg">
<rect width="40" height="40" rx="10" fill="#F4675A"/>
<path d="M20.4419 11.5676H12.0072V13.1383H18.4839L14.5032 17.9367V19.3353H15.6651C17.9674 19.3353 19.1939 20.5618 19.1939 22.2832C19.1939 24.0476 17.9029 25.2956 16.1815 25.2956C14.3095 25.2956 13.3843 24.2843 12.997 23.0793L11.5123 23.6172C11.9426 25.1019 13.2121 26.8878 16.203 26.8878C18.9142 26.8878 20.9799 24.9083 20.9799 22.2401C20.9799 19.0771 18.4408 17.8076 16.5043 17.8076L20.4419 13.2029V11.5676ZM23.3767 14.0421L25.1196 13.332V26.6296H26.8625V11.5676H25.4423L22.8387 12.6004L23.3767 14.0421Z" fill="white"/>
</svg>
