<svg width="40" height="40" viewBox="0 0 40 40" fill="none" xmlns="http://www.w3.org/2000/svg">
<rect width="40" height="40" rx="10" fill="#66B7AF"/>
<path fill-rule="evenodd" clip-rule="evenodd" d="M26.2593 11.5005C26.2593 11.3387 26.1127 11.2164 25.9535 11.2455L15.9535 13.0702C15.8303 13.0927 15.7408 13.2 15.7408 13.3253V16.6072L26.2593 14.7176V11.5005ZM26.2593 16.2228V22.2743C25.7527 21.946 25.1486 21.7554 24.5 21.7554C22.7099 21.7554 21.2592 23.2072 21.2592 24.9973C21.2592 26.7875 22.7099 28.2392 24.5 28.2392C26.2901 28.2392 27.7407 26.7875 27.7407 24.9973C27.7407 24.8831 27.7348 24.7703 27.7233 24.6591H27.7408V23.9183V11.5005C27.7408 10.414 26.7564 9.59302 25.6875 9.78806L15.6875 11.6128C14.8603 11.7637 14.2593 12.4844 14.2593 13.3253V24.2752C13.7527 23.947 13.1486 23.7564 12.5 23.7564C10.7099 23.7564 9.25928 25.2082 9.25928 26.9983C9.25928 28.7884 10.7099 30.2402 12.5 30.2402C14.2902 30.2402 15.7408 28.7884 15.7408 26.9983C15.7408 26.9107 15.7373 26.824 15.7305 26.7381H15.7408V25.9974V18.1124L26.2593 16.2228ZM22.7407 24.9973C22.7407 24.0248 23.5287 23.2369 24.5 23.2369C25.4713 23.2369 26.2592 24.0248 26.2592 24.9973C26.2592 25.9699 25.4713 26.7577 24.5 26.7577C23.5287 26.7577 22.7407 25.9699 22.7407 24.9973ZM10.7408 26.9983C10.7408 26.0257 11.5287 25.2379 12.5 25.2379C13.4713 25.2379 14.2593 26.0257 14.2593 26.9983C14.2593 27.9709 13.4713 28.7587 12.5 28.7587C11.5287 28.7587 10.7408 27.9709 10.7408 26.9983Z" fill="white"/>
</svg>
