<svg width="60" height="60" viewBox="0 0 60 60" fill="none" xmlns="http://www.w3.org/2000/svg">
<rect width="60" height="60" rx="15" fill="#BC64C4"/>
<path d="M43.0815 43.0815C40.9302 45.2327 38.2816 46.8203 35.3703 47.7034C32.4589 48.5865 29.3747 48.7381 26.3908 48.1445C23.4069 47.551 20.6155 46.2307 18.2637 44.3007C15.912 42.3707 14.0725 39.8904 12.9082 37.0796C11.744 34.2689 11.2909 31.2144 11.5891 28.1867C11.8873 25.159 12.9276 22.2516 14.6178 19.722C16.308 17.1923 18.5961 15.1186 21.2792 13.6845C23.9623 12.2503 26.9577 11.5 30 11.5" stroke="white" stroke-width="3" stroke-linecap="round"/>
<circle opacity="0.2" cx="30" cy="30" r="14" fill="white"/>
<path d="M30 20V30L37 37" stroke="white" stroke-width="3" stroke-linecap="round"/>
</svg>
