<svg width="40" height="40" viewBox="0 0 40 40" fill="none" xmlns="http://www.w3.org/2000/svg">
<rect width="40" height="40" rx="10" fill="#9C4ADD"/>
<path d="M7.91117 23.5259C8.56598 25.771 9.83303 27.7893 11.5703 29.3548C13.3076 30.9203 15.4466 31.9711 17.7474 32.3894C20.0483 32.8078 22.4202 32.5771 24.5974 31.7233C26.7746 30.8696 28.671 29.4264 30.0741 27.5555C31.4773 25.6846 32.3317 23.46 32.5418 21.1308C32.7518 18.8017 32.309 16.4601 31.2632 14.3684C30.2173 12.2767 28.6097 10.5175 26.6204 9.28806C24.631 8.05859 22.3386 7.40737 20 7.40737" stroke="white" stroke-width="1.48148" stroke-linecap="round"/>
<circle opacity="0.2" cx="20" cy="20" r="9.33333" fill="white"/>
<path d="M20 13.3334V20L24.6667 24.6667" stroke="white" stroke-width="1.48148" stroke-linecap="round"/>
</svg>
