<svg width="40" height="40" viewBox="0 0 40 40" fill="none" xmlns="http://www.w3.org/2000/svg">
<rect width="40" height="40" rx="10" fill="#EA990B"/>
<path fill-rule="evenodd" clip-rule="evenodd" d="M15 14C14.4477 14 14 14.4477 14 15V26H19V25C19 24.4477 19.4477 24 20 24H23C23.5523 24 24 24.4477 24 25V26H26V15C26 14.4477 25.5523 14 25 14H15ZM23 28H20H13H11C10.4477 28 10 27.5523 10 27C10 26.4477 10.4477 26 11 26H12V15C12 13.3431 13.3431 12 15 12H25C26.6569 12 28 13.3431 28 15V26H29C29.5523 26 30 26.4477 30 27C30 27.5523 29.5523 28 29 28H27H23Z" fill="white"/>
</svg>
