<svg width="40" height="40" viewBox="0 0 40 40" fill="none" xmlns="http://www.w3.org/2000/svg">
<rect width="40" height="40" rx="10" fill="#66B7AF"/>
<path fill-rule="evenodd" clip-rule="evenodd" d="M13 12C12.4477 12 12 12.4477 12 13V28H19V27C19 26.4477 19.4477 26 20 26H24C24.5523 26 25 26.4477 25 27V28H28V13C28 12.4477 27.5523 12 27 12H13ZM24 30H20H11H8C7.44772 30 7 29.5523 7 29C7 28.4477 7.44772 28 8 28H10V13C10 11.3431 11.3431 10 13 10H27C28.6569 10 30 11.3431 30 13V28H32C32.5523 28 33 28.4477 33 29C33 29.5523 32.5523 30 32 30H29H24Z" fill="white"/>
</svg>
